<svg width="64" height="64" viewBox="0 0 64 64" fill="none" xmlns="http://www.w3.org/2000/svg">
<path fill-rule="evenodd" clip-rule="evenodd" d="M35 18V47.421L63.46 62.11C63.95 62.36 64.14 62.97 63.89 63.46C63.71 63.8 63.36 64 63 64C62.85 64 62.69 63.96 62.54 63.89L32 48.12L1.45998 63.89C0.959984 64.14 0.369984 63.95 0.109984 63.46C-0.140016 62.97 0.0499837 62.37 0.539984 62.11L29 47.421V1C29 0.45 29.45 0 30 0H34C34.55 0 35 0.45 35 1V4H45C45.55 4 46 4.45 46 5V17H45.9985C45.9985 17.2594 45.894 17.516 45.7 17.71L42.41 21H55.58L50.29 15.71C49.9 15.32 49.9 14.69 50.29 14.3L55.59 9H48V7H58C58.4 7 58.77 7.24 58.92 7.62C59.08 7.99 58.99 8.42 58.7 8.71L52.41 15L58.7 21.29C58.99 21.58 59.07 22.01 58.92 22.38C58.77 22.76 58.4 23 58 23H40C39.6 23 39.23 22.76 39.08 22.38C39.027 22.2575 39.0015 22.1284 39.0015 22H39V18H35ZM41 18V19.59L42.59 18H41ZM35 16V6H44V16H35ZM33 2V46.3887L32.46 46.11C32.17 45.96 31.83 45.96 31.54 46.11L31 46.3887V2H33Z" fill="#7C9CB4"/>
</svg>
