<svg width="64" height="52" viewBox="0 0 64 52" fill="none" xmlns="http://www.w3.org/2000/svg">
<path fill-rule="evenodd" clip-rule="evenodd" d="M39.8765 9.54571H29.7794L3.87479 49.8903L41.5167 49.816C49.5898 49.816 55.4659 42.2686 54.8414 34.6246C54.247 27.3149 47.9947 21.7063 40.5085 22.2337C34.2561 22.672 28.5455 27.9686 29.0346 34.424C29.471 40.0994 34.4743 44.5269 40.2075 44.2446C45.0002 44.0069 48.3258 40.872 48.3333 36.1177C48.3333 32.3737 46.0235 29.0977 42.0734 28.756C38.9962 28.4886 35.791 30.6057 35.9114 33.8817C36.0092 36.6006 38.3115 38.2794 41.0201 38.1754L41.0953 40.2703C37.1904 40.4114 33.9326 37.8263 33.7821 33.9486C33.6091 29.4023 37.8902 26.2823 42.254 26.6537C47.31 27.092 50.455 31.2817 50.455 36.1103C50.455 41.9863 46.2341 46.0423 40.3053 46.3394C33.4285 46.6811 27.432 41.3771 26.9129 34.58C26.6947 31.7869 27.4621 28.9269 29.2603 26.3714L39.8765 9.54571ZM34.7452 21.6469L44.2253 6.62629C45.1582 5.2 46.1965 4.14514 47.7088 3.30571C49.0857 2.54057 50.6732 2.10229 52.3736 2.10229C54.9994 2.10229 57.3694 3.14971 59.0924 4.85086C61.5753 7.30229 62.4104 10.7194 61.5226 14.0326L56.5343 31.8091C54.706 24.596 47.9646 19.604 40.3655 20.1389C38.4244 20.2726 36.5133 20.7777 34.7452 21.6469ZM56.6848 39.104C55.2402 46.1909 49.0255 51.9183 41.5167 51.9183L1.93363 51.9926L0 52L1.03829 50.3806L28.2897 7.93371L28.6057 7.44343H29.1926H41.2082L42.4195 5.51943C43.6158 3.744 44.7595 2.53314 46.663 1.47086C48.3483 0.534857 50.297 0 52.3661 0C55.5788 0 58.483 1.28514 60.5897 3.36514C63.5541 6.292 64.7127 10.6229 63.5616 14.5971L56.6848 39.104Z" fill="#7C9CB4"/>
</svg>
