<svg width="48" height="64" viewBox="0 0 48 64" fill="none" xmlns="http://www.w3.org/2000/svg">
<path d="M19.7312 32.7786C19.9501 32.9252 20.1934 32.9985 20.4366 32.9985C20.692 32.9985 20.9474 32.913 21.142 32.7908L24.0122 30.6651L26.8702 32.6931C27.2958 32.9863 27.8675 32.9863 28.2931 32.6808C28.7066 32.3632 28.889 31.8257 28.7309 31.3248L27.6121 27.7576L30.543 25.3877C30.9444 25.07 31.1025 24.5203 30.9322 24.0316C30.762 23.543 30.2998 23.2131 29.789 23.2131H26.2499L25.1554 19.8414C24.9973 19.3405 24.523 18.9985 24 18.9985C23.477 18.9985 23.0027 19.3405 22.8446 19.8414L21.7501 23.2131H18.211C17.7002 23.2131 17.238 23.543 17.0678 24.0316C16.8975 24.5203 17.0556 25.0578 17.457 25.3877L20.3879 27.7332L19.2691 31.4226C19.1231 31.9234 19.3055 32.4732 19.7312 32.7786Z" fill="#7C9CB4"/>
<path d="M29 11.9985H27V13.9985H29V11.9985Z" fill="#7C9CB4"/>
<path d="M19 11.9985H21V13.9985H19V11.9985Z" fill="#7C9CB4"/>
<path d="M25 11.9985H23V13.9985H25V11.9985Z" fill="#7C9CB4"/>
<path d="M27 42.9985H29V44.9985H27V42.9985Z" fill="#7C9CB4"/>
<path d="M21 42.9985H19V44.9985H21V42.9985Z" fill="#7C9CB4"/>
<path d="M23 44.9985V42.9985H25V44.9985H23Z" fill="#7C9CB4"/>
<path fill-rule="evenodd" clip-rule="evenodd" d="M48 0.998491C48 0.648491 47.82 0.328491 47.52 0.148491C47.23 -0.0315091 46.86 -0.0415091 46.55 0.108491L37.38 4.69849H10.61L1.44 0.108491C1.13 -0.051509 0.76 -0.0315091 0.47 0.148491C0.18 0.328491 0 0.648491 0 0.998491V45.9985C0 46.3185 0.15 46.6185 0.41 46.7985L23.41 63.7985C23.58 63.9285 23.79 63.9985 24 63.9985C24.21 63.9985 24.42 63.9285 24.59 63.7985L47.59 46.7985C47.85 46.6185 48 46.3185 48 45.9985V0.998491ZM2 45.4985V2.61849L4 3.61615V43.9985C4 44.3185 4.15 44.6185 4.41 44.7985L23.41 58.7985C23.58 58.9285 23.79 58.9985 24 58.9985C24.21 58.9985 24.42 58.9285 24.59 58.7985L43.59 44.7985C43.85 44.6185 44 44.3185 44 43.9985V3.61966L46 2.61849V45.4985L24 61.7585L2 45.4985ZM42 4.62083L37.45 6.89849L10.56 6.88849L6 4.61382V43.4985L24 56.7585L42 43.4985V4.62083Z" fill="#7C9CB4"/>
</svg>
