<svg width="72" height="52" viewBox="0 0 72 52" fill="none" xmlns="http://www.w3.org/2000/svg">
<path d="M60 52H58.3793V39.8125C58.3793 36.0506 55.8753 33.605 50.0166 31.6469L49.9112 31.6063L43.4284 28.3563C42.9747 28.145 40.5517 26.9669 40.5517 25.1875V21.9375H42.1724V25.1875C42.1724 25.7156 43.3231 26.5281 44.1253 26.8856L50.5919 30.1275C54.984 31.5981 60 34.0356 60 39.8125V52Z" fill="#7C9CB4"/>
<path d="M14.6207 52H13V39.8125C13 34.0356 18.016 31.5981 22.4162 30.1194L28.8503 26.8937C29.7984 26.4631 30.8276 25.6669 30.8276 25.1875V21.9375H32.4483V25.1875C32.4483 26.9669 30.0253 28.145 29.5391 28.3644L22.9834 31.6469C17.1247 33.605 14.6207 36.0506 14.6207 39.8125V52Z" fill="#7C9CB4"/>
<path d="M51.8966 43.0625H50.2759V52H51.8966V43.0625Z" fill="#7C9CB4"/>
<path d="M36.5 25.1875C31.5812 25.1875 28.3966 20.7188 28.3966 13.8125V11.375C28.3966 9.86375 29.4338 8.58813 30.8276 8.23063H33.7453V9.95745H34.2825L36.1362 8.125H41.3621C43.1529 8.125 44.6034 9.57938 44.6034 11.375V13.8125C44.6034 20.7188 41.4188 25.1875 36.5 25.1875ZM31.6379 9.75C30.7466 9.75 30.0172 10.4812 30.0172 11.375V13.8125C30.0172 18.525 31.719 23.5625 36.5 23.5625C41.281 23.5625 42.9828 18.525 42.9828 13.8125V11.375C42.9828 10.4812 42.2534 9.75 41.3621 9.75H36.7308L35 11.4511L32.4483 11.375V9.75H31.6379Z" fill="#7C9CB4"/>
<path d="M36.5 36.66L36.1353 36.4813C35.8517 36.335 29.2069 32.9388 29.2069 27.625H30.8276C30.8276 31.3219 35.1953 34.0844 36.5 34.8237C37.8047 34.0762 42.1724 31.3056 42.1724 27.625H43.7931C43.7931 32.9388 37.1483 36.335 36.8647 36.4731L36.5 36.66Z" fill="#7C9CB4"/>
<path d="M43.7931 17.875V16.25C44.6845 16.25 45.4138 15.5188 45.4138 14.625V13C45.4138 12.5531 45.0491 12.1875 44.6034 12.1875H43.7931V10.5625H44.6034C45.9405 10.5625 47.0345 11.6594 47.0345 13V14.625C47.0345 16.4206 45.584 17.875 43.7931 17.875Z" fill="#7C9CB4"/>
<path d="M29.2069 17.875C27.416 17.875 25.9655 16.4206 25.9655 14.625V13C25.9655 11.6594 27.0595 10.5625 28.3966 10.5625H29.2069V12.1875H28.3966C27.9509 12.1875 27.5862 12.5531 27.5862 13V14.625C27.5862 15.5188 28.3155 16.25 29.2069 16.25V17.875Z" fill="#7C9CB4"/>
<path d="M46.2241 11.375H44.6034V8.125C44.6034 4.54187 41.6943 1.625 38.1207 1.625H34.8793C31.3057 1.625 28.3966 4.54187 28.3966 8.125H26.7759C26.7759 3.64812 30.4143 0 34.8793 0H38.1207C42.5857 0 46.2241 3.64812 46.2241 8.125V11.375Z" fill="#7C9CB4"/>
<path d="M22.7241 43.0625H21.1034V52H22.7241V43.0625Z" fill="#7C9CB4"/>
<path d="M47.397 27.6155L47.4727 27.5859L52.1317 25.2144C52.4578 25.0602 54.1992 24.2005 54.1992 22.9021V20.5306H53.0344V22.9021C53.0344 23.2875 52.2074 23.8804 51.6309 24.1413L46.6282 26.7559L47.397 27.6155Z" fill="#7C9CB4"/>
<path d="M72.8352 42.4672H74V33.574C74 29.3586 70.3951 27.58 67.2328 26.5009L62.6087 24.1472C61.9273 23.833 61.1877 23.2519 61.1877 22.9021V20.5306H60.0229V22.9021C60.0229 24.2005 61.7642 25.0602 62.1137 25.2203L66.8251 27.6155C71.0357 29.0444 72.8352 30.829 72.8352 33.574V42.4672Z" fill="#7C9CB4"/>
<path d="M57.111 22.9021C60.6461 22.9021 62.9348 19.6413 62.9348 14.6018V12.8231C62.9348 11.7204 62.1894 10.7895 61.1877 10.5287L56.9189 10.4516H53.6168C52.3297 10.4516 51.2873 11.5129 51.2873 12.8231V14.6018C51.2873 19.6413 53.576 22.9021 57.111 22.9021ZM60.6053 11.6374C61.2459 11.6374 61.7701 12.171 61.7701 12.8231V14.6018C61.7701 18.0405 60.5471 21.7164 57.111 21.7164C53.675 21.7164 52.452 18.0405 52.452 14.6018V12.8231C52.452 12.171 52.9762 11.6374 53.6168 11.6374H60.6053Z" fill="#7C9CB4"/>
<path d="M57.111 31.2736L57.3731 31.1432C57.5769 31.0365 62.3524 28.5582 62.3524 24.6808H61.1877C61.1877 27.3784 58.0487 29.3942 57.111 29.9337C56.1734 29.3883 53.0344 27.3665 53.0344 24.6808H51.8696C51.8696 28.5582 56.6451 31.0365 56.849 31.1373L57.111 31.2736Z" fill="#7C9CB4"/>
<path d="M51.8696 17.5662V16.3804C51.229 16.3804 50.7049 15.8468 50.7049 15.1947V14.0089C50.7049 13.6828 50.967 13.416 51.2873 13.416H51.8696V12.2303H51.2873C50.3263 12.2303 49.5401 13.0306 49.5401 14.0089V15.1947C49.5401 16.5049 50.5826 17.5662 51.8696 17.5662Z" fill="#7C9CB4"/>
<path d="M62.3524 17.5662C63.6395 17.5662 64.682 16.5049 64.682 15.1947V14.0089C64.682 13.0306 63.8957 12.2303 62.9348 12.2303H62.3524V13.416H62.9348C63.2551 13.416 63.5172 13.6828 63.5172 14.0089V15.1947C63.5172 15.8468 62.9931 16.3804 62.3524 16.3804V17.5662Z" fill="#7C9CB4"/>
<path d="M50.1225 12.8231H51.2873V10.4516C51.2873 7.837 53.378 5.70855 55.9463 5.70855H58.2758C60.8441 5.70855 62.9348 7.837 62.9348 10.4516H64.0996C64.0996 7.18483 61.4847 4.52279 58.2758 4.52279H55.9463C52.7374 4.52279 50.1225 7.18483 50.1225 10.4516V12.8231Z" fill="#7C9CB4"/>
<path d="M24.603 27.6155L24.5273 27.5859L19.8683 25.2144C19.5422 25.0602 17.8008 24.2005 17.8008 22.9021V20.5306H18.9656V22.9021C18.9656 23.2875 19.7926 23.8804 20.3691 24.1413L25.3718 26.7559L24.603 27.6155Z" fill="#7C9CB4"/>
<path d="M-0.835245 42.4672H-2V33.574C-2 29.3586 1.60492 27.58 4.76723 26.5009L9.39131 24.1472C10.0727 23.833 10.8123 23.2519 10.8123 22.9021V20.5306H11.9771V22.9021C11.9771 24.2005 10.2358 25.0602 9.88633 25.2203L5.17489 27.6155C0.964303 29.0444 -0.835245 30.829 -0.835245 33.574V42.4672Z" fill="#7C9CB4"/>
<path d="M14.889 22.9021C11.3539 22.9021 9.06518 19.6413 9.06518 14.6018V12.8231C9.06518 11.7204 9.81062 10.7895 10.8123 10.5287L15.0811 10.4516H18.3832C19.6703 10.4516 20.7127 11.5129 20.7127 12.8231V14.6018C20.7127 19.6413 18.424 22.9021 14.889 22.9021ZM11.3947 11.6374C10.7541 11.6374 10.2299 12.171 10.2299 12.8231V14.6018C10.2299 18.0405 11.4529 21.7164 14.889 21.7164C18.325 21.7164 19.548 18.0405 19.548 14.6018V12.8231C19.548 12.171 19.0238 11.6374 18.3832 11.6374H11.3947Z" fill="#7C9CB4"/>
<path d="M14.889 31.2736L14.6269 31.1432C14.4231 31.0365 9.64755 28.5582 9.64755 24.6808H10.8123C10.8123 27.3784 13.9513 29.3942 14.889 29.9337C15.8266 29.3883 18.9656 27.3665 18.9656 24.6808H20.1304C20.1304 28.5582 15.3549 31.0365 15.151 31.1373L14.889 31.2736Z" fill="#7C9CB4"/>
<path d="M20.1304 17.5662V16.3804C20.771 16.3804 21.2951 15.8468 21.2951 15.1947V14.0089C21.2951 13.6828 21.033 13.416 20.7127 13.416H20.1304V12.2303H20.7127C21.6737 12.2303 22.4599 13.0306 22.4599 14.0089V15.1947C22.4599 16.5049 21.4174 17.5662 20.1304 17.5662Z" fill="#7C9CB4"/>
<path d="M9.64755 17.5662C8.3605 17.5662 7.31804 16.5049 7.31804 15.1947V14.0089C7.31804 13.0306 8.10425 12.2303 9.06518 12.2303H9.64755V13.416H9.06518C8.74487 13.416 8.4828 13.6828 8.4828 14.0089V15.1947C8.4828 15.8468 9.00694 16.3804 9.64755 16.3804V17.5662Z" fill="#7C9CB4"/>
<path d="M21.8775 12.8231H20.7127V10.4516C20.7127 7.837 18.622 5.70855 16.0537 5.70855H13.7242C11.1559 5.70855 9.06518 7.837 9.06518 10.4516H7.90042C7.90042 7.18483 10.5153 4.52279 13.7242 4.52279H16.0537C19.2626 4.52279 21.8775 7.18483 21.8775 10.4516V12.8231Z" fill="#7C9CB4"/>
</svg>
