<svg xmlns="http://www.w3.org/2000/svg" width="19" height="19" viewBox="0 0 19 19">
    <g fill="none" fill-rule="evenodd">
        <g fill="#FFF" fill-rule="nonzero">
            <g>
                <g>
                    <path d="M18.016 7.5l-1.332-.225c-.14-.448-.318-.88-.536-1.293l.785-1.1c.334-.467.282-1.106-.127-1.51L15.624 2.19c-.222-.223-.515-.345-.829-.345-.246 0-.48.075-.678.218l-1.103.785c-.428-.226-.876-.412-1.34-.551L11.452.98C11.356.413 10.868 0 10.293 0h-1.67C8.048 0 7.56.413 7.465.98l-.23 1.348c-.444.14-.877.322-1.29.544l-1.09-.786c-.198-.142-.436-.218-.682-.218-.314 0-.611.123-.83.345L2.159 3.395c-.405.405-.46 1.044-.127 1.512l.793 1.114c-.218.417-.392.85-.527 1.297L.98 7.541C.413 7.636 0 8.124 0 8.699v1.67c0 .575.413 1.063.98 1.158l1.348.23c.14.444.322.877.544 1.29l-.782 1.086c-.333.468-.281 1.107.127 1.511L3.4 16.826c.223.222.516.345.83.345.245 0 .48-.075.678-.218l1.114-.793c.4.21.821.38 1.254.516l.222 1.332c.095.568.583.98 1.158.98h1.674c.575 0 1.063-.412 1.158-.98l.226-1.332c.449-.14.88-.318 1.293-.536l1.1.786c.198.142.436.218.681.218.314 0 .607-.123.83-.345l1.182-1.182c.404-.405.46-1.044.126-1.512l-.785-1.102c.218-.417.4-.85.536-1.294l1.332-.222c.568-.095.98-.583.98-1.158V8.66c.008-.575-.404-1.063-.972-1.158zm-.09 2.83c0 .05-.037.094-.088.102l-1.666.278c-.21.036-.377.19-.429.393-.15.583-.38 1.142-.69 1.662-.107.182-.099.408.024.583l.98 1.38c.028.04.024.1-.012.135l-1.182 1.182c-.028.028-.056.032-.076.032-.023 0-.043-.008-.059-.02l-1.376-.98c-.171-.123-.401-.13-.584-.024-.52.31-1.078.54-1.662.69-.206.052-.36.223-.392.429l-.282 1.666c-.008.051-.051.087-.103.087h-1.67c-.051 0-.095-.036-.103-.087l-.278-1.666c-.035-.21-.19-.377-.392-.429-.568-.146-1.115-.372-1.627-.666-.083-.048-.178-.071-.27-.071-.107 0-.218.031-.309.099l-1.388.988c-.02.011-.04.02-.06.02-.016 0-.047-.005-.075-.032l-1.182-1.182c-.036-.036-.04-.092-.012-.135l.976-1.369c.123-.174.13-.404.024-.587-.31-.515-.548-1.075-.698-1.658-.056-.202-.223-.357-.429-.393l-1.678-.285c-.051-.008-.087-.052-.087-.103v-1.67c0-.052.036-.095.087-.103l1.654-.278c.21-.036.381-.19.433-.397.146-.583.373-1.146.678-1.666.107-.182.095-.408-.028-.579l-.987-1.388c-.028-.04-.024-.1.011-.135l1.182-1.182c.028-.028.056-.032.076-.032.024 0 .043.008.06.02l1.368.976c.174.123.404.13.587.024.516-.31 1.075-.548 1.658-.698.202-.056.357-.223.393-.429l.285-1.678c.008-.051.052-.087.103-.087h1.67c.052 0 .095.036.103.087l.278 1.654c.036.21.19.381.397.433.599.15 1.17.385 1.701.698.183.107.409.099.583-.024l1.369-.984c.02-.012.04-.02.06-.02.015 0 .047.004.075.032l1.182 1.182c.036.036.04.092.012.135l-.98 1.377c-.123.17-.13.4-.024.583.31.52.54 1.079.69 1.662.052.206.223.36.429.392l1.666.282c.051.008.087.052.087.103v1.67h-.004z" transform="translate(-14 -873) translate(1 24) translate(13 849)"/>
                    <path d="M9.496 5.395c-2.26 0-4.097 1.836-4.097 4.097s1.836 4.098 4.097 4.098 4.098-1.837 4.098-4.098c0-2.26-1.837-4.097-4.098-4.097zm0 7.124c-1.67 0-3.026-1.357-3.026-3.027 0-1.67 1.356-3.026 3.026-3.026 1.67 0 3.027 1.356 3.027 3.026 0 1.67-1.357 3.027-3.027 3.027z" transform="translate(-14 -873) translate(1 24) translate(13 849)"/>
                </g>
            </g>
        </g>
    </g>
</svg>
