<svg width="64" height="64" viewBox="0 0 64 64" fill="none" xmlns="http://www.w3.org/2000/svg">
<path d="M29 46H31V54H33V45C33 44.45 32.55 44 32 44H29V46Z" fill="#7C9CB4"/>
<path d="M33 12H31V14H33V12Z" fill="#7C9CB4"/>
<path d="M27 12H29V14H27V12Z" fill="#7C9CB4"/>
<path d="M37 12H35V14H37V12Z" fill="#7C9CB4"/>
<path fill-rule="evenodd" clip-rule="evenodd" d="M26.42 23.22C26.3156 23.0605 26.2099 22.8989 26.1032 22.735C23.8361 21.8103 16 17.8284 16 7V4C16 1.79 17.79 0 20 0H23C24.65 0 26 1.35 26 3H24C24 2.45 23.55 2 23 2H20C18.9 2 18 2.9 18 4V7C18 13.8935 21.449 17.6014 24.1443 19.4457C22.951 17.1349 22 14.3954 22 11C22 10.73 22.11 10.48 22.29 10.29L23.59 9L22.3 7.71C22.11 7.52 22 7.27 22 7V5C22 4.45 22.45 4 23 4H41C41.55 4 42 4.45 42 5V7C42 7.27 41.89 7.52 41.71 7.71L40.41 9L41.7 10.29C41.89 10.48 42 10.73 42 11C42 14.5344 40.9696 17.358 39.7079 19.7273C42.4501 17.991 46.28 14.2643 46.28 7V4C46.28 2.9 45.38 2 44.28 2H41.28C40.73 2 40.28 2.45 40.28 3H38.28C38.28 1.35 39.63 0 41.28 0H44.28C46.49 0 48.28 1.79 48.28 4V7C48.28 18.5488 39.3665 22.3098 37.8022 22.8801C37.7276 22.9945 37.6535 23.1078 37.58 23.22C36.19 25.34 35 27.16 35 29V30.59L38.41 34H41C41.55 34 42 34.45 42 35V38H43C43.55 38 44 38.45 44 39V62H60V52H46V50H61C61.55 50 62 50.45 62 51V62H64V64H0V62H2V45C2 44.45 2.45 44 3 44H18V46H4V62H20V39C20 38.45 20.45 38 21 38H22V35C22 34.45 22.45 34 23 34H25.5992L29 30.59V29C29 27.16 27.81 25.34 26.42 23.22ZM22 60V62H42V60H22ZM22 58V40H42V58H22ZM35.58 34L33.29 31.71C33.11 31.52 33 31.27 33 31V29C33 26.57 34.41 24.41 35.9 22.13C37.77 19.27 39.87 16.05 39.99 11.41L38.58 10H25.42L24.01 11.41C24.1294 16.0249 26.2172 19.2351 28.0698 22.0835L28.1 22.13C29.59 24.41 31 26.57 31 29V31C31 31.27 30.89 31.52 30.71 31.71L28.42 34H35.58ZM25.41 8H38.59L40 6.59V6H24V6.59L25.41 8ZM24 38H40V36H24V38Z" fill="#7C9CB4"/>
</svg>
