<svg width="58" height="64" viewBox="0 0 58 64" fill="none" xmlns="http://www.w3.org/2000/svg">
<path d="M58 64H56V49C56 44.37 52.91 41.36 45.68 38.95L45.55 38.9L37.55 34.9C36.99 34.64 34 33.19 34 31V27H36V31C36 31.65 37.42 32.65 38.41 33.09L46.39 37.08C51.81 38.89 58 41.89 58 49V64Z" fill="#7C9CB4"/>
<path d="M2 64H0V49C0 41.89 6.19 38.89 11.62 37.07L19.56 33.1C20.73 32.57 22 31.59 22 31V27H24V31C24 33.19 21.01 34.64 20.41 34.91L12.32 38.95C5.09 41.36 2 44.37 2 49V64Z" fill="#7C9CB4"/>
<path d="M12 53H10V64H12V53Z" fill="#7C9CB4"/>
<path d="M48 53H46V64H48V53Z" fill="#7C9CB4"/>
<path d="M29 31C22.93 31 19 25.5 19 17V14C19 12.14 20.28 10.57 22 10.13V7H25.33L29.33 10H35C37.21 10 39 11.79 39 14V17C39 25.5 35.07 31 29 31ZM23 12C21.9 12 21 12.9 21 14V17C21 22.8 23.1 29 29 29C34.9 29 37 22.8 37 17V14C37 12.9 36.1 12 35 12H28.67L24.67 9H24V12H23Z" fill="#7C9CB4"/>
<path d="M29 45.12L28.55 44.9C28.2 44.72 20 40.54 20 34H22C22 38.55 27.39 41.95 29 42.86C30.61 41.94 36 38.53 36 34H38C38 40.54 29.8 44.72 29.45 44.89L29 45.12Z" fill="#7C9CB4"/>
<path d="M38 22V20C39.1 20 40 19.1 40 18V16C40 15.45 39.55 15 39 15H38V13H39C40.65 13 42 14.35 42 16V18C42 20.21 40.21 22 38 22Z" fill="#7C9CB4"/>
<path d="M20 22C17.79 22 16 20.21 16 18V16C16 14.35 17.35 13 19 13H20V15H19C18.45 15 18 15.45 18 16V18C18 19.1 18.9 20 20 20V22Z" fill="#7C9CB4"/>
<path d="M30 49H28V51H30V49Z" fill="#7C9CB4"/>
<path d="M30 53H28V55H30V53Z" fill="#7C9CB4"/>
<path d="M44 53H32V55H44V53Z" fill="#7C9CB4"/>
<path d="M6 64H4V55H1V53H6V64Z" fill="#7C9CB4"/>
<path d="M36.5587 21.1009L30.5573 24.1023L31.4519 25.8911L37.4533 22.8897L36.5587 21.1009Z" fill="#7C9CB4"/>
<path d="M41 14H39V10C39 5.59 35.41 2 31 2H27C22.59 2 19 5.59 19 10H17C17 4.49 21.49 0 27 0H31C36.51 0 41 4.49 41 10V14Z" fill="#7C9CB4"/>
</svg>
