<svg xmlns="http://www.w3.org/2000/svg" width="21" height="21" viewBox="0 0 21 21">
    <g fill="none" fill-rule="evenodd">
        <g fill="#FFF" fill-rule="nonzero" stroke="#FFF" stroke-width=".2">
            <g>
                <g>
                    <path d="M9.5 0C4.262 0 0 4.262 0 9.5S4.262 19 9.5 19 19 14.738 19 9.5 14.738 0 9.5 0zm8.659 7.422h-4.394c-.465-.95-1.237-1.722-2.187-2.187V.841c3.244.779 5.802 3.337 6.581 6.58zm.247 2.078c0 .506-.044 1.001-.126 1.484H14.01c.154-.467.241-.965.241-1.484s-.087-1.017-.241-1.484h4.271c.082.483.126.978.126 1.484zM9.5 13.656c-2.292 0-4.156-1.864-4.156-4.156S7.208 5.344 9.5 5.344s4.156 1.864 4.156 4.156-1.864 4.156-4.156 4.156zm-4.509-2.672H.72C.638 10.501.594 10.006.594 9.5S.638 8.499.72 8.016H4.99c-.154.467-.241.965-.241 1.484s.087 1.017.241 1.484zM10.984.72V4.99c-.467-.155-.965-.241-1.484-.241s-1.017.086-1.484.241V.72C8.499.638 8.994.594 9.5.594s1.001.044 1.484.126zM7.422.84v4.394C6.472 5.7 5.7 6.472 5.235 7.422H.841C1.62 4.178 4.178 1.62 7.421.84zM.84 11.578h4.394c.465.95 1.237 1.722 2.187 2.187v4.394C4.178 17.38 1.62 14.822.84 11.579zm7.175 6.702V14.01c.467.155.965.241 1.484.241s1.017-.086 1.484-.241v4.271c-.483.082-.978.126-1.484.126s-1.001-.044-1.484-.126zm3.562-.121v-4.394c.95-.465 1.722-1.237 2.187-2.187h4.394c-.779 3.244-3.337 5.802-6.58 6.581z" transform="translate(-13 -909) translate(1 24) rotate(45 -1053.45 468.081)"/>
                </g>
            </g>
        </g>
    </g>
</svg>
