<svg id="SvgjsSvg1000" xmlns="http://www.w3.org/2000/svg" version="1.1" width="296" height="141" viewBox="0 0 296 141"><title>Combined Shape</title><desc>Created with Avocode.</desc><defs id="SvgjsDefs1001"><filter id="SvgjsFilter1008" width="200%" height="200%" x="-50%" y="-50%"><feMorphology id="SvgjsFeMorphology1009" operator="dilate" radius="0" result="SvgjsFeMorphology1009Out" in="SourceGraphic"></feMorphology><feOffset id="SvgjsFeOffset1010" dx="0" dy="8" result="SvgjsFeOffset1010Out" in="SvgjsFeMorphology1009Out"></feOffset><feGaussianBlur id="SvgjsFeGaussianBlur1011" stdDeviation="7.5 " result="SvgjsFeGaussianBlur1011Out" in="SvgjsFeOffset1010Out"></feGaussianBlur><feComposite id="SvgjsFeComposite1012" in="SvgjsFeGaussianBlur1011Out" in2="SourceAlpha" operator="out" result="SvgjsFeComposite1012Out"></feComposite></filter><clipPath id="SvgjsClipPath1016"><path id="SvgjsPath1015" d="M1115 313C1115 317.41828 1118.58172 321 1123 321C1123.33866 321 1123.67241 320.97896 1124 320.93811V414.0619C1123.67241 414.02105 1123.33866 414.00001 1123 414.00001C1118.58172 414.00001 1115 417.58173 1115 422.00001C1115 422.33867 1115.02104 422.67242 1115.06189 423.00001H865.9381C865.9789499999999 422.67242 865.9999899999999 422.33867 865.9999899999999 422.00001C865.9999899999999 417.92039 862.9463 414.554 858.9999899999999 414.0619V321.93811C862.9463 321.44601 865.9999899999999 318.07962 865.9999899999999 314C865.9999899999999 313.66134 865.9789499999999 313.32759 865.9381 313Z " fill="#ffffff"></path></clipPath></defs><path id="SvgjsPath1007" d="M1115 313C1115 317.41828 1118.58172 321 1123 321C1123.33866 321 1123.67241 320.97896 1124 320.93811V414.0619C1123.67241 414.02105 1123.33866 414.00001 1123 414.00001C1118.58172 414.00001 1115 417.58173 1115 422.00001C1115 422.33867 1115.02104 422.67242 1115.06189 423.00001H865.9381C865.9789499999999 422.67242 865.9999899999999 422.33867 865.9999899999999 422.00001C865.9999899999999 417.92039 862.9463 414.554 858.9999899999999 414.0619V321.93811C862.9463 321.44601 865.9999899999999 318.07962 865.9999899999999 314C865.9999899999999 313.66134 865.9789499999999 313.32759 865.9381 313Z " fill="#000000" fill-opacity="0.1" filter="url(#SvgjsFilter1008)" transform="matrix(1,0,0,1,-843.5,-305.5)"></path><path id="SvgjsPath1013" d="M1115 313C1115 317.41828 1118.58172 321 1123 321C1123.33866 321 1123.67241 320.97896 1124 320.93811V414.0619C1123.67241 414.02105 1123.33866 414.00001 1123 414.00001C1118.58172 414.00001 1115 417.58173 1115 422.00001C1115 422.33867 1115.02104 422.67242 1115.06189 423.00001H865.9381C865.9789499999999 422.67242 865.9999899999999 422.33867 865.9999899999999 422.00001C865.9999899999999 417.92039 862.9463 414.554 858.9999899999999 414.0619V321.93811C862.9463 321.44601 865.9999899999999 318.07962 865.9999899999999 314C865.9999899999999 313.66134 865.9789499999999 313.32759 865.9381 313Z " fill="#ffffff" fill-opacity="1" transform="matrix(1,0,0,1,-843.5,-305.5)"></path><path id="SvgjsPath1014" d="M1115 313C1115 317.41828 1118.58172 321 1123 321C1123.33866 321 1123.67241 320.97896 1124 320.93811V414.0619C1123.67241 414.02105 1123.33866 414.00001 1123 414.00001C1118.58172 414.00001 1115 417.58173 1115 422.00001C1115 422.33867 1115.02104 422.67242 1115.06189 423.00001H865.9381C865.9789499999999 422.67242 865.9999899999999 422.33867 865.9999899999999 422.00001C865.9999899999999 417.92039 862.9463 414.554 858.9999899999999 414.0619V321.93811C862.9463 321.44601 865.9999899999999 318.07962 865.9999899999999 314C865.9999899999999 313.66134 865.9789499999999 313.32759 865.9381 313Z " fill-opacity="0" fill="#ffffff" stroke-dashoffset="0" stroke-linejoin="miter" stroke-linecap="butt" stroke-opacity="1" stroke="#c6c6c6" stroke-miterlimit="50" stroke-width="1" clip-path="url(&quot;#SvgjsClipPath1016&quot;)" transform="matrix(1,0,0,1,-843.5,-305.5)"></path><path id="SvgjsPath1017" d="M968 313V423H865.93811C865.97896 422.67241 866 422.33866 866 422C866 417.58172 862.41828 414 858 414V322C862.41828 322 866 318.41828 866 314C866 313.66134 865.97896 313.32759 865.93811 313Z " fill="#ffa31d" fill-opacity="1" transform="matrix(1,0,0,1,-843.5,-305.5)"></path></svg>
