<svg width="64" height="52" viewBox="0 0 64 52" fill="none" xmlns="http://www.w3.org/2000/svg">
<path d="M26 0H28V10H26V0Z" fill="#7C9CB4"/>
<path fill-rule="evenodd" clip-rule="evenodd" d="M44 33C44 31.4921 43.8234 30.005 43.4784 28.5639L63.32 21.95C63.72 21.81 64 21.43 64 21V15C64 14.45 63.55 14 63 14H28V16H62V20.28L42.9093 26.6436C42.3864 25.1717 41.6801 23.7638 40.8 22.45L39.14 23.56C41.01 26.35 42 29.62 42 33C42 42.37 34.37 50 25 50C15.63 50 8 42.37 8 33C8 23.96 15.09 16.55 24 16.03V18.033C16.1943 18.5494 10 25.066 10 33C10 41.27 16.73 48 25 48C33.27 48 40 41.27 40 33H38C38 40.17 32.17 46 25 46C17.83 46 12 40.17 12 33C12 25.83 17.83 20 25 20H30V18H26V14H25C15.64 14 7.84343 20.7963 6.28391 29.7152C5.63645 29.2643 4.84923 29 4 29C1.79 29 0 30.79 0 33C0 35.21 1.79 37 4 37C4.84923 37 5.63645 36.7357 6.28391 36.2848C7.84343 45.2037 15.64 52 25 52C35.48 52 44 43.48 44 33ZM4 31C5.1 31 6 31.9 6 33C6 34.1 5.1 35 4 35C2.9 35 2 34.1 2 33C2 31.9 2.9 31 4 31Z" fill="#7C9CB4"/>
<path d="M13.8303 4.44183L12.1661 5.55123L16.1655 11.5507L17.8297 10.4413L13.8303 4.44183Z" fill="#7C9CB4"/>
<path d="M36.1643 10.45L40.1637 4.45129L41.8277 5.56069L37.8283 11.5594L36.1643 10.45Z" fill="#7C9CB4"/>
</svg>
