<svg xmlns="http://www.w3.org/2000/svg" width="20" height="20" viewBox="0 0 20 20">
    <path fill="#0D4774" fill-opacity=".367" d="M18.006 10.435h1.56c.24 0 .434-.195.434-.435s-.195-.435-.435-.435h-1.558L19.873 7.7c.17-.17.17-.445 0-.615-.17-.17-.445-.17-.615 0l-2.481 2.481H11.05l3.913-3.913h3.733c.24 0 .435-.195.435-.435s-.195-.434-.435-.434h-2.864l1.432-1.432c.17-.17.17-.445 0-.615-.17-.17-.445-.17-.615 0l-1.432 1.432V1.304c0-.24-.194-.434-.434-.434s-.435.194-.435.434v3.733l-3.913 3.914V3.224L12.917.742c.17-.17.17-.445 0-.614-.17-.17-.445-.17-.615 0l-1.867 1.866V.434C10.435.195 10.24 0 10 0s-.435.195-.435.435v1.559L7.7.128c-.17-.17-.445-.17-.615 0-.17.17-.17.444 0 .614l2.481 2.482V8.95L5.652 5.037V1.304c0-.24-.195-.434-.435-.434s-.434.194-.434.434v2.864L3.35 2.736c-.17-.17-.445-.17-.615 0-.17.17-.17.445 0 .615l1.432 1.432H1.304c-.24 0-.434.194-.434.434s.194.435.434.435h3.734L8.95 9.565H3.224L.742 7.084c-.17-.17-.444-.17-.614 0-.17.17-.17.445 0 .615l1.866 1.866H.434C.195 9.565 0 9.76 0 10s.195.435.435.435h1.559L.128 12.3c-.17.17-.17.445 0 .615.084.085.196.128.307.128.111 0 .223-.043.307-.128l2.482-2.481h5.727l-3.913 3.913H1.304c-.24 0-.434.195-.434.435s.194.434.434.434h2.864L2.736 16.65c-.17.17-.17.445 0 .615.085.085.196.127.308.127.11 0 .222-.042.307-.127l1.432-1.432v2.864c0 .24.194.435.434.435s.435-.195.435-.435v-3.733l3.913-3.913v5.727l-2.481 2.48c-.17.17-.17.446 0 .616.17.17.445.17.615 0l1.866-1.866v1.558c0 .24.195.435.435.435s.435-.195.435-.435v-1.559l1.866 1.867c.085.084.196.127.308.127.111 0 .222-.043.307-.127.17-.17.17-.445 0-.615l-2.481-2.482V11.05l3.913 3.913v3.733c0 .24.195.435.435.435s.434-.195.434-.435v-2.864l1.432 1.432c.085.085.196.127.308.127.11 0 .222-.042.307-.127.17-.17.17-.445 0-.615l-1.432-1.432h2.864c.24 0 .435-.194.435-.434s-.195-.435-.435-.435h-3.733l-3.913-3.913h5.727l2.481 2.482c.085.084.196.127.307.127.112 0 .223-.043.308-.128.17-.17.17-.445 0-.615l-1.867-1.866z"/>
</svg>
