<svg xmlns="http://www.w3.org/2000/svg" width="18" height="22" viewBox="0 0 18 22">
    <path fill="#0D4774" fill-opacity=".367" stroke="#0D4774" stroke-opacity=".367" stroke-width=".2" d="M5.896 7.502c.305.105.55.321.691.61.141.29.162.617.057.921-.105.304-.322.55-.61.69-.776.38-1.431.965-1.896 1.694-.477.747-.729 1.613-.729 2.505 0 2.574 2.095 4.669 4.669 4.669 1.484 0 2.893-.717 3.771-1.916.19-.26.47-.43.788-.48.318-.049.636.029.896.219s.43.47.479.787c.05.318-.028.636-.218.896-.644.88-1.494 1.61-2.46 2.11-.998.519-2.124.793-3.256.793-1.99 0-3.901-.848-5.243-2.327-.109-.12-.1-.306.02-.415.12-.109.306-.1.415.02 1.23 1.357 2.983 2.135 4.808 2.135 1.038 0 2.07-.251 2.986-.726.886-.46 1.666-1.13 2.256-1.936.097-.134.137-.297.112-.46-.026-.163-.113-.306-.246-.404-.133-.097-.296-.137-.46-.111-.162.025-.306.112-.403.245-.988 1.35-2.575 2.157-4.245 2.157-2.898 0-5.256-2.358-5.256-5.256 0-1.004.284-1.979.82-2.82.524-.821 1.261-1.48 2.134-1.906.226-.11.366-.355.345-.606-.021-.25-.196-.466-.435-.54-.15-.045-.312-.032-.452.036-1.077.526-1.987 1.339-2.633 2.351-.663 1.04-1.014 2.246-1.014 3.485 0 1.23.347 2.427 1.003 3.463.087.137.046.318-.091.405-.137.087-.318.046-.405-.091C1.378 16.569 1 15.263 1 13.922c0-1.351.383-2.666 1.106-3.8.704-1.104 1.696-1.99 2.87-2.563.29-.142.616-.162.92-.057zm1.948 3.791c.162 0 .294.132.294.294v1.194c0 .66.537 1.198 1.198 1.198h4.024c.746 0 1.42.47 1.676 1.17l1.087 2.895c.118.323.475.488.796.37.155-.056.279-.17.348-.32.07-.15.077-.319.02-.474l-.524-1.404c-.056-.152.02-.321.173-.378.152-.057.32.02.377.173l.525 1.405c.111.304.098.632-.038.924-.136.293-.377.515-.68.626-.135.05-.275.074-.415.074-.173 0-.346-.037-.507-.112-.292-.136-.515-.377-.626-.68l-1.087-2.894c-.173-.472-.625-.788-1.125-.788H9.336c-.985 0-1.785-.801-1.785-1.785v-1.194c0-.162.13-.294.293-.294zm1.492-5.838c.984 0 1.785.8 1.785 1.785v.308h3.264c.665 0 1.206.541 1.206 1.206 0 .666-.54 1.207-1.206 1.207H11.12v2.192h3.514c.746 0 1.42.47 1.676 1.17l.59 1.584c.057.152-.02.321-.172.378-.034.012-.068.018-.102.018-.12 0-.231-.072-.275-.19l-.592-1.586c-.172-.471-.624-.787-1.125-.787h-3.808c-.162 0-.293-.131-.293-.294V9.667c0-.162.131-.293.293-.293h3.558c.341 0 .62-.278.62-.62 0-.341-.279-.619-.62-.619h-3.558c-.162 0-.293-.131-.293-.293V7.24c0-.66-.538-1.198-1.198-1.198-.661 0-1.198.537-1.198 1.198v3.173c0 .162-.132.293-.294.293-.162 0-.294-.131-.294-.293V7.24c0-.984.801-1.785 1.786-1.785zm0-4.455c1.034 0 1.875.841 1.875 1.876 0 1.034-.841 1.875-1.875 1.875-1.035 0-1.876-.841-1.876-1.876C7.46 1.841 8.302 1 9.336 1zm0 .587c-.71 0-1.289.578-1.289 1.288 0 .71.578 1.289 1.289 1.289.71 0 1.288-.578 1.288-1.289 0-.71-.578-1.288-1.288-1.288z"/>
</svg>
