<svg xmlns="http://www.w3.org/2000/svg" width="20" height="20" viewBox="0 0 20 20">
    <path fill="#0D4774" fill-opacity=".367" d="M9.723 2.127C10.127.603 11.696-.308 13.22.096c.519.138.979.411 1.343.797.543-.157 1.12-.164 1.68-.015.818.217 1.501.739 1.926 1.47.424.73.538 1.583.322 2.4l-.06.213c1.179.597 1.823 1.958 1.472 3.284-.535 2.014-1.637 4.067-3.189 5.936-.137.166-.384.189-.55.051-.166-.138-.188-.384-.05-.55 1.479-1.783 2.528-3.732 3.033-5.637.294-1.108-.368-2.249-1.476-2.542-1.108-.294-2.249.368-2.542 1.476-.45 1.697-1.555 3.487-3.109 5.042-1.555 1.554-3.345 2.658-5.042 3.108-.537.143-.986.486-1.265.966-.279.48-.354 1.04-.211 1.577.241.91 1.067 1.546 2.007 1.546.18 0 .36-.023.535-.07 1.905-.505 3.854-1.554 5.637-3.034.166-.138.412-.115.55.051.138.166.115.413-.051.55-1.87 1.552-3.922 2.654-5.936 3.188-.24.064-.487.097-.735.097-1.09 0-2.07-.622-2.549-1.567l-.213.059c-.266.07-.54.106-.813.106-1.432 0-2.69-.968-3.057-2.353-.151-.572-.136-1.149.017-1.68-.387-.364-.661-.824-.8-1.344-.403-1.525.508-3.094 2.032-3.498C5.381 8.86 8.86 5.38 9.723 2.127zm-5.66 10.775c-.248.087-.494.163-.738.228-1.27.337-2.029 1.644-1.692 2.914.277 1.044 1.223 1.773 2.302 1.773.205 0 .411-.027.612-.08l.16-.044c-.136-.683-.021-1.383.332-1.99.152-.263.343-.496.563-.694-.172.03-.348.047-.528.047-.725 0-1.315-.59-1.315-1.315 0-.319.114-.612.304-.84zM15.39 15c.102 0 .203.042.276.114.072.073.114.173.114.277 0 .102-.042.203-.114.276-.073.072-.174.114-.276.114-.103 0-.204-.042-.277-.114-.073-.073-.114-.174-.114-.276 0-.104.041-.204.114-.277.073-.072.174-.114.277-.114zM14.28 7.104c-.56.624-1.37 1.019-2.272 1.019-.231 0-.419.187-.419.418 0 .814-.317 1.58-.892 2.155-.576.576-1.342.893-2.156.893-.111 0-.216.044-.295.123-.08.08-.123.184-.123.295 0 .902-.394 1.714-1.019 2.272 3.049-.965 6.21-4.126 7.176-7.175zm-.54-2.564c-.294 0-.533.24-.533.534 0 .662-.538 1.2-1.2 1.2-.605 0-1.174.236-1.603.664-.428.428-.664.997-.664 1.603 0 .32-.124.621-.35.848-.227.227-.529.351-.849.351-1.25 0-2.267 1.017-2.267 2.268 0 .66-.538 1.199-1.2 1.199-.294 0-.534.24-.534.534 0 .294.24.534.534.534 1.25 0 2.267-1.017 2.268-2.268 0-.32.124-.62.351-.847.227-.227.528-.352.848-.352.606 0 1.175-.236 1.603-.664.428-.428.664-.998.664-1.603 0-.661.538-1.2 1.2-1.2 1.25 0 2.267-1.017 2.267-2.267 0-.294-.24-.534-.534-.534zM13.02.851c-1.107-.294-2.248.369-2.542 1.476-.45 1.697-1.554 3.488-3.109 5.042-1.554 1.555-3.345 2.659-5.042 3.109-1.107.294-1.77 1.434-1.476 2.542.075.284.207.543.386.767.41-.672 1.069-1.195 1.888-1.412.792-.21 1.612-.553 2.439-1.02.3-1.368 1.52-2.396 2.977-2.396.112 0 .217-.043.296-.122.079-.08.122-.184.122-.296 0-.814.317-1.58.893-2.156.419-.418.938-.7 1.503-.822.467-.827.81-1.646 1.02-2.438.21-.795.711-1.462 1.41-1.889-.223-.179-.481-.31-.764-.385zm3.024.782c-.615-.163-1.257-.077-1.807.243s-.944.834-1.107 1.45c-.064.243-.141.489-.228.736.228-.189.52-.303.839-.303.725 0 1.315.59 1.315 1.315 0 .181-.017.359-.047.531.656-.731 1.67-1.1 2.684-.899l.044-.159c.163-.615.077-1.257-.243-1.807s-.834-.944-1.45-1.107z"/>
</svg>
