<svg xmlns="http://www.w3.org/2000/svg" width="15" height="20" viewBox="0 0 15 20">
    <path fill="#0D4774" fill-opacity=".367" d="M7.564.115c.285.254 6.96 6.283 6.96 12.594-.004 4.01-3.253 7.258-7.262 7.263C3.253 19.967.005 16.718 0 12.709 0 6.398 6.676.37 6.96.115c.172-.153.432-.153.604 0zm-.302.962C5.962 2.332.908 7.54.908 12.709c0 3.51 2.845 6.355 6.354 6.355 3.51 0 6.355-2.845 6.355-6.355 0-5.169-5.053-10.377-6.355-11.632zM2.27 12.255c.251 0 .454.204.454.454.004 1.621.868 3.118 2.27 3.932.178.103.264.312.211.51-.053.2-.233.337-.439.337-.08 0-.158-.021-.227-.061-1.682-.977-2.719-2.773-2.722-4.718 0-.25.203-.454.453-.454z"/>
</svg>
