<svg xmlns="http://www.w3.org/2000/svg" width="20" height="20" viewBox="0 0 20 20">
    <path fill="#0D4774" fill-opacity=".367" d="M10 16.81c.324 0 .586.263.586.587v2.017c0 .324-.262.586-.586.586-.324 0-.586-.262-.586-.586v-2.017c0-.324.262-.586.586-.586zm2.599-.515c.3-.123.642.02.765.318l.77 1.865c.123.3-.019.642-.318.765-.073.03-.149.045-.223.045-.23 0-.449-.137-.542-.363l-.77-1.864c-.123-.3.019-.642.318-.766zm-5.979.31c.124-.298.467-.44.766-.316.299.125.44.467.316.766l-.774 1.863c-.093.225-.311.361-.541.361-.075 0-.151-.014-.225-.045-.298-.124-.44-.467-.316-.766zm8.196-1.789c.229-.229.6-.229.829 0l1.426 1.426c.229.23.229.6 0 .83-.114.113-.264.17-.414.17-.15 0-.3-.056-.415-.17l-1.426-1.427c-.229-.23-.229-.6 0-.829zm-10.46 0c.228-.229.6-.229.828 0 .229.229.229.6 0 .829L3.758 17.07c-.115.115-.265.172-.415.172-.15 0-.3-.058-.414-.172-.229-.229-.229-.6 0-.829zM10 4.57c2.994 0 5.43 2.436 5.43 5.43 0 2.994-2.436 5.43-5.43 5.43-2.994 0-5.43-2.436-5.43-5.43 0-2.994 2.436-5.43 5.43-5.43zm0 1.172c-2.348 0-4.258 1.91-4.258 4.258s1.91 4.258 4.258 4.258 4.258-1.91 4.258-4.258S12.348 5.742 10 5.742zm6.29 6.872c.124-.3.466-.44.765-.316l1.863.774c.299.124.44.467.316.766-.093.225-.311.36-.541.36-.075 0-.151-.014-.225-.044l-1.862-.774c-.3-.124-.44-.467-.317-.766zM2.94 12.28c.299-.124.641.019.765.318.123.3-.02.642-.318.765l-1.865.77c-.073.03-.149.045-.223.045-.23 0-.449-.137-.542-.363-.124-.3.019-.642.318-.765zm16.474-2.867c.324 0 .586.262.586.586 0 .324-.262.586-.586.586h-2.017c-.324 0-.586-.262-.586-.586 0-.324.262-.586.586-.586zm-16.81 0c.323 0 .585.262.585.586 0 .324-.262.586-.586.586H.586C.262 10.586 0 10.324 0 10c0-.324.262-.586.586-.586zm15.874-3.548c.3-.123.642.019.765.318.124.3-.019.642-.318.765l-1.864.77c-.074.03-.15.044-.224.044-.23 0-.448-.136-.542-.362-.123-.3.02-.642.318-.765zM.766 6.162c.124-.298.467-.44.766-.316l1.862.774c.3.124.44.467.317.766-.094.226-.312.361-.542.361-.075 0-.15-.014-.224-.045l-1.863-.774c-.299-.124-.44-.467-.316-.766zM16.242 2.93c.23-.229.6-.229.83 0 .228.229.228.6 0 .829l-1.427 1.426c-.115.114-.265.172-.415.172-.15 0-.3-.058-.414-.172-.229-.229-.229-.6 0-.829zm-13.313 0c.229-.229.6-.229.829 0l1.426 1.426c.229.23.229.6 0 .829-.114.114-.264.172-.414.172-.15 0-.3-.058-.415-.172L2.93 3.758c-.229-.23-.229-.6 0-.83zm10.143-1.847c.124-.299.467-.44.766-.316.298.124.44.467.316.766l-.774 1.862c-.094.226-.312.362-.542.362-.075 0-.15-.015-.224-.045-.299-.125-.44-.467-.316-.766zM6.184.757c.3-.124.642.019.765.318l.77 1.864c.123.3-.019.642-.318.766-.073.03-.149.044-.223.044-.23 0-.449-.136-.542-.362l-.77-1.865c-.124-.3.019-.642.318-.765zM10 0c.324 0 .586.262.586.586v2.017c0 .324-.262.586-.586.586-.324 0-.586-.262-.586-.586V.586C9.414.262 9.676 0 10 0z"/>
</svg>
