<svg xmlns="http://www.w3.org/2000/svg" width="17" height="20" viewBox="0 0 17 20">
    <path fill="#0D4774" fill-opacity=".367" d="M9.763 18.42c.425 0 .776.333.776.776 0 .425-.351.776-.776.776H6.88c-.425 0-.776-.35-.776-.776 0-.425.35-.776.776-.776zm0 .61H6.88c-.093 0-.148.055-.148.148 0 .092.074.148.148.148h2.882c.074 0 .148-.056.148-.148 0-.093-.074-.148-.148-.148zm.61-2.476c.424 0 .775.351.775.776 0 .425-.35.758-.794.776H6.271c-.425 0-.776-.35-.776-.776 0-.425.35-.776.776-.776zm-.019.61H6.271c-.093 0-.148.055-.148.148 0 .092.074.148.148.148h4.101c.074 0 .13-.056.13-.148 0-.093-.074-.148-.148-.148zM8.34 4.304c2.827 0 5.136 2.31 5.136 5.137 0 1.441-.628 2.827-1.7 3.806l-.055.056c-.813.812-.72 2.55-.72 2.568 0 .092-.037.184-.093.24-.055.055-.13.092-.221.092H5.975c-.074 0-.166-.037-.221-.092-.074-.074-.093-.148-.093-.24.019-.019.093-1.756-.72-2.568-1.09-.961-1.737-2.384-1.737-3.862 0-2.827 2.31-5.136 5.136-5.136zm-.018.61c-2.495 0-4.508 2.014-4.508 4.509 0 1.311.572 2.55 1.552 3.4.775.794.905 2.124.923 2.734h4.083c.019-.61.148-1.885.869-2.66 0-.02.037-.056.055-.075.98-.85 1.534-2.088 1.534-3.4 0-2.494-2.014-4.507-4.508-4.507zm0 .703c2.217 0 4.009 1.792 3.99 3.99 0 .167-.147.314-.314.314-.166 0-.314-.147-.314-.314 0-1.847-1.496-3.362-3.362-3.362-.167 0-.314-.148-.314-.314 0-.167.147-.314.314-.314zM.044 4.933c.074-.148.278-.203.425-.13L2.336 5.82c.147.074.203.277.129.425-.056.11-.166.166-.277.166-.056 0-.093-.018-.148-.037L.174 5.358c-.166-.074-.222-.277-.13-.425zm16.148-.13c.148-.073.351-.018.425.13.074.148.019.351-.13.425l-1.884 1.016c-.037.019-.092.037-.147.037-.111 0-.222-.055-.278-.166-.073-.148-.018-.351.13-.425zm-3.067-3.14c.093-.13.277-.185.425-.074.148.092.185.296.074.425l-1.182 1.774c-.056.092-.148.147-.259.147-.055 0-.11-.018-.166-.055-.148-.092-.185-.296-.074-.444zm-9.884-.185c.148-.092.35-.055.443.092L4.83 3.363c.092.147.055.35-.093.443-.055.037-.11.055-.166.055-.11 0-.203-.037-.277-.147L3.148 1.92c-.092-.147-.055-.35.093-.443zM8.32 0c.167 0 .315.148.315.314v2.143c0 .167-.13.314-.314.314-.167 0-.314-.147-.314-.314V.314c0-.166.147-.314.314-.314z"/>
</svg>
