<svg xmlns="http://www.w3.org/2000/svg" width="15" height="20" viewBox="0 0 15 20">
    <path fill="#0D4774" fill-opacity=".367" d="M7.119 0c2.8 0 5.078 2.278 5.078 5.078v2.843c1.255 1.282 2.03 3.037 2.03 4.97C14.228 16.81 11.04 20 7.12 20c-1.648 0-3.254-.577-4.523-1.624C1.345 17.344.477 15.904.154 14.323c-.044-.211.093-.418.304-.461.212-.043.418.093.461.304.599 2.928 3.206 5.053 6.2 5.053 3.489 0 6.328-2.839 6.328-6.328 0-3.49-2.84-6.329-6.328-6.329-2.993 0-5.6 2.125-6.2 5.052-.043.211-.25.348-.46.304-.212-.043-.348-.25-.305-.46.273-1.335.934-2.57 1.886-3.542V5.078C2.04 2.278 4.318 0 7.12 0zm-.056 9.85c.532-.015 1.036.182 1.417.553.382.37.592.868.592 1.4 0 .579-.253 1.12-.695 1.493v1.377c0 .694-.564 1.258-1.258 1.258-.695 0-1.26-.564-1.26-1.258v-1.377c-.461-.39-.72-.98-.691-1.586.047-1.015.88-1.831 1.895-1.86zm.056.781h-.034c-.61.017-1.109.507-1.137 1.115-.018.379.14.732.435.969l.076.072c.117.127.182.294.182.471v1.415c0 .263.214.477.478.477.263 0 .477-.214.477-.477v-1.415c0-.212.094-.41.258-.543.277-.224.436-.556.436-.912 0-.32-.126-.618-.354-.84-.221-.215-.51-.332-.817-.332zm5 1.869c.102 0 .203.042.276.114.072.073.114.174.114.277 0 .102-.042.203-.114.276-.073.072-.174.114-.276.114-.103 0-.204-.042-.277-.114-.072-.073-.114-.174-.114-.276 0-.103.042-.204.114-.277.073-.072.174-.114.277-.114zm-11.71 0c.216 0 .39.175.39.39 0 .216-.174.391-.39.391H.391c-.216 0-.391-.175-.391-.39 0-.216.175-.391.39-.391zm6.71-5c1.22 0 2.417.42 3.369 1.182.936.751 1.603 1.804 1.877 2.966.05.21-.08.42-.29.47-.03.007-.06.01-.09.01-.177 0-.338-.12-.38-.3C11.112 9.74 9.267 8.28 7.119 8.28c-.216 0-.391-.175-.391-.39 0-.216.175-.391.39-.391zm0-6.719c-2.37 0-4.297 1.928-4.297 4.297v2.149c.344-.262.71-.49 1.093-.683V5.078c0-1.766 1.437-3.203 3.204-3.203 1.766 0 3.203 1.437 3.203 3.203v1.467c.386.196.752.426 1.093.686V5.078c0-2.37-1.927-4.297-4.296-4.297zm0 1.875c-1.336 0-2.422 1.087-2.422 2.422v1.13c.771-.28 1.591-.427 2.422-.427.85 0 1.665.15 2.421.425V5.078c0-1.335-1.086-2.422-2.421-2.422z"/>
</svg>
