<svg xmlns="http://www.w3.org/2000/svg" width="19" height="19" viewBox="0 0 19 19">
    <path fill="#0D4774" fill-opacity=".367" d="M9.5 0c2.538 0 4.923.988 6.718 2.782C18.012 4.577 19 6.962 19 9.5c0 2.538-.988 4.923-2.782 6.718C14.423 18.012 12.038 19 9.5 19c-2.538 0-4.923-.988-6.718-2.782C.988 14.423 0 12.038 0 9.5c0-2.538.988-4.923 2.782-6.718C4.577.988 6.962 0 9.5 0zm0 1.113c-4.624 0-8.387 3.763-8.387 8.387 0 4.624 3.763 8.387 8.387 8.387 4.624 0 8.387-3.763 8.387-8.387 0-4.624-3.763-8.387-8.387-8.387zm0 2.464c.307 0 .557.25.557.557v1.232h1.232c.307 0 .556.25.556.557 0 .307-.249.556-.556.556H8.904c-.68 0-1.232.553-1.232 1.232 0 .68.552 1.232 1.232 1.232h1.192c1.293 0 2.346 1.052 2.346 2.346 0 1.293-1.053 2.345-2.346 2.345h-.04v1.232c0 .307-.249.557-.556.557-.307 0-.557-.25-.557-.557v-1.232H7.711c-.307 0-.556-.25-.556-.557 0-.307.249-.556.556-.556h2.385c.68 0 1.232-.553 1.232-1.232 0-.68-.552-1.232-1.232-1.232H8.904c-1.293 0-2.346-1.052-2.346-2.346 0-1.293 1.053-2.345 2.346-2.345h.04V4.134c0-.307.249-.557.556-.557z"/>
</svg>
