<svg xmlns="http://www.w3.org/2000/svg" width="22" height="22" viewBox="0 0 22 22">
    <path fill="#0D4774" fill-opacity=".367" stroke="#0D4774" stroke-opacity=".052" stroke-width=".2" d="M11 1c2.671 0 5.182 1.04 7.071 2.929C19.96 5.818 21 8.329 21 11c0 2.671-1.04 5.182-2.929 7.071C16.182 19.96 13.671 21 11 21c-2.671 0-5.182-1.04-7.071-2.929C2.04 16.182 1 13.671 1 11c0-2.671 1.04-5.182 2.929-7.071C5.818 2.04 8.329 1 11 1zm0 .586c-5.19 0-9.414 4.223-9.414 9.414 0 5.19 4.223 9.414 9.414 9.414 5.19 0 9.414-4.223 9.414-9.414 0-5.19-4.223-9.414-9.414-9.414zm0 1.172c4.545 0 8.242 3.697 8.242 8.242 0 4.545-3.697 8.242-8.242 8.242-4.545 0-8.242-3.697-8.242-8.242 0-1.956.7-3.853 1.972-5.343.105-.123.29-.138.413-.033.123.105.137.29.032.413C3.995 7.421 3.344 9.184 3.344 11c0 4.222 3.434 7.656 7.656 7.656 4.222 0 7.656-3.434 7.656-7.656 0-4.222-3.434-7.656-7.656-7.656-1.816 0-3.579.65-4.963 1.831-.123.105-.308.09-.413-.032-.105-.123-.09-.308.033-.413C7.147 3.458 9.044 2.758 11 2.758zm.511 2.422c2.238 0 4.06 1.82 4.06 4.059 0 2.238-1.822 4.059-4.06 4.059h0-1.605v2.39c0 .646-.525 1.171-1.172 1.171-.646 0-1.171-.525-1.171-1.172h0V6.352c0-.647.525-1.172 1.171-1.172h0zm0 .586H8.734c-.323 0-.586.262-.586.586h0v9.335c0 .324.263.586.586.586.324 0 .586-.262.586-.585h0v-2.683c0-.162.131-.293.293-.293h1.898c1.915 0 3.473-1.558 3.473-3.473 0-1.915-1.558-3.473-3.473-3.473h0zm0 1.171c1.27 0 2.302 1.033 2.302 2.302 0 1.268-1.033 2.3-2.302 2.3h0-.228c-.162 0-.293-.13-.293-.292 0-.162.131-.293.293-.293h.228c.946 0 1.716-.77 1.716-1.715 0-.946-.77-1.716-1.716-1.716h0-1.605v3.43h.215c.162 0 .293.132.293.294 0 .162-.131.293-.293.293h0-.508c-.162 0-.293-.131-.293-.293h0V7.23c0-.161.131-.293.293-.293h0z"/>
</svg>
