<svg xmlns="http://www.w3.org/2000/svg" width="17" height="20" viewBox="0 0 17 20">
    <path fill="#0D4774" fill-opacity=".367" d="M16.016 0c.215 0 .39.175.39.39v19.22c0 .215-.175.39-.39.39H.39C.175 20 0 19.825 0 19.61V.39C0 .176.175 0 .39 0zm-12.5 17.988h-.782v1.23h.782v-1.23zM8.203 4.297c-2.493 0-3.563 1.058-3.906 1.51V19.22h7.812V5.808c-.343-.453-1.413-1.511-3.906-1.511zm0-1.563c-1.738 0-3.177.427-4.277 1.27-.827.633-1.14 1.268-1.153 1.295-.025.052-.039.111-.039.17V7.05h.782V5.683c0-.078.023-.154.066-.219.308-.457 1.55-1.948 4.621-1.948 3.07 0 4.313 1.491 4.621 1.948.043.065.067.14.067.219v13.536h.78V5.469c0-.059-.013-.118-.038-.17-.013-.027-.326-.662-1.153-1.295-1.1-.843-2.538-1.27-4.277-1.27zM15.625.781H.781V19.22h1.172V5.469c0-.176.04-.352.117-.51.04-.084.424-.843 1.381-1.576.852-.652 2.368-1.43 4.752-1.43s3.9.778 4.752 1.43c.957.733 1.34 1.492 1.381 1.576.077.158.117.334.117.51v13.75h1.172V.78zm-4.688 16.875c.216 0 .391.176.391.39 0 .216-.175.392-.39.392H9.765c-.216 0-.391-.176-.391-.391 0-.215.175-.39.39-.39zm-4.296 0c.215 0 .39.176.39.39 0 .216-.175.392-.39.392H5.469c-.216 0-.39-.176-.39-.391 0-.215.174-.39.39-.39zm1.562 0c.215 0 .39.176.39.39 0 .216-.175.392-.39.392-.215 0-.39-.176-.39-.391 0-.215.175-.39.39-.39zm-4.687-1.23h-.782v.781h.782v-.781zm0-7.031h-.782v6.25h.782v-6.25zm6.601 2.011c.646 0 1.172.526 1.172 1.172 0 .646-.526 1.172-1.172 1.172-.509 0-.943-.327-1.105-.781h-.418c-.216 0-.39-.175-.39-.39 0-.217.174-.392.39-.392h.418c.162-.454.596-.78 1.105-.78zm0 .781c-.215 0-.39.176-.39.391 0 .216.175.39.39.39.216 0 .39-.174.39-.39 0-.215-.174-.39-.39-.39zM3.516 7.832h-.782v.781h.782v-.781zm4.6-2.032c.084 0 .164.023.24.067.076.045.114.095.114.151 0 .017-.002.032-.007.046l-.7 2.145c-.02.058-.064.103-.131.135-.067.032-.144.047-.23.047-.087 0-.165-.015-.233-.047-.067-.032-.108-.077-.122-.135l-.183-.834-.183.834c-.014.058-.055.103-.123.135-.068.032-.145.047-.232.047-.087 0-.164-.015-.232-.047s-.112-.077-.13-.135l-.7-2.145c-.005-.014-.007-.03-.007-.046 0-.056.038-.106.114-.15.076-.045.157-.068.241-.068.099 0 .157.034.176.102l.534 1.804.278-1.188c.01-.045.04-.08.091-.106.052-.026.11-.039.173-.039.063 0 .12.013.172.04.051.025.082.06.091.105l.278 1.188.534-1.804c.02-.068.078-.102.176-.102zm1.722 0c.258 0 .47.062.635.187.165.124.247.295.247.513 0 .1-.02.17-.063.206-.042.036-.112.054-.21.054-.177 0-.268-.055-.275-.165-.007-.211-.111-.316-.313-.316-.211 0-.316.117-.316.351v.932c0 .234.106.351.32.351.065 0 .12-.01.163-.031.043-.021.074-.054.093-.097.019-.043.031-.08.037-.107.006-.028.011-.067.016-.116.01-.11.1-.165.27-.165.101 0 .173.018.215.054.042.036.063.105.063.206 0 .227-.082.406-.248.538-.165.131-.376.196-.634.196-.25 0-.454-.066-.61-.2-.156-.133-.234-.343-.234-.63v-.93c0-.287.078-.497.234-.63.156-.134.36-.2.61-.2zM1.953 1.563c.215 0 .39.175.39.39 0 .215-.175.39-.39.39-.215 0-.39-.175-.39-.39 0-.215.175-.39.39-.39zm12.5 0c.215 0 .39.175.39.39 0 .215-.175.39-.39.39-.215 0-.39-.175-.39-.39 0-.215.175-.39.39-.39z"/>
</svg>
