<svg xmlns="http://www.w3.org/2000/svg" width="19" height="20" viewBox="0 0 19 20">
    <path fill="#0D4774" fill-opacity=".367" d="M9.667 0v20H9V0h.667zM5 6.333c.147 0 .277.097.32.238l2 6.667c.009.03.013.063.013.095 0 .184-.149.334-.333.334H5.667V18c0 .184-.15.333-.334.333H2c-.184 0-.333-.149-.333-.333v-4.333H.333c-.105 0-.203-.05-.266-.134-.064-.084-.083-.194-.053-.295l2-6.667c.042-.141.172-.238.32-.238zm11 0c1.288.002 2.332 1.046 2.333 2.334v4.666c0 .184-.149.334-.333.334h-1V18c0 .184-.15.333-.333.333h-3.334c-.184 0-.333-.149-.333-.333v-4.333h-1c-.184 0-.333-.15-.333-.334V8.667c.001-1.288 1.045-2.332 2.333-2.334zM4.752 7h-2.17l-1.8 6H2c.184 0 .333.15.333.333v4.334h1V13H4v4.667h1v-4.334c0-.184.15-.333.333-.333h1.219l-1.8-6zM16 7h-2c-.92.001-1.666.747-1.667 1.667V13H13V9h.667v8.667h1V13h.666v4.667h1V9H17v4h.667V8.667C17.666 7.747 16.92 7 16 7zM3.667 1.667c1.104 0 2 .895 2 2 0 1.104-.896 2-2 2-1.104-.001-2-.896-2-2 0-1.105.895-2 2-2zm11.333 0c1.105 0 2 .895 2 2-.001 1.104-.896 1.999-2 2-1.105 0-2-.896-2-2 0-1.105.895-2 2-2zm-11.333.666c-.737 0-1.334.597-1.334 1.334C2.333 4.403 2.93 5 3.667 5 4.403 5 5 4.403 5 3.667c0-.737-.597-1.334-1.333-1.334zm11.333 0c-.736 0-1.333.597-1.333 1.334C13.667 4.403 14.264 5 15 5s1.333-.597 1.333-1.333c0-.737-.597-1.334-1.333-1.334z"/>
</svg>
