<svg xmlns="http://www.w3.org/2000/svg" width="20" height="20" viewBox="0 0 20 20">
    <path fill="#0D4774" fill-opacity=".367" d="M19.73 0H.25C.112 0 0 .112 0 .25v2.272c0 .138.112.25.25.25h.044v3.582c0 .05.003.1.008.15-.002.013-.008.025-.008.04v3.831c0 .064.006.127.014.19-.007.022-.014.045-.014.07v3.831c0 .065.006.128.014.19-.007.023-.014.045-.014.07v3.832c0 .784.638 1.422 1.422 1.422h2.378c.486 0 .916-.245 1.173-.619.256.374.686.62 1.173.62h2.377c.487 0 .917-.246 1.173-.62.257.374.687.62 1.173.62h2.378c.486 0 .916-.246 1.173-.62.256.374.686.62 1.172.62h2.378c.785 0 1.423-.639 1.423-1.423v-3.832c0-.025-.008-.047-.014-.07.008-.062.014-.125.014-.19v-3.831c0-.025-.008-.048-.014-.07.008-.063.014-.126.014-.19V6.543c0-.014-.006-.026-.008-.04.005-.049.008-.098.008-.149V2.772h.044c.138 0 .25-.112.25-.25V.25c0-.138-.112-.25-.25-.25zM.5.5H19.48v1.773H.5V.5zm18.687 13.966c0 .51-.414.924-.923.924h-2.378c-.509 0-.923-.415-.923-.924v-3.01c.25.212.571.342.923.342h2.378c.352 0 .674-.13.923-.343v3.011zm-17.47-6.76h2.377c.359 0 .678-.114.923-.307v2.976c0 .509-.414.923-.923.923H1.716c-.509 0-.923-.414-.923-.923V7.399c.245.193.565.307.923.307zM9.74 2.772v3.582c0 .486-.396.853-.923.853H6.44c-.527 0-.923-.367-.923-.853V2.772H9.74zm4.724 7.603c0 .509-.414.923-.923.923h-2.378c-.509 0-.923-.414-.923-.923V7.399c.245.193.564.307.923.307h2.378c.359 0 .678-.114.923-.307v2.976zM5.517 7.399c.245.193.564.307.923.307h2.377c.36 0 .678-.114.923-.307v2.976c0 .509-.414.923-.923.923H6.44c-.51 0-.923-.414-.923-.923V7.399zM.793 11.455c.249.213.571.343.923.343h2.378c.352 0 .674-.13.923-.343v3.011c0 .51-.414.924-.923.924H1.716c-.509 0-.923-.415-.923-.924v-3.01zm4.724 0c.248.213.57.343.923.343h2.377c.353 0 .675-.13.923-.343v3.011c0 .51-.414.924-.923.924H6.44c-.51 0-.923-.415-.923-.924v-3.01zm4.723 0c.249.213.57.343.923.343h2.378c.352 0 .674-.13.923-.343v3.011c0 .51-.414.924-.923.924h-2.378c-.509 0-.923-.415-.923-.924v-3.01zm8.947-1.08c0 .509-.414.923-.923.923h-2.378c-.509 0-.923-.414-.923-.923V7.399c.245.193.565.307.923.307h2.378c.359 0 .678-.114.923-.307v2.976zm-4.723-4.02c0 .485-.397.852-.923.852h-2.378c-.526 0-.923-.367-.923-.853V2.772h4.224v3.582zM5.017 2.771v3.582c0 .494-.388.853-.923.853H1.716c-.535 0-.923-.359-.923-.853V2.772h4.224zm-.923 16.709H1.716c-.509 0-.923-.414-.923-.923v-3.011c.249.213.571.342.923.342h2.378c.352 0 .674-.13.923-.342v3.01c0 .51-.414.924-.923.924zm4.723 0H6.44c-.51 0-.923-.414-.923-.923v-3.011c.248.213.57.342.923.342h2.377c.353 0 .675-.13.923-.342v3.01c0 .51-.414.924-.923.924zm4.724 0h-2.378c-.509 0-.923-.414-.923-.923v-3.011c.249.213.57.342.923.342h2.378c.352 0 .674-.13.923-.342v3.01c0 .51-.414.924-.923.924zm4.723 0h-2.378c-.509 0-.923-.414-.923-.923v-3.011c.25.213.571.342.923.342h2.378c.352 0 .674-.13.923-.342v3.01c0 .51-.414.924-.923.924zm.923-13.127c0 .494-.388.853-.923.853h-2.378c-.534 0-.923-.359-.923-.853V2.772h4.224v3.582z"/>
</svg>
