<svg xmlns="http://www.w3.org/2000/svg" width="20" height="16" viewBox="0 0 20 16">
    <path fill="#0D4774" fill-opacity=".367" d="M9.668 13.46c.691 0 1.251.56 1.251 1.25 0 .692-.56 1.252-1.25 1.252-.692 0-1.252-.56-1.252-1.251 0-.691.56-1.251 1.251-1.251zM9.7 8.834c1.29 0 2.704.607 3.69 1.585.298.294.3.775.006 1.072-.295.298-.775.3-1.073.005-.702-.696-1.732-1.145-2.623-1.145h-.055l-.209.008c-.84.062-1.767.495-2.415 1.137-.148.146-.34.22-.534.22-.195 0-.39-.075-.538-.225-.295-.297-.293-.778.005-1.072.986-.978 2.4-1.585 3.69-1.585zM9.706 4.4c2.49 0 4.876 1.022 6.718 2.878.295.297.294.777-.004 1.072-.148.147-.34.22-.534.22-.195 0-.39-.074-.538-.224-1.555-1.567-3.559-2.43-5.642-2.43s-4.087.863-5.642 2.43c-.295.298-.775.3-1.072.004-.297-.294-.3-.775-.004-1.072C4.829 5.422 7.215 4.4 9.706 4.4zm0-4.4c3.636 0 7.01 1.473 9.503 4.147.285.306.268.786-.038 1.071-.146.136-.332.204-.517.204-.203 0-.405-.081-.555-.241-2.202-2.363-5.182-3.664-8.393-3.664-3.21 0-6.19 1.3-8.393 3.664-.286.306-.765.323-1.072.037-.306-.285-.323-.765-.037-1.071C2.696 1.473 6.07 0 9.706 0z"/>
</svg>
