<svg width="20" height="20" viewBox="0 0 20 20" fill="none" xmlns="http://www.w3.org/2000/svg">
<path fill-rule="evenodd" clip-rule="evenodd" d="M4.99997 3.40277C3.19738 3.40277 1.73608 4.86406 1.73608 6.66666V13.3333C1.73608 15.1359 3.19738 16.5972 4.99997 16.5972H15C16.8026 16.5972 18.2639 15.1359 18.2639 13.3333V6.66666C18.2639 4.86406 16.8026 3.40277 15 3.40277H4.99997ZM3.34044 6.15517C3.55876 5.44599 4.21917 4.93055 4.99997 4.93055H15C15.7808 4.93055 16.4412 5.44601 16.6595 6.15522L10 9.48497L3.34044 6.15517ZM3.26386 7.98028V13.3333C3.26386 14.2922 4.04115 15.0694 4.99997 15.0694H15C15.9588 15.0694 16.7361 14.2922 16.7361 13.3333V7.98033L10 11.3484L3.26386 7.98028Z" fill="#A6BCCC"/>
</svg>
