<svg width="20" height="20" viewBox="0 0 20 20" fill="none" xmlns="http://www.w3.org/2000/svg">
<path fill-rule="evenodd" clip-rule="evenodd" d="M9.77463 4.16789C14.7546 4.01206 17.6913 8.65706 18.223 9.58373C18.3696 9.84039 18.3696 10.1562 18.223 10.4129C17.5113 11.6537 14.8313 15.7112 10.2255 15.8287C10.1571 15.8304 10.0888 15.8312 10.0205 15.8312C5.13463 15.8312 2.3013 11.3271 1.77713 10.4129C1.62963 10.1562 1.62963 9.84039 1.77713 9.58373C2.4888 8.34289 5.16796 4.28456 9.77463 4.16789ZM10.183 14.1629C6.59463 14.2462 4.2538 11.1771 3.47713 9.99456C4.33213 8.65706 6.48546 5.91873 9.81713 5.83373C13.3913 5.74289 15.7455 8.81956 16.5221 10.0021C15.668 11.3396 13.5138 14.0779 10.183 14.1629ZM7.08321 9.99823C7.08321 8.38989 8.39155 7.08156 9.99988 7.08156C11.6082 7.08156 12.9165 8.38989 12.9165 9.99823C12.9165 11.6066 11.6082 12.9149 9.99988 12.9149C8.39155 12.9149 7.08321 11.6066 7.08321 9.99823ZM8.74988 9.99823C8.74988 10.6874 9.31071 11.2482 9.99988 11.2482C10.689 11.2482 11.2499 10.6874 11.2499 9.99823C11.2499 9.30906 10.689 8.74823 9.99988 8.74823C9.31071 8.74823 8.74988 9.30906 8.74988 9.99823Z" fill="#A6BCCC"/>
<path fill-rule="evenodd" clip-rule="evenodd" d="M9.77463 4.16789C14.7546 4.01206 17.6913 8.65706 18.223 9.58373C18.3696 9.84039 18.3696 10.1562 18.223 10.4129C17.5113 11.6537 14.8313 15.7112 10.2255 15.8287C10.1571 15.8304 10.0888 15.8312 10.0205 15.8312C5.13463 15.8312 2.3013 11.3271 1.77713 10.4129C1.62963 10.1562 1.62963 9.84039 1.77713 9.58373C2.4888 8.34289 5.16796 4.28456 9.77463 4.16789ZM10.183 14.1629C6.59463 14.2462 4.2538 11.1771 3.47713 9.99456C4.33213 8.65706 6.48546 5.91873 9.81713 5.83373C13.3913 5.74289 15.7455 8.81956 16.5221 10.0021C15.668 11.3396 13.5138 14.0779 10.183 14.1629ZM7.08321 9.99823C7.08321 8.38989 8.39155 7.08156 9.99988 7.08156C11.6082 7.08156 12.9165 8.38989 12.9165 9.99823C12.9165 11.6066 11.6082 12.9149 9.99988 12.9149C8.39155 12.9149 7.08321 11.6066 7.08321 9.99823ZM8.74988 9.99823C8.74988 10.6874 9.31071 11.2482 9.99988 11.2482C10.689 11.2482 11.2499 10.6874 11.2499 9.99823C11.2499 9.30906 10.689 8.74823 9.99988 8.74823C9.31071 8.74823 8.74988 9.30906 8.74988 9.99823Z" fill="#A6BCCC"/>
</svg>
