<!-- Generated by IcoMoon.io -->
<svg version="1.1" xmlns="http://www.w3.org/2000/svg" width="32" height="32" viewBox="0 0 32 32">
<title>feed-liked-indicator</title>
<path d="M24.612 18.618l-2.253 2.312-4.635 4.977c-0.337 0.36-0.78 0.542-1.221 0.542s-0.883-0.18-1.219-0.541l-8.377-8.953 5.389-5.78 0.054 0.057c0.696 0.736 0.812 0.859 1.853 1.957 2.343 2.476 2.343 2.476 3.124 3.301 0.436 0.438 0.436 1.080 0.017 1.501-0.467 0.467-1.253 0.467-1.72 0l-2.415-2.624c-0.121-0.153-0.256-0.298-0.403-0.435l-0.531 0.694-0.578 0.648 0.298 0.325c0.748 0.972 0.62 2.437-0.222 3.367l-0.468 0.517 1.164 1.287 0.468-0.517c0.606-0.669 0.995-1.514 1.139-2.395l0.418 0.455c1.118 1.12 2.861 1.12 3.955 0.025 1.142-1.144 1.142-3.035 0-4.18-0.765-0.808-0.765-0.808-3.107-3.283-1.017-1.075-1.152-1.216-1.864-1.969l4.765-5.118c0.337-0.36 0.778-0.541 1.219-0.541 0.529 0 1.058 0.259 1.408 0.778 0.502 0.748 0.354 1.799-0.254 2.449l-3.244 3.606c0.328-0.352 0.76-0.529 1.191-0.529s0.862 0.177 1.191 0.529c0.659 0.706 0.659 1.849 0 2.555 0.328-0.352 0.761-0.529 1.191-0.529 0.492 0 0.984 0.229 1.324 0.687 0.517 0.697 0.411 1.718-0.13 2.393l0.106-0.113c0.308-0.271 0.687-0.408 1.066-0.408 0.429 0 0.862 0.177 1.191 0.531 0.616 0.662 0.655 1.711 0.113 2.42zM10.394 26.536l-3.23-3.178c-0.879-0.952-0.879-2.506 0-3.458 0.029-0.032 6.42 6.636 6.42 6.636-0.877 0.952-2.314 0.952-3.19 0zM-0.001 15.748c0 8.697 7.052 15.749 15.749 15.749s15.749-7.052 15.749-15.749c0-8.697-7.052-15.749-15.749-15.749s-15.749 7.052-15.749 15.749z"></path>
</svg>
