<!-- Generated by IcoMoon.io -->
<svg version="1.1" xmlns="http://www.w3.org/2000/svg" width="39" height="32" viewBox="0 0 39 32">
<title>icn-attending</title>
<path d="M16.914 24.114l-4.571-4.229 1.486-1.714 3.086 2.743 8-7.314 1.486 1.714-9.486 8.8zM36.571 7.771v17.143c0 2.514-2.057 4.571-4.571 4.571h-25.143c-2.514 0-4.571-2.057-4.571-4.571v-17.143c0-2.514 2.057-4.571 4.571-4.571h2.286v-1.486h2.286v1.6h16v-1.6h2.286v1.6h2.286c2.514-0.114 4.571 1.943 4.571 4.457zM4.571 7.771v1.143h29.714v-1.143c0-1.257-1.029-2.286-2.286-2.286h-25.143c-1.257 0-2.286 1.029-2.286 2.286zM34.286 24.914v-13.714h-29.714v13.714c0 1.257 1.029 2.286 2.286 2.286h25.143c1.257 0 2.286-1.029 2.286-2.286z"></path>
</svg>
