<!-- Generated by IcoMoon.io -->
<svg version="1.1" xmlns="http://www.w3.org/2000/svg" width="27" height="32" viewBox="0 0 27 32">
<title>icn-near-by</title>
<path d="M13.241 11.255c-1.214 0-2.207-0.993-2.207-2.207s0.993-2.207 2.207-2.207c1.214 0 2.207 0.993 2.207 2.207s-0.993 2.207-2.207 2.207zM13.241 25.269c0 0 8.828-9.821 8.828-14.786s-3.972-9.048-8.828-9.048-8.828 3.972-8.828 8.938c0 5.076 8.828 14.897 8.828 14.897zM11.807 30.676c-0.11 0-0.11 0 0 0-0.772-0.11-1.545-0.11-2.317-0.331-0.331-0.11-0.441-0.331-0.441-0.662 0.11-0.331 0.331-0.441 0.662-0.441 0.662 0.11 1.434 0.221 2.097 0.331 0.331 0 0.552 0.331 0.552 0.552-0.11 0.331-0.331 0.552-0.552 0.552zM16.11 30.455c-0.221 0-0.552-0.221-0.552-0.441 0-0.331 0.11-0.552 0.441-0.662 0.772-0.11 1.434-0.331 2.097-0.441 0.331-0.11 0.552 0.11 0.662 0.331 0.11 0.331-0.11 0.552-0.331 0.662-0.662 0.221-1.434 0.441-2.317 0.552 0.11 0 0.11 0 0 0zM5.517 28.8c-0.11 0-0.221 0-0.331-0.11-0.772-0.552-1.324-1.103-1.766-1.655-0.11-0.331-0.11-0.662 0.221-0.772 0.221-0.11 0.552-0.11 0.772 0.221 0.331 0.441 0.772 0.883 1.434 1.324 0.221 0.221 0.331 0.552 0.11 0.772-0.11 0.11-0.331 0.221-0.441 0.221zM22.069 27.807c-0.11 0-0.221 0-0.331-0.11-0.221-0.221-0.221-0.552 0-0.772 0.441-0.552 0.662-1.103 0.662-1.655 0-0.221 0-0.441-0.11-0.662-0.11-0.331 0.11-0.552 0.331-0.662 0.331-0.11 0.552 0.11 0.662 0.331 0.11 0.331 0.11 0.662 0.11 0.993 0 0.883-0.331 1.655-0.993 2.317 0 0.11-0.11 0.221-0.331 0.221zM4.855 23.393c-0.11 0-0.331-0.11-0.441-0.221-0.221-0.221-0.221-0.552 0.11-0.772 0.552-0.441 1.214-0.883 1.986-1.214 0.221-0.11 0.552 0 0.772 0.221 0.11 0.331 0 0.552-0.331 0.772-0.662 0.331-1.324 0.662-1.766 1.103-0.11 0-0.221 0.11-0.331 0.11zM19.641 22.179c-0.11 0-0.11 0-0.221 0-0.552-0.221-1.324-0.441-1.986-0.662-0.331-0.11-0.441-0.331-0.441-0.662 0.11-0.331 0.331-0.441 0.662-0.441 0.772 0.221 1.545 0.441 2.207 0.772 0.331 0.11 0.441 0.441 0.331 0.772-0.221 0.11-0.331 0.221-0.552 0.221z"></path>
</svg>
