<!-- Generated by IcoMoon.io -->
<svg version="1.1" xmlns="http://www.w3.org/2000/svg" width="51" height="32" viewBox="0 0 51 32">
<title>icn-joined-team</title>
<path d="M24.293 27.024l-3.024-2.732 1.366-1.463 1.659 1.561 4.78-4.293 1.366 1.463zM48.195 29.756h-8.585v-4.488c0-1.073-0.195-2.146-0.488-3.22l-0.293-0.976-0.293-0.683c-0.878-1.951-2.244-3.512-4-4.683l-0.585-0.39 0.098-0.683c0.488-2.537 2.537-4.39 5.073-4.39 2.829 0 5.171 2.439 5.171 5.366 0 2.341-1.463 4.39-3.512 5.073h1.463c3.317 0 5.951 2.829 5.951 6.244v2.829zM41.659 27.707h4.585v-0.683c0-2.341-1.756-4.195-3.902-4.195h-0.878c0.195 0.78 0.195 1.659 0.195 2.439v2.439zM36.195 14.439c1.561 1.171 2.829 2.634 3.805 4.39 1.268-0.39 2.146-1.659 2.146-3.122 0-1.854-1.366-3.317-3.122-3.317-1.171 0-2.341 0.878-2.829 2.049zM36.683 29.756h-21.756v-4.488c0-4.488 2.927-8.195 6.829-9.366-1.171-1.171-1.854-2.732-1.854-4.488 0-3.415 2.634-6.244 5.951-6.244s5.951 2.829 5.951 6.244c0 1.756-0.683 3.415-1.854 4.488 3.902 1.073 6.829 4.878 6.829 9.366v4.488zM16.878 27.707h17.756v-2.439c0-4.195-3.22-7.61-7.22-7.61h-3.317c-4 0-7.22 3.415-7.22 7.61v2.439zM25.756 7.22c-2.146 0-3.902 1.854-3.902 4.195s1.756 4.195 3.902 4.195 3.902-1.854 3.902-4.195-1.659-4.195-3.902-4.195zM12 29.756h-8.585v-2.732c0-3.415 2.634-6.244 5.951-6.244h1.756c-2.049-0.683-3.512-2.732-3.512-5.073 0-2.927 2.341-5.366 5.171-5.366 2.439 0 4.488 1.659 4.976 4.098l0.195 0.683-0.683 0.488c-1.854 1.073-3.317 2.732-4.195 4.78l-0.39 0.683-0.293 0.976c-0.293 1.073-0.488 2.146-0.488 3.22v4.488zM5.366 27.707h4.585v-2.439c0-0.78 0.098-1.659 0.195-2.439h-0.78c-2.146 0-3.902 1.854-3.902 4.195v0.683zM12.78 12.39c-1.756 0-3.122 1.463-3.122 3.317 0 1.366 0.78 2.537 1.951 3.024 0.976-1.756 2.341-3.317 4-4.488-0.488-1.073-1.659-1.854-2.829-1.854z"></path>
</svg>
