<!-- Generated by IcoMoon.io -->
<svg version="1.1" xmlns="http://www.w3.org/2000/svg" width="52" height="32" viewBox="0 0 52 32">
<title>icn-distance</title>
<path d="M15.228 11.145c-0.993 0-1.876-0.772-1.876-1.876s0.883-1.876 1.876-1.876c1.103 0 1.876 0.772 1.876 1.876s-0.883 1.876-1.876 1.876zM15.228 22.731c0 0 7.283-8.166 7.283-12.359s-3.31-7.503-7.283-7.503-7.283 3.31-7.283 7.503c0 4.193 7.283 12.359 7.283 12.359zM36.634 11.145c-0.993 0-1.876-0.772-1.876-1.876s0.772-1.876 1.876-1.876c1.103 0 1.876 0.772 1.876 1.876s-0.883 1.876-1.876 1.876zM36.634 22.731c0 0 7.283-8.166 7.283-12.359s-3.31-7.503-7.283-7.503-7.283 3.31-7.283 7.503c-0.11 4.193 7.283 12.359 7.283 12.359zM17.434 26.814c0 1.214-0.993 2.207-2.207 2.207s-2.207-0.993-2.207-2.207 0.993-2.207 2.207-2.207 2.207 0.993 2.207 2.207zM38.841 26.814c0 1.214-0.993 2.207-2.207 2.207s-2.207-0.993-2.207-2.207 0.993-2.207 2.207-2.207 2.207 0.993 2.207 2.207zM19.972 27.255h-0.883c-0.221 0-0.441-0.221-0.441-0.441s0.221-0.441 0.441-0.441h0.883c0.221 0 0.441 0.221 0.441 0.441s-0.221 0.441-0.441 0.441zM28.91 27.255h-1.434c-0.221 0-0.441-0.221-0.441-0.441s0.221-0.441 0.441-0.441h1.434c0.221 0 0.441 0.221 0.441 0.441s-0.221 0.441-0.441 0.441zM24.497 27.255h-1.434c-0.221 0-0.441-0.221-0.441-0.441s0.221-0.441 0.441-0.441h1.434c0.221 0 0.441 0.221 0.441 0.441s-0.221 0.441-0.441 0.441zM32.772 27.255h-0.883c-0.221 0-0.441-0.221-0.441-0.441s0.221-0.441 0.441-0.441h0.883c0.221 0 0.441 0.221 0.441 0.441s-0.11 0.441-0.441 0.441z"></path>
</svg>
