<!-- Generated by IcoMoon.io -->
<svg version="1.1" xmlns="http://www.w3.org/2000/svg" width="34" height="32" viewBox="0 0 34 32">
<title>rc-age</title>
<path d="M8.793 8.703c0-2.357 1.904-4.351 4.351-4.351s4.351 1.904 4.351 4.351-1.904 4.351-4.351 4.351-4.351-1.994-4.351-4.351zM14.414 23.751v-0.907c0-2.901 2.176-5.439 5.076-6.255-1.541-1.541-3.898-2.538-6.436-2.538-4.805 0-8.612 3.354-8.612 7.524h4.351v4.351c0 0.816 0.906 0.997 1.722 0.997h5.167c0.816 0 1.904-0.453 1.904-1.269l-0.091-1.994h-3.082zM15.32 22.844c0-3.173 2.901-5.711 6.527-5.711s6.527 2.538 6.527 5.711h-3.263l0.091 3.173c0 0.635-0.816 0.907-1.45 0.907h-3.807c-0.635 0-1.269-0.181-1.269-0.816v-3.263h-3.354zM21.847 9.79c-1.813 0-3.263 1.45-3.263 3.263s1.45 3.263 3.263 3.263 3.263-1.45 3.263-3.263-1.45-3.263-3.263-3.263z"></path>
</svg>
