<!-- Generated by IcoMoon.io -->
<svg version="1.1" xmlns="http://www.w3.org/2000/svg" width="32" height="32" viewBox="0 0 32 32">
<title>rc-add-small</title>
<path d="M13.146 30.51c0 0.727 0.774 1.49 1.498 1.49h2.978c0.725 0 1.335-0.763 1.335-1.49v-11.571h11.413c0.725 0 1.63-0.846 1.63-1.574v-2.825c0-0.727-0.732-1.463-1.457-1.463h-11.566v-11.665c0-0.727-0.63-1.413-1.355-1.413h-3.13c-0.725 0-1.347 0.686-1.347 1.413v11.665h-11.407c-0.725 0-1.633 0.735-1.633 1.463l-0.106 2.964c0 0.727 0.81 1.434 1.534 1.434h11.612v11.571z"></path>
</svg>
