<!-- Generated by IcoMoon.io -->
<svg version="1.1" xmlns="http://www.w3.org/2000/svg" width="36" height="32" viewBox="0 0 36 32">
<title>rc-bell</title>
<path d="M12.923 24.616c-7.137 0-12.923-5.511-12.923-12.309 0-6.797 5.786-12.307 12.923-12.307s12.923 5.511 12.923 12.308c0 6.797-5.786 12.307-12.923 12.307zM12.923 15.665c1.946 0 3.525-1.503 3.525-3.356 0-1.855-1.579-3.358-3.525-3.358-1.947 0-3.525 1.503-3.525 3.358 0 1.854 1.577 3.356 3.525 3.356zM19.672 27.032c4.749-2.339 8.123-6.838 8.856-12.179l0.009-0.083 2.233 0.308c-0.894 6.625-5.254 12.049-11.098 14.449v1.881c0 0.327-0.265 0.593-0.593 0.593v0h-12.333c-0.327 0-0.593-0.265-0.593-0.593v0-5.669c0-0.327 0.265-0.593 0.593-0.593v0h12.333c0.327 0 0.593 0.265 0.593 0.593v0 1.293zM30.153 17.23c-0.021 0-0.046 0.001-0.071 0.001-2.379 0-4.308-1.929-4.308-4.308s1.929-4.308 4.308-4.308c0.025 0 0.050 0 0.075 0.001l-0.004-0c2.379 0 4.308 1.929 4.308 4.308s-1.929 4.308-4.308 4.308v0zM30.153 14.77c1.020 0 1.847-0.827 1.847-1.847s-0.827-1.847-1.847-1.847v0c-1.020 0-1.847 0.827-1.847 1.847s0.827 1.847 1.847 1.847v0z"></path>
</svg>
