<!-- Generated by IcoMoon.io -->
<svg version="1.1" xmlns="http://www.w3.org/2000/svg" width="32" height="32" viewBox="0 0 32 32">
<title>rc-blog</title>
<path d="M0 0v6.171c14.171 0 25.829 11.657 25.829 25.829h6.171c0-17.6-14.4-32-32-32zM0 10.743v6.171c3.886 0 7.771 1.6 10.514 4.343s4.343 6.629 4.343 10.514h6.171c0-11.429-9.371-21.029-21.029-21.029zM4.343 23.543c-2.286 0-4.343 1.829-4.343 4.343 0 2.286 1.829 4.343 4.343 4.343 2.286 0 4.343-1.829 4.343-4.343-0.229-2.514-2.057-4.343-4.343-4.343z"></path>
</svg>
