<!-- Generated by IcoMoon.io -->
<svg version="1.1" xmlns="http://www.w3.org/2000/svg" width="34" height="32" viewBox="0 0 34 32">
<title>rc-binacular-icon</title>
<path d="M33.61 23.084l-6.105-19.843c-0.598-1.937-2.361-3.24-4.387-3.24-2.531 0-4.591 2.060-4.591 4.591v2.146h-3.368v-2.146c0-2.531-2.060-4.591-4.591-4.591-2.028 0-3.789 1.304-4.387 3.24l-6.105 19.843c-0.049 0.16-0.074 0.327-0.074 0.495v0.842c0 4.18 3.4 7.579 7.579 7.579s7.579-3.399 7.579-7.579v-7.579h3.368v7.579c0 4.18 3.4 7.579 7.579 7.579s7.579-3.399 7.579-7.579v-0.842c0-0.168-0.025-0.335-0.074-0.495v0zM7.579 28.632c-2.321 0-4.211-1.89-4.211-4.211s1.89-4.211 4.211-4.211c2.321 0 4.211 1.89 4.211 4.211s-1.89 4.211-4.211 4.211v0zM26.105 28.632c-2.321 0-4.211-1.89-4.211-4.211s1.89-4.211 4.211-4.211c2.321 0 4.211 1.89 4.211 4.211s-1.89 4.211-4.211 4.211v0z"></path>
</svg>
