<!-- Generated by IcoMoon.io -->
<svg version="1.1" xmlns="http://www.w3.org/2000/svg" width="26" height="32" viewBox="0 0 26 32">
<title>rc-birthday</title>
<path d="M13.091 8.727c1.6 0 2.909-1.309 2.909-2.909 0-0.582-0.145-1.018-0.436-1.455l-2.473-4.364-2.473 4.364c-0.291 0.436-0.436 0.873-0.436 1.455 0 1.6 1.309 2.909 2.909 2.909v0zM19.782 23.273l-1.6-1.6-1.6 1.6c-1.891 1.891-5.236 1.891-7.127 0l-1.6-1.6-1.6 1.6c-0.873 1.018-2.182 1.455-3.491 1.455-1.018 0-2.036-0.291-2.909-0.873v6.691c0 0.727 0.582 1.455 1.455 1.455h23.273c0.727 0 1.455-0.727 1.455-1.455v-6.691c-0.873 0.582-1.745 0.873-2.909 0.873s-2.473-0.582-3.345-1.455v0zM21.818 13.091h-7.273v-2.909h-2.909v2.909h-7.273c-2.473 0-4.364 1.891-4.364 4.364v2.182c0 1.6 1.309 2.909 2.909 2.909 0.727 0 1.455-0.291 2.036-0.873l3.055-3.055 3.055 3.055c1.018 1.018 2.909 1.018 4.073 0l3.055-3.055 3.055 3.055c0.582 0.582 1.309 0.873 2.036 0.873 1.6 0 2.909-1.309 2.909-2.909v-2.182c0-2.473-1.891-4.364-4.364-4.364v0z"></path>
</svg>
