<!-- Generated by IcoMoon.io -->
<svg version="1.1" xmlns="http://www.w3.org/2000/svg" width="26" height="32" viewBox="0 0 26 32">
<title>rc-beer</title>
<path d="M22.267 16.333l-0.8-0.2c1.533-0.867 2.667-2.4 3.067-4.2 0.6-2.733-0.667-5.467-2.933-6.8-0.333-1.8-1.667-3.333-3.6-3.733-0.533-0.133-1.133-0.133-1.667-0.067-0.667-0.467-1.467-0.8-2.267-0.933-2.333-0.467-4.733 0.267-6.267 1.933-3-0.4-5.933 1.6-6.533 4.6-0.4 1.8 0.133 3.667 1.267 5 0 0 0 0 0 0s0 0 0 0l-2.2 14.2c-0.2 1.4 0.733 2.733 2.133 3.067l12.133 2.6c1.4 0.267 2.8-0.533 3.133-1.933l0.4-1.4 1.667 0.333c2.2 0.467 4.333-0.933 4.8-3.067l0.933-4.533c0.333-2.267-1.067-4.4-3.267-4.867zM4.4 26.733c0 0 0 0 0 0-0.6-0.133-0.933-0.6-0.867-1.133l1.4-9.267c0.133-0.733 0.733-0.933 1.2-0.867s0.867 0.533 0.8 1.067c-0.4 2.467-1.4 9.4-1.4 9.4-0.067 0.533-0.6 0.933-1.133 0.8zM10.133 26.933c-0.133 0.533-0.667 0.867-1.2 0.8-0.533-0.133-0.867-0.667-0.8-1.2 0 0 1.467-6.867 1.933-9.133 0.067-0.333 0.333-0.933 1.2-0.8 0.533 0.133 0.867 0.667 0.8 1.2l-1.933 9.133zM17.267 18.933l-2.533 9.067c-0.133 0.533-0.667 0.8-1.2 0.733 0 0-0.067 0-0.067 0-0.533-0.133-0.867-0.733-0.667-1.2l2.533-9.067c0.133-0.533 0.667-0.867 1.267-0.667 0.467 0.067 0.8 0.6 0.667 1.133zM17.333 14.933c-0.8-0.2-1.533-0.6-2.133-1.133-0.667 0.8-1.733 1.267-2.867 1-0.533-0.133-0.933-0.333-1.267-0.667-0.667 0.667-1.667 1-2.667 0.733-1.4-0.333-2.4-1.6-2.333-3 0 0 0 0-0.067 0-2.067-0.467-3.4-2.533-3-4.6 0.467-2.067 2.533-3.4 4.6-3 0.267 0.067 0.533 0.133 0.8 0.267 1-1.733 3-2.733 5.067-2.267 0.867 0.2 1.667 0.6 2.267 1.2 0.533-0.267 1.067-0.333 1.667-0.2 1.4 0.333 2.333 1.667 2.067 3.067 2.133 0.667 3.467 2.867 3 5.133-0.4 2.4-2.733 3.933-5.133 3.467zM21.8 25.067c-0.133 0.733-0.867 1.2-1.6 1.067l-1.467-0.333 1.933-7.133 1.067 0.2c0.733 0.133 1.2 0.867 1.067 1.6l-1 4.6z"></path>
</svg>
