<!-- Generated by IcoMoon.io -->
<svg version="1.1" xmlns="http://www.w3.org/2000/svg" width="30" height="32" viewBox="0 0 30 32">
<title>rc-comment</title>
<path d="M5.948 30.956c-0.876-0.006-1.589-0.726-1.592-1.609l-0.025-6.796 4.147 0.016 2.231 6.899c0.273 0.843-0.239 1.521-1.093 1.515l-3.667-0.025zM27.263 23.601c2.012-1.141 3.099-4.232 3.099-7.536 0-3.256-1.056-6.305-3.012-7.485l-0.087 15.021zM4.653 20.849l-1.6 0.009c-0.879 0.005-1.591-0.692-1.59-1.596l0.008-7.994c0.001-0.887 0.718-1.601 1.604-1.597 0 0 0.663 0.004 1.642 0.008l-0.064 11.171zM6.253 20.832l6.689-0.108 10.146 7.729c1.388 1.057 2.544 0.497 2.554-1.274l0.139-24.079c0.010-1.776-1.147-2.375-2.585-1.351 0 0-6.967 4.886-10.397 7.848-0.095 0.082-3.69 0.091-6.482 0.086l-0.064 11.149z"></path>
</svg>
