<!-- Generated by IcoMoon.io -->
<svg version="1.1" xmlns="http://www.w3.org/2000/svg" width="32" height="32" viewBox="0 0 32 32">
<title>rc-circle-empty</title>
<path d="M27.36 4.64c-3.040-3.040-7.040-4.64-11.36-4.64s-8.32 1.6-11.36 4.64-4.64 7.040-4.64 11.36 1.6 8.32 4.64 11.36c3.040 3.040 7.040 4.64 11.36 4.64s8.32-1.6 11.36-4.64 4.64-7.040 4.64-11.36-1.6-8.32-4.64-11.36zM16 29.44c-7.36 0-13.44-6.080-13.44-13.44s6.080-13.44 13.44-13.44 13.44 6.080 13.44 13.44-6.080 13.44-13.44 13.44z"></path>
</svg>
