<!-- Generated by IcoMoon.io -->
<svg version="1.1" xmlns="http://www.w3.org/2000/svg" width="32" height="32" viewBox="0 0 32 32">
<title>rc-camera</title>
<path d="M8.476 6.4l1.124-2.768c0.173-0.432 0.692-0.778 1.211-0.778h9.946c0.432 0 1.038 0.346 1.211 0.778l1.124 2.768h6.314c0.951 0 1.73 0.778 1.73 1.73v19.027c0 0.951-0.778 1.73-1.73 1.73h-27.676c-0.951 0-1.73-0.778-1.73-1.73v-19.027c0-0.951 0.778-1.73 1.73-1.73h6.746zM15.568 25.427c4.67 0 8.389-3.719 8.389-8.303s-3.719-8.303-8.389-8.303-8.389 3.719-8.389 8.303 3.805 8.303 8.389 8.303zM15.568 21.795c-2.681 0-4.757-2.162-4.757-4.757s2.162-4.757 4.757-4.757 4.757 2.162 4.757 4.757-2.076 4.757-4.757 4.757z"></path>
</svg>
