<!-- Generated by IcoMoon.io -->
<svg version="1.1" xmlns="http://www.w3.org/2000/svg" width="31" height="32" viewBox="0 0 31 32">
<title>rc-c</title>
<path d="M29.788 24.541c-2.246 3.243-5.176 5.606-8.789 6.718-8.561 2.629-17.587-1.949-20.255-10.358-1.022-3.209-0.954-6.485-0.017-9.463 2.305-7.796 10.267-12.697 18.558-11.155 4.196 0.78 7.118 2.587 9.532 5.556 0 0 0.979 0.987-0.253 1.974l-6.037 4.296c-0.954 0.639-1.579-0.224-1.579-0.224-1.030-1.103-2.482-1.791-4.087-1.791-2.955 0-5.37 2.297-5.623 5.225-0.321 2.853 1.478 5.523 4.441 6.087 0.38 0.083 0.777 0.133 1.182 0.133 1.832 0 3.462-0.896 4.492-2.272 0 0 0.422-0.829 1.402-0.299l6.628 3.649c0 0 1.241 0.713 0.405 1.924z"></path>
</svg>
