<!-- Generated by IcoMoon.io -->
<svg version="1.1" xmlns="http://www.w3.org/2000/svg" width="32" height="32" viewBox="0 0 32 32">
<title>rc-circle-close</title>
<path d="M27.36 4.64c-3.040-3.040-7.040-4.64-11.36-4.64s-8.32 1.6-11.36 4.64-4.64 7.040-4.64 11.36 1.6 8.32 4.64 11.36c3.040 3.040 7.040 4.64 11.36 4.64s8.32-1.6 11.36-4.64 4.64-7.040 4.64-11.36-1.6-8.32-4.64-11.36zM16 29.44c-7.36 0-13.44-6.080-13.44-13.44s6.080-13.44 13.44-13.44 13.44 6.080 13.44 13.44-6.080 13.44-13.44 13.44zM18.24 16l4.16-4.16c0.64-0.64 0.64-1.6 0-2.24s-1.6-0.64-2.24 0l-4.16 4.16-4.16-4.16c-0.64-0.64-1.6-0.64-2.24 0s-0.64 1.6 0 2.24l4.16 4.16-4.16 4.16c-0.64 0.64-0.64 1.6 0 2.24 0.32 0.32 0.64 0.48 1.12 0.48s0.8-0.16 1.12-0.48l4.16-4.16 4.16 4.16c0.32 0.32 0.64 0.48 1.12 0.48s0.8-0.16 1.12-0.48c0.64-0.64 0.64-1.6 0-2.24l-4.16-4.16z"></path>
</svg>
