<!-- Generated by IcoMoon.io -->
<svg version="1.1" xmlns="http://www.w3.org/2000/svg" width="32" height="32" viewBox="0 0 32 32">
<title>rc-circle-exclamation</title>
<path d="M27.307 4.693c-2.987-2.987-7.040-4.693-11.307-4.693s-8.32 1.707-11.307 4.693-4.693 7.040-4.693 11.307 1.707 8.32 4.693 11.307c2.987 2.987 7.040 4.693 11.307 4.693s8.32-1.707 11.307-4.693 4.693-7.040 4.693-11.307-1.707-8.32-4.693-11.307zM16 29.44c-7.467 0-13.44-5.973-13.44-13.44s5.973-13.44 13.44-13.44 13.44 5.973 13.44 13.44-5.973 13.44-13.44 13.44zM17.92 10.88v-4.48h-2.773v4.48l0.427 7.68h1.92l0.427-7.68zM16.64 20.907c-1.067 0-1.707 0.64-1.707 1.707s0.64 1.707 1.707 1.707c0.853 0 1.707-0.64 1.707-1.707-0.213-1.067-0.853-1.707-1.707-1.707z"></path>
</svg>
