<!-- Generated by IcoMoon.io -->
<svg version="1.1" xmlns="http://www.w3.org/2000/svg" width="38" height="32" viewBox="0 0 38 32">
<title>rc-calendar-2</title>
<path d="M36.978 3.674v8.178h-36.030v-8.178h3.911v4.148c0 1.422 1.067 2.489 2.489 2.489s2.489-1.067 2.489-2.489v-4.148h2.726v4.148c0 1.422 1.067 2.489 2.489 2.489s2.489-1.067 2.489-2.489v-4.148h2.726v4.148c0 1.422 1.067 2.489 2.489 2.489s2.489-1.067 2.489-2.489v-4.148h2.726v4.148c0 1.422 1.067 2.489 2.489 2.489s2.489-1.067 2.489-2.489v-4.148h4.030zM0.948 31.407h35.911v-16.711h-35.911v16.711zM6.163 1.896v5.926c0 0.711 0.593 1.304 1.304 1.304v0c0.711 0 1.304-0.593 1.304-1.304v-5.926c0-0.711-0.593-1.304-1.304-1.304v0c-0.711 0-1.304 0.593-1.304 1.304zM13.867 1.896v5.926c0 0.711 0.593 1.304 1.304 1.304v0c0.711 0 1.304-0.593 1.304-1.304v-5.926c0-0.711-0.593-1.304-1.304-1.304v0c-0.711 0-1.304 0.593-1.304 1.304zM21.57 1.896v5.926c0 0.711 0.593 1.304 1.304 1.304v0c0.711 0 1.304-0.593 1.304-1.304v-5.926c0-0.711-0.593-1.304-1.304-1.304v0c-0.711 0-1.304 0.593-1.304 1.304zM29.274 1.896v5.926c0 0.711 0.593 1.304 1.304 1.304v0c0.711 0 1.304-0.593 1.304-1.304v-5.926c0-0.711-0.593-1.304-1.304-1.304v0c-0.711 0-1.304 0.593-1.304 1.304z"></path>
</svg>
