<!-- Generated by IcoMoon.io -->
<svg version="1.1" xmlns="http://www.w3.org/2000/svg" width="41" height="32" viewBox="0 0 41 32">
<title>rc-cash</title>
<path d="M30.563 12.408c-0.914 1.763-2.743 3.004-4.833 3.004s-3.918-1.241-4.833-3.004h-20.898v18.939h30.825c-1.045-1.241-1.633-2.808-1.633-4.506 0-3.331 2.351-6.139 5.42-6.792v-7.641h-4.049zM17.306 27.886c-3.265 0-5.943-2.678-5.943-6.008s2.678-6.008 5.943-6.008 5.943 2.678 5.943 6.008-2.678 6.008-5.943 6.008zM35.918 22.857c2.547 0 4.571 2.024 4.571 4.571s-2.025 4.571-4.571 4.571-4.571-2.024-4.571-4.571 2.025-4.571 4.571-4.571zM25.796 7.184c1.633 0 2.939 1.306 2.939 2.939s-1.306 2.939-2.939 2.939-2.939-1.306-2.939-2.939 1.306-2.939 2.939-2.939zM6.465 0l-1.894 10.253h15.673c0-2.939 2.416-5.355 5.42-5.355s5.42 2.416 5.42 5.355h5.943v9.796c0.327 0.065 0.588 0.131 0.849 0.196l2.612-14.171-34.025-6.073z"></path>
</svg>
