<!-- Generated by IcoMoon.io -->
<svg version="1.1" xmlns="http://www.w3.org/2000/svg" width="32" height="32" viewBox="0 0 32 32">
<title>rc-circle-question</title>
<path d="M27.307 4.693c-2.987-2.987-7.040-4.693-11.307-4.693s-8.32 1.707-11.307 4.693-4.693 7.040-4.693 11.307 1.707 8.32 4.693 11.307c2.987 2.987 7.040 4.693 11.307 4.693s8.32-1.707 11.307-4.693 4.693-7.040 4.693-11.307-1.707-8.32-4.693-11.307zM16 29.44c-7.467 0-13.44-5.973-13.44-13.44s5.973-13.44 13.44-13.44 13.44 5.973 13.44 13.44-5.973 13.44-13.44 13.44zM12.8 12.8c0-1.493 1.067-2.347 2.56-2.347s2.347 0.64 2.347 1.92c0 2.773-3.2 2.773-3.2 6.613h2.133c0-3.2 3.627-3.413 3.627-7.040 0-2.56-1.92-3.84-4.693-3.84s-4.693 1.707-4.693 4.693h1.92zM15.573 21.547c-0.853 0-1.493 0.64-1.493 1.493s0.64 1.493 1.493 1.493c0.853 0 1.493-0.64 1.493-1.493s-0.64-1.493-1.493-1.493z"></path>
</svg>
