<!-- Generated by IcoMoon.io -->
<svg version="1.1" xmlns="http://www.w3.org/2000/svg" width="24" height="32" viewBox="0 0 24 32">
<title>rc-coach-small</title>
<path d="M7.7 14.955c-4.495 1.671-7.7 6.019-7.7 11.119h5.895v4.741c0 0.961 1.278 1.185 2.358 1.185h7.074c1.080 0 2.571-0.473 2.571-1.433l-0.168-4.493h5.85c0-5.1-3.205-9.448-7.7-11.119l-2.733 5.74c0.68 0.43 1.17 1.238 1.17 2.032v-0.081c0 0.981-0.789 1.776-1.767 1.776h-1.518c-0.976 0-1.767-0.787-1.767-1.776v0.081c0-0.788 0.49-1.6 1.171-2.032v0l-2.734-5.741zM10.026 14.354c0.575-0.087 1.164-0.132 1.764-0.132s1.188 0.045 1.764 0.132l-1.764 3.704-1.764-3.704zM17.897 6.095c0-3.363-2.711-6.088-6.056-6.088s-6.056 2.726-6.056 6.088c0 3.363 2.711 6.088 6.056 6.088s6.056-2.726 6.056-6.088z"></path>
</svg>
