<!-- Generated by IcoMoon.io -->
<svg version="1.1" xmlns="http://www.w3.org/2000/svg" width="34" height="32" viewBox="0 0 34 32">
<title>rc-chat</title>
<path d="M16.552 0.277c-9.126 0-16.552 6.682-16.552 14.895 0 2.872 0.907 5.653 2.632 8.056-0.328 3.608-1.201 6.287-2.47 7.554-0.101 0.1-0.163 0.238-0.163 0.391 0 0.305 0.247 0.552 0.552 0.552 0.028 0 0.055-0.002 0.081-0.006l-0.003 0c0.224-0.032 5.414-0.779 9.167-2.946 1.982 0.819 4.284 1.295 6.696 1.295 0.022 0 0.043-0 0.065-0h-0.003c9.126 0 16.55-6.682 16.55-14.897 0-8.213-7.424-14.895-16.552-14.895zM11.232 16.691c-0.84-0.001-1.52-0.681-1.52-1.521s0.681-1.521 1.521-1.521c0 0 0.001 0 0.001 0h-0c0.84 0.001 1.521 0.682 1.521 1.522s-0.681 1.522-1.522 1.522c-0 0-0.001 0-0.001 0h0zM16.552 16.691c-0.839-0.001-1.519-0.682-1.519-1.521s0.681-1.521 1.521-1.521c0.001 0 0.001 0 0.002 0h-0c0.84 0.001 1.52 0.682 1.52 1.522s-0.681 1.522-1.522 1.522c-0.001 0-0.001 0-0.002 0h0zM21.871 16.691c-0.839-0.001-1.519-0.682-1.519-1.521s0.681-1.521 1.521-1.521c0.001 0 0.001 0 0.002 0h-0c0.84 0.001 1.52 0.682 1.52 1.522s-0.681 1.522-1.522 1.522c-0.001 0-0.001 0-0.002 0h0z"></path>
</svg>
