<!-- Generated by IcoMoon.io -->
<svg version="1.1" xmlns="http://www.w3.org/2000/svg" width="34" height="32" viewBox="0 0 34 32">
<title>rc-cost</title>
<path d="M4.547 32c-2.511 0-4.547-1.744-4.547-4.267v-23.166c0-2.523 2.036-4.568 4.547-4.568h20.491c2.511 0 4.805 1.744 4.805 4.267h-23.444c-0.321 0-2.133-0.323-2.133 0v2.133c0 0.323 1.812 0 2.133 0h23.444c2.389 0.137 4.289 1.833 4.289 4.267v17.067c0 2.523-2.036 4.267-4.547 4.267h-25.039zM25.6 17.338c0-1.328-1.076-2.405-2.403-2.405h-1.594c-1.327 0-2.403 1.076-2.403 2.405v1.591c0 1.328 1.076 2.405 2.403 2.405h1.594c1.327 0 2.403-1.076 2.403-2.405v-1.591z"></path>
</svg>
