<!-- Generated by IcoMoon.io -->
<svg version="1.1" xmlns="http://www.w3.org/2000/svg" width="28" height="32" viewBox="0 0 28 32">
<title>rc-cup-hand</title>
<path d="M17.502 25.404c-2.22 1.175-4.441 1.894-6.139 1.763-0.065 0-0.131 0-0.131 0l-4.245 3.331c-0.065 0-0.131 0-0.196 0s-0.131-0.065-0.196-0.131l-2.678-5.29c-0.065-0.131 0-0.327 0.131-0.457 2.743-2.351 4.049-3.527 4.049-3.527l1.175-2.873c0.065-0.261 0.392-0.327 0.914-0.131 0.522 0.131 0.718 0.327 0.588 0.588l6.727-3.2c0.196-0.131 0.392-0.131 0.653-0.065s0.392 0.261 0.522 0.522c0.131 0.392-0.065 0.784-0.392 1.045l-3.657 1.894c-0.196 0.131-0.261 0.327-0.196 0.522 0.065 0.131 0.131 0.131 0.261 0.196 0.131 0 0.196 0 0.327 0l4.702-2.416c0.196-0.131 0.392-0.131 0.653-0.065s0.392 0.261 0.522 0.522c0.131 0.392-0.065 0.784-0.392 1.045l-4.702 2.416c-0.196 0.131-0.261 0.327-0.196 0.522 0.065 0.131 0.131 0.131 0.261 0.196 0.131 0 0.196 0 0.261 0l3.722-1.894c0.196-0.131 0.392-0.131 0.653-0.065s0.392 0.261 0.522 0.522c0.131 0.392-0.065 0.784-0.392 1.045l-3.657 1.894c-0.196 0.131-0.261 0.327-0.196 0.522 0.065 0.131 0.131 0.131 0.196 0.196 0.065 0 0.196 0 0.261 0l2.286-1.175c0.196-0.131 0.457-0.131 0.653-0.065 0.131 0.065 0.327 0.131 0.392 0.327 0.261 0.392 0.131 0.914-0.327 1.175l-2.743 1.11zM21.943 23.771l-0.261-1.371c-0.065-0.327-0.261-0.588-0.522-0.718-0.131 0.131-0.261 0.261-0.457 0.327l-0.196 0.131c0.196 0.131 0.327 0.261 0.457 0.457 0.261 0.392 0.327 0.849 0.196 1.306s-0.392 0.784-0.784 1.045l-0.718 0.392 0.392 2.024-4.18 0.784-0.196-0.914c-1.502 0.653-2.808 0.914-3.984 0.914l0.522 2.873 12.147-2.351-0.98-5.029-1.437 0.131zM27.167 6.335l-0.784-4.114-5.159 1.045-0.522-2.482-15.151 2.939 0.522 2.482-5.159 1.045 0.784 4.114c0.653 3.004 3.396 4.898 6.269 4.375l0.653-0.131c0.392 0.588 0.914 1.176 1.502 1.633 0.131 0.065 0.196 0.131 0.327 0.131 0.327 0.065 0.522 0.196 0.718 0.327l6.073-2.873c0.327-0.196 0.784-0.196 1.175-0.065 0.457 0.196 0.784 0.522 0.98 0.98 0.131 0.196 0.131 0.457 0.131 0.653 0.327-0.131 0.718-0.131 1.045 0 0 0 0.065 0.065 0.131 0.065 0.784-0.98 1.437-2.155 1.698-3.461l0.653-0.131c2.873-0.522 4.702-3.396 4.114-6.531zM4.31 10.971l-0.261-1.371 2.547-0.522 0.653 3.527c0.065 0.196 0.065 0.392 0.131 0.522-1.437 0.261-2.808-0.718-3.069-2.155zM17.894 8.882l-1.306 1.633 0.914 1.959c0.196 0.327-0.131 0.718-0.522 0.588l-1.959-0.784-1.502 1.437c-0.261 0.261-0.718 0-0.718-0.392l0.131-2.155-1.829-1.045c-0.392-0.196-0.327-0.718 0.065-0.849l2.024-0.522 0.392-2.090c0.065-0.392 0.588-0.457 0.784-0.131l1.175 1.763 2.025-0.261c0.392-0.065 0.653 0.392 0.327 0.849zM22.465 10.253c0-0.196-0.065-0.327-0.065-0.522l-0.653-3.527 2.547-0.522 0.261 1.371c0.327 1.437-0.588 2.808-2.090 3.2z"></path>
</svg>
