<!-- Generated by IcoMoon.io -->
<svg version="1.1" xmlns="http://www.w3.org/2000/svg" width="38" height="32" viewBox="0 0 38 32">
<title>rc-calendar</title>
<path d="M12.8 6.705c0 1.016-0.948 1.829-2.133 1.829s-2.133-0.813-2.133-1.829v-4.876c0-1.016 0.948-1.829 2.133-1.829s2.133 0.813 2.133 1.829v4.876zM29.867 1.829c0-1.016-0.948-1.829-2.133-1.829s-2.133 0.813-2.133 1.829v4.876c0 1.016 0.948 1.829 2.133 1.829s2.133-0.813 2.133-1.829v-4.876zM38.4 6.4v23.507c0 1.153-0.939 2.093-2.133 2.093h-34.133c-1.195 0-2.133-0.94-2.133-2.093v-23.507c0-1.153 0.939-2.133 2.133-2.133h4.267v2.133c0 1.837 1.067 4.267 4.267 4.267s4.267-2.473 4.267-4.267v-2.133h8.533v2.133c0 1.837 1.067 4.267 4.267 4.267s4.267-2.473 4.267-4.267v-2.133h4.267c1.152 0 2.133 1.372 2.133 2.525v-0.392zM34.133 15.42c0-0.256-0.363-0.486-0.807-0.486h-28.252c-0.444 0-0.807 0.205-0.807 0.486v11.827c0 0.256 0.363 0.486 0.807 0.486h28.252c0.444 0 0.807-0.205 0.807-0.486v-11.827z"></path>
</svg>
