<!-- Generated by IcoMoon.io -->
<svg version="1.1" xmlns="http://www.w3.org/2000/svg" width="84" height="32" viewBox="0 0 84 32">
<title>rc-drag-points</title>
<path d="M84 6c0 3.2-2.8 6-6 6s-6-2.8-6-6 2.8-6 6-6 6 2.8 6 6zM60 6c0 3.2-2.8 6-6 6s-6-2.8-6-6 2.8-6 6-6 6 2.8 6 6zM84 26c0 3.2-2.8 6-6 6s-6-2.8-6-6 2.8-6 6-6 6 2.8 6 6zM60 26c0 3.2-2.8 6-6 6s-6-2.8-6-6 2.8-6 6-6 6 2.8 6 6zM36 6c0 3.2-2.8 6-6 6s-6-2.8-6-6 2.8-6 6-6 6 2.8 6 6zM36 26c0 3.2-2.8 6-6 6s-6-2.8-6-6 2.8-6 6-6 6 2.8 6 6zM12 6c0 3.2-2.8 6-6 6s-6-2.8-6-6 2.8-6 6-6 6 2.8 6 6zM12 26c0 3.2-2.8 6-6 6s-6-2.8-6-6 2.8-6 6-6 6 2.8 6 6z"></path>
</svg>
