<!-- Generated by IcoMoon.io -->
<svg version="1.1" xmlns="http://www.w3.org/2000/svg" width="30" height="32" viewBox="0 0 30 32">
<title>rc-download</title>
<path d="M27.859 22.024c-0.753 0-1.318 0.565-1.318 1.318v4.329c0 0.941-0.753 1.694-1.694 1.694h-20.518c-0.941 0-1.694-0.753-1.694-1.694v-4.329c0-0.753-0.565-1.318-1.318-1.318s-1.318 0.565-1.318 1.318v4.329c0 2.447 1.882 4.329 4.329 4.329h20.518c2.259 0 4.141-1.882 4.141-4.141v-4.329c0.188-0.941-0.565-1.506-1.129-1.506zM13.741 22.776c0.188 0.188 0.188 0.188 0.376 0.188s0.376 0.188 0.565 0.188c0 0 0 0 0 0v0 0c0.188 0 0.376 0 0.565-0.188 0.188 0 0.376-0.188 0.376-0.188v0l5.647-5.835c0.565-0.565 0.565-1.318 0-1.882s-1.318-0.565-1.882 0l-3.765 3.765v-17.506c0.188-0.753-0.376-1.318-1.129-1.318s-1.318 0.565-1.318 1.318v17.506l-3.765-3.765c-0.565-0.565-1.318-0.565-1.882 0s-0.565 1.318 0 1.882l6.212 5.835z"></path>
</svg>
