<!-- Generated by IcoMoon.io -->
<svg version="1.1" xmlns="http://www.w3.org/2000/svg" width="60" height="32" viewBox="0 0 60 32">
<title>rc-double-flag</title>
<path d="M23.467 16c0 0-1.707-0.64-4.267 1.067-3.627 2.347-2.347 5.76-5.547 8.107-2.987 2.133-4.267 1.28-4.267 1.28-1.067 0-2.133-0.853-2.56-1.707l-5.76-9.813c-0.427-0.853 0-1.493 1.067-1.493 0 0 1.707 0.64 4.267-1.067 3.627-2.347 2.347-5.76 5.547-8.107 2.987-2.133 4.267-1.28 4.267-1.28 1.067 0 2.133 0.853 2.56 1.707l5.547 9.813c0.427 0.853 0 1.493-0.853 1.493zM41.173 2.773l-1.707-1.28-9.173 15.787-8.96-15.787-1.707 1.067 9.387 16.853-5.76 9.813 1.707 1.28 5.12-8.96 5.12 9.173 1.92-1.28-5.547-10.027 9.6-16.64zM58.24 14.080c0 0-1.707 0.427-4.267-1.067-3.413-2.347-2.347-5.973-5.547-8.107-2.987-2.133-4.053-1.493-4.053-1.493-1.067 0-2.133 0.853-2.56 1.707l-5.76 9.6c-0.427 0.853-0.213 1.493 0.853 1.493 0 0 1.707-0.427 4.267 1.067 3.413 2.347 2.347 5.973 5.547 8.107 2.987 2.133 4.053 1.493 4.053 1.493 1.067 0 2.133-0.853 2.56-1.707l5.76-9.6c0.427-0.853 0-1.493-0.853-1.493z"></path>
</svg>
