<!-- Generated by IcoMoon.io -->
<svg version="1.1" xmlns="http://www.w3.org/2000/svg" width="40" height="32" viewBox="0 0 40 32">
<title>rc-drag-and-drop</title>
<path d="M11.13 15.374c2.157 0 3.896-1.739 3.896-3.896s-1.739-3.896-3.896-3.896-3.896 1.739-3.896 3.896 1.739 3.896 3.896 3.896zM11.13 9.043c1.391 0 2.504 1.113 2.504 2.504s-1.113 2.435-2.504 2.435-2.504-1.113-2.504-2.504 1.113-2.435 2.504-2.435zM4.87 27.826c0.139 0 0.348-0.070 0.487-0.139l11.339-10.017 7.165 7.165c0.278 0.278 0.696 0.278 0.974 0s0.278-0.696 0-0.974l-3.339-3.339 6.4-7.026 7.861 7.165c0.278 0.278 0.696 0.209 0.974-0.070s0.209-0.696-0.070-0.974l-8.348-7.652c-0.139-0.070-0.348-0.139-0.487-0.139-0.209 0-0.348 0.070-0.487 0.209l-6.817 7.443-3.27-3.27c-0.278-0.278-0.696-0.278-0.974 0l-11.826 10.435c-0.278 0.278-0.348 0.696-0.070 0.974 0.070 0.139 0.278 0.209 0.487 0.209zM39.652 32h-38.957c-0.417 0-0.696-0.278-0.696-0.696v-30.609c0-0.417 0.278-0.696 0.696-0.696h38.957c0.417 0 0.696 0.278 0.696 0.696v30.609c0 0.417-0.278 0.696-0.696 0.696zM1.391 30.609h37.565v-29.217h-37.565v29.217z"></path>
</svg>
