<!-- Generated by IcoMoon.io -->
<svg version="1.1" xmlns="http://www.w3.org/2000/svg" width="56" height="32" viewBox="0 0 56 32">
<title>rc-event-like</title>
<path d="M15.158 26.935c0 0.941 0.756 1.697 1.688 1.697h33.676c0.948 0 1.688-0.76 1.688-1.697v-21.87c0-0.941-0.756-1.697-1.688-1.697h-33.676c-0.948 0-1.688 0.76-1.688 1.697v21.87zM11.789 5.065c0-2.794 2.245-5.065 5.057-5.065h33.676c2.797 0 5.057 2.268 5.057 5.065v21.87c0 2.794-2.245 5.065-5.057 5.065h-33.676c-2.797 0-5.057-2.268-5.057-5.065v-21.87zM22.316 20.211c1.163 0 2.105 0.943 2.105 2.105s-0.943 2.105-2.105 2.105c-1.163 0-2.105-0.943-2.105-2.105s0.943-2.105 2.105-2.105zM22.316 13.474c1.163 0 2.105 0.943 2.105 2.105s-0.943 2.105-2.105 2.105c-1.163 0-2.105-0.943-2.105-2.105s0.943-2.105 2.105-2.105zM22.316 6.737c1.163 0 2.105 0.943 2.105 2.105s-0.943 2.105-2.105 2.105c-1.163 0-2.105-0.943-2.105-2.105s0.943-2.105 2.105-2.105zM39.579 20.99l-4.684 2.589 0.895-5.484-3.789-3.884 5.237-0.8 2.342-4.99 2.342 4.99 5.237 0.8-3.789 3.884 0.895 5.484zM8.421 18.526h1.684v-3.368h-10.105v3.368h1.684zM3.368 20.211v1.684h3.368v-10.105h-3.368v1.684z"></path>
</svg>
