<!-- Generated by IcoMoon.io -->
<svg version="1.1" xmlns="http://www.w3.org/2000/svg" width="32" height="32" viewBox="0 0 32 32">
<title>rc-email-sending</title>
<path d="M31.445 24.097c0.009 0 0.028-0.009 0.037-0.009s0.018-0.009 0.028-0.009c0.009 0 0.018-0.009 0.037-0.009 0.009 0 0.018-0.009 0.028-0.009s0.018-0.009 0.028-0.018c0.009-0.009 0.018-0.009 0.028-0.018s0.018-0.009 0.028-0.018c0.009-0.009 0.018-0.009 0.028-0.018s0.018-0.018 0.028-0.018c0.009-0.009 0.018-0.009 0.028-0.018 0.018-0.009 0.028-0.028 0.046-0.037 0 0 0.009 0 0.009-0.009 0 0 0.009-0.009 0.009-0.009 0.009-0.009 0.028-0.028 0.037-0.046 0.009-0.009 0.009-0.018 0.018-0.028s0.018-0.018 0.018-0.028c0.009-0.009 0.009-0.018 0.018-0.028s0.009-0.018 0.018-0.028c0.009-0.009 0.009-0.018 0.018-0.037 0-0.009 0.009-0.018 0.009-0.028s0.009-0.018 0.009-0.028c0-0.009 0.009-0.018 0.009-0.028s0.009-0.018 0.009-0.037c0-0.009 0.009-0.018 0.009-0.037 0-0.009 0-0.028 0.009-0.037 0-0.009 0-0.018 0-0.028 0-0.018 0-0.046 0-0.065v-14.825c0-0.379-0.315-0.694-0.694-0.694h-21.848c-0.009 0-0.009 0-0.018 0s-0.028 0-0.037 0c-0.009 0-0.018 0-0.028 0s-0.028 0-0.037 0.009c-0.009 0-0.018 0-0.037 0.009-0.009 0-0.018 0.009-0.037 0.009-0.009 0-0.018 0.009-0.028 0.009s-0.018 0.009-0.028 0.009c-0.009 0-0.018 0.009-0.028 0.009-0.009 0.009-0.018 0.009-0.037 0.019-0.009 0.009-0.018 0.009-0.028 0.019s-0.018 0.009-0.028 0.018c-0.009 0.009-0.018 0.009-0.028 0.018s-0.018 0.018-0.028 0.018c-0.009 0.009-0.018 0.018-0.028 0.018-0.009 0.009-0.018 0.018-0.028 0.018-0.009 0.009-0.018 0.018-0.028 0.028 0 0.009-0.009 0.009-0.009 0.009s0 0.009-0.009 0.009-0.018 0.018-0.028 0.028c-0.009 0.009-0.009 0.018-0.018 0.028s-0.018 0.018-0.018 0.028c-0.009 0.009-0.009 0.018-0.018 0.028s-0.009 0.018-0.018 0.028c-0.009 0.009-0.009 0.018-0.018 0.028 0 0.009-0.009 0.018-0.009 0.028s-0.009 0.018-0.009 0.028c0 0.009-0.009 0.018-0.009 0.028s-0.009 0.018-0.009 0.037c0 0.009 0 0.018-0.009 0.028 0 0.009 0 0.028-0.009 0.037 0 0.009 0 0.018 0 0.028s0 0.028 0 0.037c0 0 0 0.009 0 0.009v4.312c0 0.379 0.315 0.694 0.694 0.694s0.694-0.315 0.694-0.694v-2.739l6.172 5.46c-0.028 0.018-0.065 0.046-0.093 0.074l-6.071 6.089v-4.562c0-0.379-0.315-0.694-0.694-0.694s-0.694 0.315-0.694 0.694v0.851h-3.591c-0.379 0-0.694 0.315-0.694 0.694s0.315 0.694 0.694 0.694h3.591v3.998c0 0.379 0.315 0.694 0.694 0.694h21.858c0.018 0 0.046 0 0.065 0 0.009 0 0.018 0 0.028 0 0.018-0.009 0.037-0.009 0.046-0.018zM30.612 21.747l-6.080-6.080c0 0-0.009-0.009-0.009-0.009l4.571-3.877c0.296-0.25 0.324-0.685 0.083-0.981-0.25-0.296-0.685-0.324-0.981-0.083l-7.81 6.626-9.106-8.069h19.341l-0.009 12.474zM17.203 16.648c0.046-0.046 0.093-0.102 0.12-0.167l2.6 2.295c0.13 0.12 0.296 0.176 0.463 0.176 0.157 0 0.324-0.056 0.453-0.167l2.647-2.249c0.028 0.037 0.056 0.065 0.083 0.102l6.080 6.080h-18.508l6.061-6.071zM0.694 15.796h11.725c0.379 0 0.694-0.315 0.694-0.694s-0.315-0.694-0.694-0.694h-11.725c-0.379 0-0.694 0.315-0.694 0.694s0.315 0.694 0.694 0.694zM1.906 11.965h5.265c0.379 0 0.694-0.315 0.694-0.694s-0.315-0.694-0.694-0.694h-5.265c-0.379 0-0.694 0.315-0.694 0.694s0.315 0.694 0.694 0.694z"></path>
</svg>
