<!-- Generated by IcoMoon.io -->
<svg version="1.1" xmlns="http://www.w3.org/2000/svg" width="32" height="32" viewBox="0 0 32 32">
<title>rc-edit-2</title>
<path d="M28.308 8.615l-1.969 1.969-4.923-4.923 1.969-1.969c0.492-0.492 1.231-0.492 1.477 0l3.446 3.446c0.492 0.492 0.492 1.231 0 1.477zM11.569 25.354l-4.923-4.923 12.8-13.046 4.923 4.923-12.8 13.046zM5.415 22.892l3.692 3.692-5.169 1.477 1.477-5.169zM30.031 5.415l-3.446-3.446c-0.738-0.738-3.2-1.969-5.169 0l-17.723 17.723c-0.246 0.246-0.246 0.246-0.246 0.492l-2.708 9.354c-0.246 0.492 0 0.985 0.246 1.231s0.985 0.492 1.231 0.246l9.354-2.708c0.246 0 0.492-0.246 0.492-0.246l17.477-17.723c1.969-1.231 1.969-3.446 0.492-4.923v0z"></path>
</svg>
