<!-- Generated by IcoMoon.io -->
<svg version="1.1" xmlns="http://www.w3.org/2000/svg" width="35" height="32" viewBox="0 0 35 32">
<title>rc-filter-v2</title>
<path d="M31.982 5.517c1.325 0 2.4-1.075 2.4-2.4s-1.075-2.4-2.4-2.4v0h-29.315c-1.325 0-2.4 1.075-2.4 2.4s1.075 2.4 2.4 2.4v0h29.317zM31.982 18.333c1.325 0 2.4-1.075 2.4-2.4s-1.075-2.4-2.4-2.4v0h-18.040c-1.325 0-2.4 1.075-2.4 2.4s1.075 2.4 2.4 2.4v0h18.042zM31.982 31.149c1.325 0 2.4-1.075 2.4-2.4s-1.075-2.4-2.4-2.4v0h-8.899c-1.325 0-2.4 1.075-2.4 2.4s1.075 2.4 2.4 2.4v0h8.899z"></path>
</svg>
