<!-- Generated by IcoMoon.io -->
<svg version="1.1" xmlns="http://www.w3.org/2000/svg" width="33" height="32" viewBox="0 0 33 32">
<title>rc-filter</title>
<path d="M18.972 30c-0.692 1.196-1.984 2-3.465 2s-2.773-0.804-3.465-2h-10.040c-1.106 0-2.002-0.888-2.002-2 0-1.105 0.889-2 2.002-2h10.040c0.692-1.196 1.984-2 3.465-2s2.773 0.804 3.465 2h11.619c1.106 0 2.002 0.888 2.002 2 0 1.105-0.889 2-2.002 2h-11.619zM28.965 18c-0.692 1.196-1.984 2-3.465 2s-2.773-0.804-3.465-2h-20.033c-1.106 0-2.002-0.888-2.002-2 0-1.105 0.889-2 2.002-2h20.033c0.692-1.196 1.984-2 3.465-2s2.773 0.804 3.465 2h1.626c1.106 0 2.002 0.888 2.002 2 0 1.105-0.889 2-2.002 2h-1.626zM9.972 6c-0.692 1.196-1.986 2-3.468 2s-2.776-0.804-3.468-2h-1.034c-1.106 0-2.002-0.888-2.002-2 0-1.105 0.889-2 2.002-2h1.034c0.692-1.196 1.986-2 3.468-2s2.776 0.804 3.468 2h20.618c1.106 0 2.002 0.888 2.002 2 0 1.105-0.889 2-2.002 2h-20.618z"></path>
</svg>
