<!-- Generated by IcoMoon.io -->
<svg version="1.1" xmlns="http://www.w3.org/2000/svg" width="34" height="32" viewBox="0 0 34 32">
<title>rc-filter-small</title>
<path d="M19.066 30.476c-0.696 0.93-1.807 1.531-3.059 1.531s-2.362-0.602-3.059-1.531h-10.673c-1.257 0-2.276-1.015-2.276-2.286 0-1.262 1.027-2.286 2.276-2.286h10.679c0.696-0.925 1.805-1.524 3.053-1.524s2.356 0.598 3.053 1.524h11.774c1.257 0 2.276 1.015 2.276 2.286 0 1.262-1.027 2.286-2.276 2.286h-11.768zM29.733 18.286c-0.696 0.93-1.807 1.531-3.059 1.531s-2.362-0.602-3.059-1.531h-21.34c-1.257 0-2.276-1.015-2.276-2.286 0-1.262 1.027-2.286 2.276-2.286h21.346c0.696-0.925 1.805-1.524 3.053-1.524s2.356 0.598 3.053 1.524h1.107c1.257 0 2.276 1.015 2.276 2.286 0 1.262-1.027 2.286-2.276 2.286h-1.101zM9.923 6.095c-0.696 0.93-1.807 1.531-3.059 1.531s-2.362-0.602-3.059-1.531h-1.53c-1.257 0-2.276-1.015-2.276-2.286 0-1.262 1.027-2.286 2.276-2.286h1.536c0.696-0.925 1.805-1.524 3.053-1.524s2.356 0.598 3.053 1.524h20.917c1.257 0 2.276 1.015 2.276 2.286 0 1.262-1.027 2.286-2.276 2.286h-20.911z"></path>
</svg>
