<!-- Generated by IcoMoon.io -->
<svg version="1.1" xmlns="http://www.w3.org/2000/svg" width="36" height="32" viewBox="0 0 36 32">
<title>rc-feed-comment</title>
<path d="M11.864 26.353l-4.57 5.184c-0.677 0.768-1.243 0.562-1.243-0.485v-4.699h-3.777c-1.033 0-1.87-0.847-1.87-1.895v-22.562c0-1.047 0.838-1.895 1.87-1.895h30.142c1.033 0 1.87 0.847 1.87 1.895v22.562c0 1.047-0.838 1.895-1.87 1.895h-20.552zM28.639 7.529h0.941v-1.882h-24.471v1.882h23.529zM28.639 13.176h0.941v-1.882h-24.471v1.882h23.529zM28.639 18.824h0.941v-1.882h-24.471v1.882h23.529z"></path>
</svg>
