<!-- Generated by IcoMoon.io -->
<svg version="1.1" xmlns="http://www.w3.org/2000/svg" width="43" height="32" viewBox="0 0 43 32">
<title>rc-flag</title>
<path d="M8 25.333l-1.333-18.933c0-1.6 0.8-3.467 1.867-4.533 0 0 1.067-2.133 6.933-2.133 5.867 0.267 7.467 6.133 14.4 6.133 4.533 0 6.667-2.4 6.667-2.4 1.067-0.8 2.133-0.533 2.133 1.067l1.333 18.933c0 1.6-0.8 3.467-1.867 4.533 0 0-1.067 2.133-6.933 2.133-5.867-0.533-7.467-6.133-14.4-6.133-4.533 0-6.667 2.4-6.667 2.4-1.067 0.8-2.133 0.533-2.133-1.067zM0 4.8h3.2l2.4 27.2h-3.467l-2.133-27.2z"></path>
</svg>
