<!-- Generated by IcoMoon.io -->
<svg version="1.1" xmlns="http://www.w3.org/2000/svg" width="32" height="32" viewBox="0 0 32 32">
<title>rc-gallery</title>
<path d="M10.64 20.56v-9.28c0-0.080 0-0.24 0-0.32l-2.64 0.88c-0.64 0.16-0.96 0.88-0.72 1.44l2.88 8.88c0.16 0.48 0.64 0.8 1.12 0.8 0.16 0 0.24 0 0.4-0.080l0.72-0.24c-0.96-0.16-1.76-1.040-1.76-2.080zM14.48 8.88v0 0zM12.56 19.2l2.88-8.88c0-0.080 0.080-0.16 0.080-0.24h-2.72c-0.64 0-1.2 0.56-1.2 1.2v9.36c0 0.64 0.56 1.2 1.2 1.2h0.96c-0.96-0.48-1.52-1.6-1.2-2.64zM24 11.84l-6.080-2c-0.16 0-0.24-0.080-0.4-0.080-0.48 0-0.96 0.32-1.12 0.8l-2.88 8.88c-0.24 0.64 0.16 1.28 0.8 1.52l6.080 2c0.16 0 0.24 0.080 0.4 0.080 0.48 0 0.96-0.32 1.12-0.8l2.88-8.88c0.16-0.64-0.24-1.36-0.8-1.52z"></path>
</svg>
