<!-- Generated by IcoMoon.io -->
<svg version="1.1" xmlns="http://www.w3.org/2000/svg" width="32" height="32" viewBox="0 0 32 32">
<title>rc-home</title>
<path d="M30.933 14.72c0.64-0.64 0.427-1.493-0.213-2.133l-13.867-12.16c-0.64-0.64-1.707-0.64-2.347 0l-14.080 12.8c-0.64 0.64-0.64 1.493 0 2.133l0.427 0.427c0.64 0.64 1.493 0.64 2.133 0.213l0.853-1.067v13.653c0 0.853 0.64 1.493 1.493 1.493h5.547c0.853 0 1.493-0.64 1.493-1.493v-9.6h7.040v9.6c0 0.853 0.64 1.493 1.493 1.493h5.76c0.853 0 1.493-0.64 1.493-1.493v-13.44c0 0 0.213 0.213 0.64 0.64 0.427 0.213 1.067 0 1.707-0.64l0.427-0.427z"></path>
</svg>
