<!-- Generated by IcoMoon.io -->
<svg version="1.1" xmlns="http://www.w3.org/2000/svg" width="32" height="32" viewBox="0 0 32 32">
<title>rc-help</title>
<path d="M16 0c-8.832 0-16 7.168-16 16s7.168 16 16 16 16-7.168 16-16-7.168-16-16-16zM16 1.28c2.112 0 4.16 0.448 5.952 1.28l-1.728 4.544c0 0 0 0 0 0-1.28-0.64-2.688-0.96-4.224-0.96-1.28 0-2.496 0.256-3.648 0.704l-1.792-4.544c1.728-0.64 3.52-1.024 5.44-1.024zM6.912 19.904l-4.544 1.728c-0.704-1.792-1.088-3.648-1.088-5.632s0.384-3.84 1.088-5.568l4.544 1.792c0 0 0 0 0 0-0.512 1.152-0.768 2.432-0.768 3.776 0 1.408 0.256 2.688 0.768 3.904 0 0 0 0 0 0zM7.424 16c0-4.736 3.84-8.576 8.576-8.576s8.576 3.84 8.576 8.576-3.84 8.576-8.576 8.576-8.576-3.84-8.576-8.576zM16 30.72c-1.92 0-3.712-0.384-5.376-1.024l1.792-4.544c1.152 0.448 2.368 0.704 3.648 0.704 1.536 0 2.944-0.384 4.224-0.96 0 0 0 0 0 0l1.728 4.544c3.392-1.536 6.080-4.224 7.552-7.68l-4.608-1.664c0 0 0 0 0 0 0.576-1.216 0.896-2.624 0.896-4.096 0-1.408-0.32-2.752-0.832-3.968 0 0 0 0 0 0l4.544-1.792c0.768 1.792 1.216 3.712 1.216 5.76-0.064 8.128-6.656 14.72-14.784 14.72z"></path>
</svg>
