<!-- Generated by IcoMoon.io -->
<svg version="1.1" xmlns="http://www.w3.org/2000/svg" width="32" height="32" viewBox="0 0 32 32">
<title>rc-instagram</title>
<path d="M16 0c4.267 0 4.907 0 6.613 0s2.773 0.427 3.84 0.64c1.067 0.427 1.92 0.853 2.773 1.92 0.853 0.853 1.493 1.707 1.92 2.773s0.64 2.133 0.64 3.84c0 1.707 0 2.347 0 6.613s0 4.907 0 6.613c0 1.707-0.427 2.773-0.64 3.84-0.427 1.067-0.853 1.92-1.92 2.773-0.853 0.853-1.707 1.493-2.773 1.92s-2.133 0.64-3.84 0.64c-1.707 0-2.347 0-6.613 0s-4.907 0-6.613 0c-1.707 0-2.773-0.427-3.84-0.64-1.067-0.427-1.92-0.853-2.773-1.92-0.853-0.853-1.493-1.707-1.92-2.773s-0.64-2.133-0.64-3.84c0-1.707 0-2.347 0-6.613s0-4.907 0-6.613c0-1.707 0.427-2.773 0.64-3.84 0.427-1.067 0.853-1.92 1.92-2.773 0.853-0.853 1.707-1.493 2.773-1.92s2.133-0.64 3.84-0.64c1.707 0 2.347 0 6.613 0zM16 2.987c-4.267 0-4.693 0-6.4 0-1.493 0-2.347 0.427-2.987 0.64-0.853 0.213-1.28 0.64-1.92 1.067s-0.853 1.067-1.067 1.92c-0.213 0.427-0.64 1.28-0.64 2.987s0 2.133 0 6.4 0 4.693 0 6.4c0 1.493 0.427 2.347 0.64 2.987 0.213 0.853 0.64 1.28 1.28 1.92s1.067 0.853 1.92 1.28c0.64 0.213 1.493 0.427 2.987 0.64 1.707 0 2.133 0 6.4 0s4.693 0 6.4 0c1.493 0 2.347-0.427 2.987-0.64 0.853-0.213 1.28-0.64 1.92-1.28s0.853-1.067 1.28-1.92c0.213-0.64 0.427-1.493 0.64-2.987 0-1.707 0-2.133 0-6.4s0-4.693 0-6.4c0-1.493-0.427-2.347-0.64-2.987-0.213-0.853-0.64-1.28-1.28-1.92s-1.067-0.853-1.92-1.28c-0.64-0.213-1.493-0.427-2.987-0.64-1.92 0.213-2.347 0.213-6.613 0.213zM16 7.68c4.48 0 8.32 3.627 8.32 8.32s-3.627 8.32-8.32 8.32-8.32-3.84-8.32-8.32 3.84-8.32 8.32-8.32zM16 21.333c2.987 0 5.333-2.347 5.333-5.333s-2.347-5.333-5.333-5.333-5.333 2.347-5.333 5.333 2.347 5.333 5.333 5.333zM26.453 7.467c0 1.067-0.853 1.92-1.92 1.92s-1.92-0.853-1.92-1.92 0.853-1.92 1.92-1.92c1.067 0 1.92 0.853 1.92 1.92z"></path>
</svg>
