<!-- Generated by IcoMoon.io -->
<svg version="1.1" xmlns="http://www.w3.org/2000/svg" width="35" height="32" viewBox="0 0 35 32">
<title>rc-key</title>
<path d="M27.596 0.704l-16.23 16.23c-2.428-2.281-6.148-2.329-8.406-0.073l-0.337 0.338c-2.303 2.304-2.207 6.131 0.213 8.554l3.574 3.575c2.423 2.421 6.249 2.516 8.554 0.214l0.337-0.338c2.256-2.258 2.209-5.977-0.072-8.405l9.696-9.696 3.541 3.541 1.838-1.838-2.576-2.576 1.837-1.837 2.576 2.576 1.838-1.838-3.542-3.542 1.021-1.021c1.015-1.015 0.973-2.702-0.094-3.769s-2.754-1.109-3.769-0.094v0zM12.212 26.013l-0.278 0.278c-0.738 0.735-1.96 0.704-2.736-0.069l-2.947-2.947c-0.773-0.775-0.803-1.998-0.069-2.736l0.278-0.278c0.737-0.735 1.961-0.704 2.736 0.068l2.947 2.947c0.773 0.775 0.803 1.998 0.068 2.736z"></path>
</svg>
