<!-- Generated by IcoMoon.io -->
<svg version="1.1" xmlns="http://www.w3.org/2000/svg" width="42" height="32" viewBox="0 0 42 32">
<title>rc-league-like</title>
<path d="M8 17.143h1.143v-2.286h-9.143v2.286h1.143zM3.429 19.429v1.143h2.286v-9.143h-2.286v1.143zM39.977 12.231v5.167l-25.161 4.171v-6.794l25.161-4.183v1.639zM27.95 28.631c-3.821 0-7.366-2.194-9.301-5.379l18.842-3.143c-0.886 4.946-4.753 8.522-9.542 8.522v0zM17.145 5.72l10.261-3.347 10.286 3.425v2.817l-20.546 3.427v-6.322zM39.977 8.234v-4.128l-12.487-4.106-12.656 4.103-0.023 8.329-2.24 0.374v11.461l3.674-0.614c2.211 4.278 6.755 7.264 11.704 7.264 6.208 0 11.131-4.808 11.909-11.202l2.405-0.401v-11.461l-2.286 0.382z"></path>
</svg>
