<!-- Generated by IcoMoon.io -->
<svg version="1.1" xmlns="http://www.w3.org/2000/svg" width="43" height="32" viewBox="0 0 43 32">
<title>rc-league-liked</title>
<path d="M39.974 16.697l-25.308 3.793v-5.777l25.333-3.769-0.025 5.753zM27.873 28.068c-3.841 0-7.392-2.255-9.228-5.477l18.513-2.775c-0.833 4.789-4.609 8.252-9.285 8.252v0zM17.333 6.038l10.101-3.244 9.899 3.232v2.623l-20 2.997v-5.608zM40 8.249v-4.16l-12.583-4.089-0.409 0.132-12.341 3.953v7.96l-2.667 0.4v11.141l3.849-0.577c2.121 4.523 6.853 7.725 12.024 7.725 6.313 0 11.315-4.876 12.029-11.331l2.739-0.409v-11.141l-2.641 0.396zM2.846 20.963l0.923 0.884 6.488-6.217-1.845-1.925-5.565 5.333h1.845l-2.435-2.333-1.845 1.925z"></path>
</svg>
