<!-- Generated by IcoMoon.io -->
<svg version="1.1" xmlns="http://www.w3.org/2000/svg" width="27" height="32" viewBox="0 0 27 32">
<title>rc-liked-indication-v2</title>
<path d="M20.036 4.852l-4.542 4.573 0.639 0.644c0.244 0.246 0.244 0.246 1.22 1.229 0.915 0.922 1.83 1.844 2.685 2.704 2.265 2.281 3.69 3.716 3.89 3.914 0.678 0.673 0.893 1.601 0.541 2.028l-2.666 2.654-6.562 6.519c-0.291 0.289-0.679 0.445-1.083 0.445-0.755 0-1.147-0.071-1.302-0.224l-10.543-10.616c-0.359-0.362-0.361-0.945-0.005-1.303l15.111-15.214c0.332-0.329 1.653-0.401 2.237 0.186 0.778 0.783 0.879 1.963 0.381 2.458zM16.126 0.915l-15.115 15.219c-1.066 1.073-1.061 2.807 0.005 3.88l10.55 10.622c0.637 0.629 1.347 0.757 2.593 0.757 0.882 0 1.734-0.343 2.371-0.976l6.564-6.521 2.727-2.721c1.12-1.351 0.669-3.291-0.603-4.554-0.195-0.194-1.626-1.635-3.879-3.904-0.857-0.863-1.772-1.785-2.687-2.706-0.976-0.983-0.976-0.983-1.22-1.229l-0 1.288 3.898-3.924c1.267-1.258 1.068-3.586-0.376-5.040-1.33-1.339-3.805-1.204-4.827-0.191zM11.771 21.814c1.287 1.277 3.37 1.277 4.657 0 1.292-1.28 1.292-3.36 0-4.643-0.053-0.055-0.174-0.179-0.344-0.353-0.282-0.289-0.597-0.612-0.937-0.959-0.972-0.992-1.95-1.984-2.871-2.91-0.075-0.075-0.075-0.075-0.15-0.151-0.966-0.97-1.808-1.805-2.49-2.466-0.362-0.352-0.941-0.343-1.293 0.019s-0.343 0.941 0.019 1.293c0.673 0.653 1.508 1.481 2.468 2.445 0.075 0.075 0.075 0.075 0.149 0.15 0.918 0.922 1.893 1.911 2.861 2.9 0.339 0.346 0.653 0.667 0.935 0.956 0.169 0.173 0.289 0.296 0.353 0.362 0.582 0.578 0.582 1.492 0.012 2.058-0.574 0.57-1.507 0.57-2.081 0l-4.115-4.085c-0.358-0.356-0.937-0.354-1.293 0.005s-0.354 0.937 0.005 1.293l4.115 4.085zM2.966 23.346c-0.367 0.426-0.342 1.154 0.055 1.554l4.572 4.604c0.39 0.393 1.107 0.42 1.529 0.055l2.008-1.736 0.094 0.094-0.084 2.315-0.1 0.087-8.861-8.861 0.089-0.103 2.309-0.086 0.096 0.096-1.707 1.981zM1.58 22.152l1.796-2.084 9.051 9.051-2.109 1.823c-1.151 0.995-2.957 0.924-4.023-0.15l-4.572-4.604c-1.071-1.078-1.132-2.887-0.143-4.036z"></path>
</svg>
