<!-- Generated by IcoMoon.io -->
<svg version="1.1" xmlns="http://www.w3.org/2000/svg" width="28" height="32" viewBox="0 0 28 32">
<title>rc-like</title>
<path d="M2.382 22.2c-1.041 1.173-1.005 2.997 0.107 4.126l2.716 2.753c1.108 1.125 2.897 1.166 4.054 0.121l-6.877-7.001zM8.487 10.119l-7.91 7.8 12.598 12.376c0.507 0.497 1.17 0.746 1.833 0.746s1.328-0.25 1.835-0.75l6.971-6.879 2.894-2.869c0.814-0.981 0.758-2.431-0.171-3.346-0.494-0.488-1.143-0.732-1.791-0.732-0.569 0-1.137 0.188-1.603 0.563l-0.162 0.161 0.004-0.006c0.813-0.935 0.971-2.346 0.193-3.309-0.511-0.633-1.249-0.95-1.988-0.95-0.648 0-1.297 0.243-1.791 0.732 0.989-0.975 0.989-2.556 0-3.531-0.495-0.488-1.143-0.732-1.791-0.732-0.649 0-1.297 0.243-1.791 0.732l5.743-5.664c0.913-0.9 1.136-2.351 0.381-3.385-0.525-0.718-1.321-1.077-2.117-1.077-0.665 0-1.328 0.249-1.835 0.749l-8.512 8.394 8.35 8.050c1.266 1.248 1.266 3.273 0 4.519-1.259 1.241-3.295 1.241-4.554 0l-1.201-1.184c-0.131 0.915-0.678 1.851-1.576 2.737l-0.607 0.598-0.977-0.991 0.607-0.598c1.35-1.331 1.558-2.495 0.553-3.486l-1.286-1.234 0.131-0.137-0.015-0.014 0.977-0.991 4.37 4.309c0.717 0.707 1.884 0.707 2.601-0 0.712-0.701 0.712-1.834 0.005-2.532l-8.37-8.069z"></path>
</svg>
