<!-- Generated by IcoMoon.io -->
<svg version="1.1" xmlns="http://www.w3.org/2000/svg" width="44" height="32" viewBox="0 0 44 32">
<title>rc-list</title>
<path d="M2.912 5.818c1.608 0 2.912-1.302 2.912-2.909s-1.304-2.909-2.912-2.909c-1.608 0-2.912 1.302-2.912 2.909s1.304 2.909 2.912 2.909zM2.912 18.909c1.608 0 2.912-1.302 2.912-2.909s-1.304-2.909-2.912-2.909c-1.608 0-2.912 1.302-2.912 2.909s1.304 2.909 2.912 2.909zM2.909 31.994c1.607 0 2.909-1.301 2.909-2.906s-1.302-2.906-2.909-2.906c-1.607 0-2.909 1.301-2.909 2.906s1.302 2.906 2.909 2.906zM10.964 2.909c0-1.607 1.301-2.909 2.899-2.909h26.873c1.601 0 2.899 1.291 2.899 2.909 0 1.607-1.301 2.909-2.899 2.909h-26.873c-1.601 0-2.899-1.291-2.899-2.909zM10.964 16c0-1.607 1.308-2.909 2.912-2.909h11.575c1.608 0 2.912 1.291 2.912 2.909 0 1.607-1.308 2.909-2.912 2.909h-11.575c-1.608 0-2.912-1.291-2.912-2.909zM10.964 29.091c0-1.607 1.296-2.909 2.896-2.909h20.335c1.599 0 2.896 1.291 2.896 2.909 0 1.607-1.296 2.909-2.896 2.909h-20.335c-1.599 0-2.896-1.291-2.896-2.909z"></path>
</svg>
