<!-- Generated by IcoMoon.io -->
<svg version="1.1" xmlns="http://www.w3.org/2000/svg" width="32" height="32" viewBox="0 0 32 32">
<title>rc-liked-indication</title>
<path d="M16 32c-8.837 0-16-7.163-16-16s7.163-16 16-16c8.837 0 16 7.163 16 16s-7.163 16-16 16zM19.219 14.956c-0.046-0.113-0.242-0.242-0.242-0.242 0.537-0.537 0.538-1.406 0.002-1.942s-1.405-0.534-1.942 0.002l-0.242-0.242c0.537-0.537 0.538-1.406 0.002-1.942s-1.405-0.534-1.942 0.002l-0.242-0.242c0.537-0.537 0.538-1.406 0.002-1.942s-1.405-0.534-1.942 0.002l-6.085 6.085c-2.072 2.072-2.076 5.458-0.009 7.524l1.333 1.333c2.067 2.067 5.453 2.063 7.524-0.009l10.52-10.52c0.638-0.638 0.639-1.67 0.003-2.306s-1.668-0.635-2.306 0.003l-4.435 4.435z"></path>
</svg>
