<!-- Generated by IcoMoon.io -->
<svg version="1.1" xmlns="http://www.w3.org/2000/svg" width="44" height="32" viewBox="0 0 44 32">
<title>rc-logout-v2</title>
<path d="M36.884 17.853h-23.074c-1.179 0-2.021-0.842-2.021-1.853s0.842-1.853 2.021-1.853h23.242l-2.526-2.526c-0.842-0.674-0.842-2.021 0-2.695s2.021-0.674 2.863 0l6.063 5.726c0 0 0.168 0.168 0.168 0.168s0 0 0 0 0 0 0.168 0.168c0 0 0 0 0 0s0 0 0 0.168c0 0 0 0 0 0s0 0.168 0 0.168c0 0 0 0 0 0s0 0.168 0 0.168c0 0 0 0 0 0s0 0.168 0 0.168c0 0 0 0 0 0s0 0.168 0 0.168c0 0 0 0.168 0 0.168s0 0.168 0 0.168c0 0 0 0.168 0 0.168s0 0 0 0 0 0.168 0 0.168c0 0 0 0 0 0s0 0.168 0 0.168c0 0 0 0 0 0s0 0.168 0 0.168c0 0 0 0 0 0s0 0.168 0 0.168c0 0 0 0 0 0s0 0-0.168 0.168c0 0 0 0 0 0s-0.168 0.168-0.168 0.168l-6.063 5.726c-0.337 0.337-0.842 0.505-1.347 0.505s-1.011-0.168-1.347-0.505c-0.842-0.674-0.842-2.021 0-2.695l2.189-2.526zM16.337 0c5.558 0 10.611 2.695 13.642 7.074 0.674 0.842 0.337 2.189-0.505 2.695-0.842 0.674-2.189 0.337-2.695-0.505-2.358-3.368-6.232-5.389-10.274-5.389-6.905 0-12.295 5.389-12.295 12.126s5.558 12.126 12.295 12.126c4.042 0 7.916-2.021 10.274-5.389 0.674-0.842 1.853-1.179 2.863-0.505 0.842 0.674 1.179 1.853 0.505 2.695-3.2 4.379-8.253 7.074-13.811 7.074-8.926 0-16.337-7.242-16.337-16s7.411-16 16.337-16z"></path>
</svg>
