<!-- Generated by IcoMoon.io -->
<svg version="1.1" xmlns="http://www.w3.org/2000/svg" width="43" height="32" viewBox="0 0 43 32">
<title>rc-list-small</title>
<path d="M3.203 6.4c1.769 0 3.203-1.433 3.203-3.2s-1.434-3.2-3.203-3.2c-1.769 0-3.203 1.433-3.203 3.2s1.434 3.2 3.203 3.2zM3.203 19.2c1.769 0 3.203-1.433 3.203-3.2s-1.434-3.2-3.203-3.2c-1.769 0-3.203 1.433-3.203 3.2s1.434 3.2 3.203 3.2zM3.203 32c1.769 0 3.203-1.433 3.203-3.2s-1.434-3.2-3.203-3.2c-1.769 0-3.203 1.433-3.203 3.2s1.434 3.2 3.203 3.2zM10.72 3.2c0-1.767 1.414-3.2 3.18-3.2h25.587c1.756 0 3.18 1.42 3.18 3.2 0 1.767-1.414 3.2-3.18 3.2h-25.587c-1.756 0-3.18-1.42-3.18-3.2zM10.72 16c0-1.767 1.451-3.2 3.2-3.2h10.613c1.767 0 3.2 1.42 3.2 3.2 0 1.767-1.451 3.2-3.2 3.2h-10.613c-1.767 0-3.2-1.42-3.2-3.2zM10.72 28.8c0-1.767 1.447-3.2 3.184-3.2h19.179c1.758 0 3.184 1.42 3.184 3.2 0 1.767-1.447 3.2-3.184 3.2h-19.179c-1.758 0-3.184-1.42-3.184-3.2z"></path>
</svg>
