<!-- Generated by IcoMoon.io -->
<svg version="1.1" xmlns="http://www.w3.org/2000/svg" width="32" height="32" viewBox="0 0 32 32">
<title>rc-logout</title>
<path d="M15.026 30.052h-13.078v-28.104h12.939c0.557 0 0.974-0.417 0.974-0.974s-0.278-0.974-0.835-0.974h-14.052c-0.557 0-0.974 0.417-0.974 0.974v30.052c0 0.557 0.417 0.974 0.974 0.974h14.052c0.557 0 0.974-0.417 0.974-0.974s-0.417-0.974-0.974-0.974zM31.722 15.304l-6.957-6.957c-0.417-0.417-0.974-0.417-1.391 0s-0.417 0.974 0 1.391l5.148 5.287h-20.452c-0.557 0-0.974 0.417-0.974 0.974s0.417 0.974 0.974 0.974h20.591l-5.287 5.287c-0.417 0.417-0.417 0.974 0 1.391s0.974 0.417 1.391 0l6.957-6.957c0.417-0.417 0.417-0.974 0-1.391z"></path>
</svg>
