<!-- Generated by IcoMoon.io -->
<svg version="1.1" xmlns="http://www.w3.org/2000/svg" width="20" height="32" viewBox="0 0 20 32">
<title>rc-mobile</title>
<path d="M1.691 0c-0.934 0-1.691 0.683-1.691 1.525v28.951c0 0.841 0.757 1.525 1.691 1.525h16.982c0.933 0 1.691-0.683 1.691-1.525v-28.951c-0.001-0.841-0.759-1.525-1.692-1.525h-16.981zM17.455 3.464v21.424h-14.545v-21.424h14.545zM10.183 29.673c-0.803 0-1.456-0.651-1.456-1.455s0.652-1.455 1.456-1.455 1.453 0.652 1.453 1.455c0 0.804-0.65 1.455-1.453 1.455v0z"></path>
</svg>
