<!-- Generated by IcoMoon.io -->
<svg version="1.1" xmlns="http://www.w3.org/2000/svg" width="31" height="32" viewBox="0 0 31 32">
<title>rc-map</title>
<path d="M10.839 4.396c0.375-0.385 0.799-0.702 1.247-0.913l6.796-3.212c0.448-0.212 0.871-0.295 1.247-0.265 0.376-0.030 0.799 0.053 1.247 0.265l6.796 3.212c1.544 0.73 2.795 2.706 2.795 4.418v22.115c0 1.71-1.233 2.471-2.765 1.693l-6.858-3.483c-0.436-0.222-0.849-0.544-1.216-0.932-0.367 0.387-0.78 0.71-1.216 0.932l-6.858 3.483c-0.437 0.222-0.85 0.319-1.216 0.304-0.367 0.015-0.779-0.082-1.216-0.304l-6.858-3.483c-1.527-0.775-2.764-2.786-2.764-4.493v-21.694c0-1.706 1.256-2.496 2.795-1.768l6.796 3.212c0.448 0.212 0.872 0.529 1.247 0.913v0zM21.677 23.733c0 0.763 0.341 1.305 1.070 1.732l5.124 2.413c0-6.659 0-19.977 0-19.977 0-0.514-0.325-1.218-1.022-1.618 0 0-3.395-1.605-5.093-2.407 0.2-0.001-0.079-0.001-0.079-0.001v19.858zM3.097 23.733c0 0.763 0.341 1.305 1.070 1.732l5.124 2.413c0-6.659 0-19.977 0-19.977 0-0.514-0.325-1.218-1.022-1.618 0 0-3.395-1.605-5.093-2.407 0.2-0.001-0.079-0.001-0.079-0.001v19.858zM18.581 23.733v-19.858c0 0-0.279 0-0.079 0.001-1.698 0.802-5.093 2.407-5.093 2.407-0.697 0.401-1.022 1.104-1.022 1.618 0 0 0 13.318 0 19.977l5.124-2.413c0.729-0.427 1.070-0.97 1.070-1.732z"></path>
</svg>
