<!-- Generated by IcoMoon.io -->
<svg version="1.1" xmlns="http://www.w3.org/2000/svg" width="29" height="32" viewBox="0 0 29 32">
<title>rc-map-small</title>
<path d="M18.783 27.762c-0.226 0.18-6.267 3.649-6.267 3.649-0.769 0.45-1.256 0.719-2.081 0.546-0.825 0.174-7.64-3.737-7.64-3.737-1.543-0.775-2.795-2.805-2.795-4.547v-21.586c0-1.736 1.27-2.55 2.841-1.815l6.839 3.197c0.261 0.122 0.514 0.279 0.754 0.464 0.24-0.185 0.493-0.342 0.754-0.464 0 0 6.849-3.561 7.593-3.438 0.744-0.122 7.593 3.438 7.593 3.438 1.569 0.734 2.841 2.732 2.841 4.466v22.034c0 1.733-1.246 2.512-2.795 1.734 0 0-7.414-3.76-7.64-3.94zM20.87 23.671c0 0.59 0.361 0.75 0.494 0.817l3.692 1.953-0.013-18.508c0-0.113 0-0.457-0.435-0.685s-3.739-1.718-3.739-1.718v18.14zM4.174 23.671c0 0.59 0.361 0.75 0.494 0.817l3.692 1.953-0.013-18.508c0-0.113 0-0.457-0.435-0.685s-3.739-1.718-3.739-1.718v18.14zM16.708 23.671v-18.14c0 0-3.304 1.489-3.739 1.718s-0.435 0.572-0.435 0.685l-0.013 18.508 3.692-1.953c0.133-0.067 0.494-0.227 0.494-0.817z"></path>
</svg>
