<!-- Generated by IcoMoon.io -->
<svg version="1.1" xmlns="http://www.w3.org/2000/svg" width="25" height="32" viewBox="0 0 25 32">
<title>rc-min-per-week</title>
<path d="M8.889 5.333h7.111c1.422 0 2.667-1.244 2.667-2.667s-1.244-2.667-2.667-2.667h-7.111c-1.422 0-2.667 1.244-2.667 2.667s1.244 2.667 2.667 2.667zM12.444 7.111c-6.933 0-12.444 5.511-12.444 12.444s5.511 12.444 12.444 12.444 12.444-5.511 12.444-12.444c0-6.933-5.511-12.444-12.444-12.444zM12.444 28.444c-4.978 0-8.889-3.911-8.889-8.889h8.889v-8.889c4.978 0 8.889 3.911 8.889 8.889s-3.911 8.889-8.889 8.889z"></path>
</svg>
