<!-- Generated by IcoMoon.io -->
<svg version="1.1" xmlns="http://www.w3.org/2000/svg" width="39" height="32" viewBox="0 0 39 32">
<title>rc-mail</title>
<path d="M2.708 2.954c0.738-0.246 1.477-0.492 2.215-0.492h29.538c0.738 0 1.477 0.246 2.215 0.492l-13.785 9.846c-1.723 1.231-4.431 1.231-5.908 0l-14.277-9.846zM24.123 14.769c-1.231 0.738-2.954 1.231-4.431 1.231s-3.2-0.492-4.431-1.231l-14.277-10.092c-0.738 0.738-0.985 1.723-0.985 2.708v19.692c0 2.708 2.215 4.923 4.923 4.923h29.538c2.708 0 4.923-2.215 4.923-4.923v-19.692c0-0.985-0.246-1.969-0.985-2.708l-14.277 10.092z"></path>
</svg>
