<!-- Generated by IcoMoon.io -->
<svg version="1.1" xmlns="http://www.w3.org/2000/svg" width="41" height="32" viewBox="0 0 41 32">
<title>rc-nav-feed</title>
<path d="M4.741 1.177v29.646c0 0.648 0.527 1.177 1.177 1.177h29.646c0.648 0 1.177-0.527 1.177-1.177v-29.646c0-0.648-0.527-1.177-1.177-1.177h-29.646c-0.648 0-1.177 0.527-1.177 1.177zM8.296 9.481c0-1.964 1.596-3.556 3.556-3.556 1.964 0 3.556 1.596 3.556 3.556 0 1.964-1.596 3.556-3.556 3.556-1.964 0-3.556-1.596-3.556-3.556zM8.296 16.593h24.889v3.556h-24.889v-3.556zM8.296 22.519h24.889v3.556h-24.889v-3.556z"></path>
</svg>
