<!-- Generated by IcoMoon.io -->
<svg version="1.1" xmlns="http://www.w3.org/2000/svg" width="35" height="32" viewBox="0 0 35 32">
<title>rc-notifications2</title>
<path d="M32.811 22.931h-3.259v-6.036c0-6.373-4.912-11.602-11.090-11.984v-2.458c0-0.424-0.339-0.768-0.756-0.768s-0.756 0.344-0.756 0.768v2.449c-6.254 0.3-11.251 5.565-11.251 11.993l0.016 6.036c0 0.424 0.339 0.768 0.756 0.768s0.756-0.344 0.756-0.768l-0.016-6.036c0-5.774 4.622-10.471 10.303-10.471h0.223c5.681 0 10.303 4.697 10.303 10.471v6.036h-25.6c-0.417 0-0.756 0.344-0.756 0.768v4.454c0 0.424 0.339 0.768 0.756 0.768h30.371c0.417 0 0.756-0.344 0.756-0.768v-4.454c0-0.424-0.338-0.768-0.756-0.768zM32.055 27.385h-28.859v-2.918h28.859v2.918zM20.463 26.286c-0.417 0-0.756 0.344-0.756 0.768 0 1.089-0.871 1.974-1.943 1.974h-0.055c-1.071 0-1.943-0.886-1.943-1.974 0-0.424-0.339-0.768-0.756-0.768s-0.756 0.344-0.756 0.768c0 1.936 1.55 3.511 3.454 3.511h0.055c1.905 0 3.454-1.575 3.454-3.511 0-0.424-0.339-0.768-0.756-0.768z"></path>
</svg>
