<!-- Generated by IcoMoon.io -->
<svg version="1.1" xmlns="http://www.w3.org/2000/svg" width="41" height="32" viewBox="0 0 41 32">
<title>rc-nav-events</title>
<path d="M8.296 3.556c0 1.309-1.052 2.37-2.37 2.37-1.309 0-2.37-1.052-2.37-2.37h-1.176c-1.312 0-2.379 1.058-2.379 2.364v20.161c0 1.294 1.065 2.364 2.379 2.364h1.176c0-1.309 1.052-2.37 2.37-2.37 1.309 0 2.37 1.052 2.37 2.37h30.806c1.312 0 2.379-1.058 2.379-2.364v-20.161c0-1.294-1.065-2.364-2.379-2.364h-30.806zM3.556 20.148c0-1.309 1.052-2.37 2.37-2.37 1.309 0 2.37 1.052 2.37 2.37 0 1.309-1.052 2.37-2.37 2.37-1.309 0-2.37-1.052-2.37-2.37zM3.556 11.852c0-1.309 1.052-2.37 2.37-2.37 1.309 0 2.37 1.052 2.37 2.37 0 1.309-1.052 2.37-2.37 2.37-1.309 0-2.37-1.052-2.37-2.37zM24.491 20.070l-4.149 2.181 0.792-4.62-3.357-3.272 4.639-0.674 2.075-4.203 2.075 4.203 4.639 0.674-3.357 3.272 0.792 4.62-4.149-2.181z"></path>
</svg>
