<!-- Generated by IcoMoon.io -->
<svg version="1.1" xmlns="http://www.w3.org/2000/svg" width="41" height="32" viewBox="0 0 41 32">
<title>rc-nav-more</title>
<path d="M9.481 21.333c2.618 0 4.741-2.122 4.741-4.741s-2.123-4.741-4.741-4.741c-2.618 0-4.741 2.123-4.741 4.741s2.123 4.741 4.741 4.741zM21.333 21.333c2.618 0 4.741-2.122 4.741-4.741s-2.122-4.741-4.741-4.741c-2.618 0-4.741 2.123-4.741 4.741s2.122 4.741 4.741 4.741zM33.185 21.333c2.618 0 4.741-2.122 4.741-4.741s-2.123-4.741-4.741-4.741c-2.618 0-4.741 2.123-4.741 4.741s2.122 4.741 4.741 4.741z"></path>
</svg>
