<!-- Generated by IcoMoon.io -->
<svg version="1.1" xmlns="http://www.w3.org/2000/svg" width="41" height="32" viewBox="0 0 41 32">
<title>rc-nav-venues</title>
<path d="M18.963 0v6.356c-4.387 0.832-7.704 4.686-7.704 9.315s3.317 8.483 7.704 9.315v7.014h-2.955c-8.841 0-16.008-7.162-16.008-16 0-8.837 7.155-16 16.008-16h2.955zM22.519 0h2.955c8.841 0 16.008 7.162 16.008 16 0 8.837-7.155 16-16.008 16h-2.955v-7.014c4.387-0.832 7.704-4.686 7.704-9.315s-3.317-8.483-7.704-9.315v-6.356zM33.185 18.366v1.778h3.556v-8.292h-3.556v6.514zM4.741 18.37v1.778h3.556v-8.296h-3.556v6.519zM18.959 10.040v11.265c-2.519-0.752-4.346-2.989-4.346-5.632s1.827-4.88 4.346-5.632v0zM22.519 10.040v11.265c2.519-0.752 4.346-2.989 4.346-5.632s-1.827-4.88-4.346-5.632v0z"></path>
</svg>
