<!-- Generated by IcoMoon.io -->
<svg version="1.1" xmlns="http://www.w3.org/2000/svg" width="40" height="32" viewBox="0 0 40 32">
<title>rc-online</title>
<path d="M29.867 11.175l-3.2-9.905c-0.305-0.965-1.321-1.473-2.286-1.168l-14.222 4.622c-0.965 0.305-1.473 1.321-1.168 2.286l3.2 9.905c0.305 0.965 1.321 1.473 2.286 1.168l14.222-4.622c0.965-0.305 1.473-1.321 1.168-2.286zM14.171 15.187l-0.305-0.864 3.708-1.219 0.305 0.864-3.708 1.219zM13.613 13.613l-0.305-0.864 5.689-1.829 0.305 0.864-5.689 1.829zM24.432 11.784l-0.762-2.337 2.743-0.914 0.762 2.336-2.743 0.914zM10.971 11.53l-1.067-3.403 16.66-5.384 1.117 3.352-16.711 5.435zM15.086 24.178h-2.184c-0.152 0-0.305 0.102-0.305 0.254l-0.914 5.79c0 0.102 0.051 0.203 0.203 0.203h1.067c0.152 0 0.305-0.102 0.305-0.254l0.254-1.575c0-0.152 0.152-0.254 0.305-0.254h0.711c1.473 0 2.286-0.711 2.489-2.133 0.102-0.61 0-1.117-0.305-1.473s-0.864-0.559-1.625-0.559zM15.34 26.311c-0.102 0.813-0.711 0.813-1.321 0.813h-0.305l0.254-1.524c0-0.102 0.102-0.152 0.203-0.152h0.152c0.406 0 0.762 0 0.965 0.254 0.051 0.102 0.102 0.305 0.051 0.61v0zM21.384 26.362h-1.016c-0.102 0-0.152 0.051-0.203 0.152l-0.051 0.305-0.051-0.102c-0.203-0.356-0.711-0.457-1.219-0.457-1.168 0-2.133 0.914-2.337 2.184-0.102 0.66 0.051 1.27 0.406 1.676 0.305 0.406 0.762 0.559 1.321 0.559 0.914 0 1.422-0.61 1.422-0.61l-0.051 0.305c0 0.102 0.051 0.203 0.203 0.203h0.914c0.152 0 0.254-0.102 0.305-0.254l0.559-3.759c0-0.102-0.051-0.203-0.203-0.203zM19.962 28.495c-0.102 0.61-0.559 1.067-1.168 1.067-0.305 0-0.559-0.102-0.711-0.305s-0.203-0.457-0.152-0.762c0.102-0.61 0.559-1.067 1.168-1.067 0.305 0 0.508 0.102 0.711 0.305 0.152 0.203 0.203 0.457 0.152 0.762v0zM27.225 26.26h-1.067c-0.102 0-0.203 0.051-0.254 0.152l-1.473 2.235-0.559-2.133c-0.051-0.152-0.152-0.203-0.305-0.203h-1.016c-0.102 0-0.203 0.152-0.152 0.254l1.168 3.556-1.117 1.625c-0.102 0.102 0 0.305 0.152 0.305h1.067c0.102 0 0.203-0.051 0.254-0.152l3.505-5.283c0.051-0.152-0.051-0.356-0.203-0.356zM30.832 24.178h-2.184c-0.152 0-0.254 0.102-0.305 0.254l-0.914 5.79c0 0.102 0.051 0.203 0.203 0.203h1.117c0.102 0 0.203-0.102 0.203-0.203l0.254-1.625c0-0.152 0.152-0.254 0.305-0.254h0.711c1.473 0 2.286-0.711 2.489-2.133 0.102-0.61 0-1.117-0.305-1.473-0.254-0.356-0.813-0.559-1.575-0.559zM31.086 26.311c-0.102 0.813-0.711 0.813-1.321 0.813h-0.305l0.254-1.524c0-0.102 0.102-0.152 0.203-0.152h0.152c0.406 0 0.762 0 0.965 0.254 0.051 0.102 0.102 0.305 0.051 0.61v0zM37.384 26.362h-1.016c-0.102 0-0.152 0.051-0.152 0.152l-0.051 0.305-0.102-0.102c-0.203-0.356-0.711-0.457-1.219-0.457-1.168 0-2.133 0.914-2.337 2.184-0.102 0.66 0.051 1.27 0.406 1.676 0.305 0.406 0.762 0.559 1.321 0.559 0.914 0 1.422-0.61 1.422-0.61l-0.051 0.305c0 0.102 0.051 0.203 0.203 0.203h0.914c0.152 0 0.254-0.102 0.305-0.254l0.559-3.759c0-0.102-0.051-0.203-0.203-0.203zM35.962 28.495c-0.102 0.61-0.559 1.067-1.168 1.067-0.305 0-0.559-0.102-0.711-0.305s-0.203-0.457-0.152-0.762c0.102-0.61 0.559-1.067 1.168-1.067 0.305 0 0.508 0.102 0.711 0.305 0.152 0.203 0.203 0.457 0.152 0.762v0zM38.756 24.33l-0.914 5.892c0 0.102 0.051 0.203 0.203 0.203h0.914c0.152 0 0.254-0.102 0.305-0.254l0.864-5.79c0-0.102-0.051-0.203-0.203-0.203h-1.016c-0.051 0-0.152 0.051-0.152 0.152zM8.33 26.667c-0.356 1.879-1.575 2.489-3.098 2.489h-0.254c-0.203 0-0.356 0.152-0.356 0.356v0.102l-0.305 1.981v0.102c-0.102 0.152-0.254 0.305-0.457 0.305h-1.575c-0.152 0-0.254-0.152-0.254-0.254l0.61-3.86c0 0 0 0 0 0v-0.051l0.508-3.352c0-0.152 0.102-0.254 0.203-0.305 0.051 0 0.102-0.051 0.152-0.051h2.387c0.305 0 0.559 0 0.813 0.051 0.051 0 0.152 0 0.203 0.051 0.051 0 0.152 0.051 0.203 0.051s0.051 0 0.102 0.051c0.102 0.051 0.254 0.102 0.356 0.152 0 0 0 0 0 0 0.152 0.102 0.305 0.203 0.457 0.356 0.356 0.406 0.457 1.067 0.305 1.829zM1.879 30.933h-1.625c-0.152 0-0.305-0.152-0.254-0.305l1.27-8.381c0.051-0.203 0.254-0.406 0.457-0.406h3.098c1.067 0 1.879 0.254 2.337 0.762 0.356 0.406 0.508 0.914 0.457 1.524l-0.254-0.102v0.051c0 0 0 0-0.051 0l-0.102-0.051c-0.051 0-0.152-0.051-0.203-0.051s-0.152-0.051-0.203-0.051c-0.254-0.051-0.508-0.051-0.813-0.051h-2.438c-0.102 0-0.203 0-0.305 0.051-0.203 0.102-0.305 0.254-0.356 0.508l-1.016 6.502z"></path>
</svg>
