<!-- Generated by IcoMoon.io -->
<svg version="1.1" xmlns="http://www.w3.org/2000/svg" width="23" height="32" viewBox="0 0 23 32">
<title>rc-private</title>
<path d="M20.364 13.046h-1.455v-7.228c0-3.751-2.855-5.818-7.273-5.818s-7.273 2.067-7.273 5.818v7.228h-1.455c-1.422 0-2.909 1.532-2.909 2.954v13.414c0 1.422 1.163 2.586 2.586 2.586h18.102c1.422 0 2.586-1.163 2.586-2.586v-13.783c0-1.422-2.909-2.586-2.909-2.586zM16 13.091h-8.727v-6.744c0-1.864 1.998-3.438 4.364-3.438s4.364 1.575 4.364 3.438v6.744zM14.152 27.636h-5.030l1.015-5.102c-0.844-0.479-1.41-1.348-1.41-2.343 0-1.511 1.303-2.737 2.909-2.737s2.909 1.226 2.909 2.737c0 0.995-0.566 1.864-1.41 2.343l1.016 5.102z"></path>
</svg>
