<!-- Generated by IcoMoon.io -->
<svg version="1.1" xmlns="http://www.w3.org/2000/svg" width="36" height="32" viewBox="0 0 36 32">
<title>rc-player-shirt</title>
<path d="M32.481 9.408l-6.424-6.376c-0.409-0.409-0.962-0.626-1.54-0.626-0.048 0-0.12 0-0.168 0s-0.12 0-0.192 0h-1.78c-0.746 0-1.42 0.361-1.829 0.986-0.433 0.674-1.492 1.107-2.671 1.107-1.155 0-2.238-0.457-2.671-1.107-0.409-0.626-1.083-0.986-1.829-0.986h-1.78c-0.048 0-0.12 0-0.192 0-0.626-0.048-1.275 0.168-1.708 0.626l-6.4 6.376c-0.409 0.409-0.626 0.962-0.626 1.516 0 0.577 0.217 1.107 0.626 1.516l3.513 3.489c0.409 0.409 0.962 0.626 1.54 0.626 0.409 0 0.77-0.096 1.107-0.313v11.188c0 1.179 0.962 2.165 2.165 2.165h12.535c1.035 0 1.877-0.722 2.117-1.66h0.024v-0.048c0.024-0.144 0.048-0.289 0.048-0.433v-11.188c0.337 0.192 0.722 0.313 1.107 0.313 0.577 0 1.131-0.217 1.54-0.626l3.489-3.489c0.409-0.409 0.626-0.962 0.626-1.516 0-0.601-0.217-1.131-0.626-1.54zM4.090 10.923c0-0.192 0.072-0.361 0.217-0.505l1.444-1.42v3.874l-1.444-1.444c-0.144-0.144-0.217-0.313-0.217-0.505zM9.552 14.22l-0.722 0.698c-0.144 0.144-0.313 0.217-0.505 0.217s-0.385-0.072-0.505-0.217l-0.626-0.626v-6.737l2.382-2.358v9.023zM13.065 28.15h-1.468c-0.265 0-0.481-0.12-0.601-0.337v-23.94c0.096-0.048 0.217-0.048 0.337-0.048h0.192c0.024 0 0.072 0 0.096 0h1.468v24.325zM14.508 4.74c0.65 0.601 1.612 1.011 2.671 1.131v22.28h-2.671v-23.411zM21.317 28.15h-2.671v-22.28c1.083-0.144 2.045-0.553 2.671-1.203v4.884c-0.529 0.024-0.818 0.072-1.155 0.217-0.626 0.265-0.962 0.842-0.962 1.708 0 0.962 0.144 1.756 0.481 2.406 0.361 0.626 0.89 1.059 1.612 1.227v13.041zM20.259 11.453c0-0.457 0.096-0.65 0.337-0.746s0.553-0.12 1.323-0.12c0.072 0 0.12 0 0.168 0s0.072 0 0.168 0c0.77 0 1.059 0.024 1.275 0.12 0.192 0.096 0.313 0.289 0.313 0.746 0 1.804-0.433 2.671-1.756 2.671-1.323 0.024-1.829-0.89-1.829-2.671zM24.83 27.693c-0.096 0.265-0.361 0.481-0.674 0.481h-1.395v-13.065c0.746-0.168 1.323-0.601 1.66-1.251 0.217-0.433 0.361-0.938 0.409-1.54v15.374zM24.83 11.020c-0.096-0.601-0.385-1.011-0.866-1.251-0.337-0.144-0.626-0.192-1.203-0.217v-5.726h1.395c0.024 0 0.048 0 0.096 0h0.192c0.144-0.024 0.289 0 0.409 0.072v7.122zM27.429 15.134c-0.192 0-0.385-0.072-0.505-0.217l-0.65-0.65v-8.998l2.165 2.141v7.026l-0.505 0.505c-0.12 0.12-0.313 0.192-0.505 0.192zM31.471 11.429l-1.564 1.564v-4.138l1.564 1.564c0.144 0.144 0.217 0.313 0.217 0.505-0.024 0.192-0.096 0.361-0.217 0.505z"></path>
</svg>
