<!-- Generated by IcoMoon.io -->
<svg version="1.1" xmlns="http://www.w3.org/2000/svg" width="39" height="32" viewBox="0 0 39 32">
<title>rc-playoff-round-icon</title>
<path d="M24.842 12.716v-1.937h-11.368v1.937h-3.874v3.116c0 2.274 1.768 4.126 3.874 4.126h0.505c0.758 1.684 2.189 2.947 3.958 3.368v2.526h-1.347c-0.421 0-0.758 0.337-0.758 0.842v1.095h-1.179v3.874h9.095v-3.874h-1.179v-1.095c0-0.421-0.337-0.842-0.758-0.842h-1.347v-2.526c1.768-0.421 3.2-1.684 3.958-3.368h0.505c2.105 0 3.874-1.853 3.874-4.126v-3.116h-3.958zM13.474 17.853c-1.095 0-1.937-0.926-1.937-2.021v-1.095h1.937v2.695c0 0.168 0 0.253 0 0.421v0zM20.716 27.958v2.021h-3.116v-2.021h3.116zM18.189 19.116c0-0.505 0.337-0.926 0.926-0.926 0.505 0 0.926 0.337 0.926 0.926 0 0.505-0.337 0.926-0.926 0.926-0.505 0-0.926-0.337-0.926-0.926zM19.874 17.768h-1.432c0-1.347 0.926-1.432 0.926-2.189 0-0.253-0.084-0.337-0.421-0.337s-0.505 0.253-0.505 0.674h-1.516c0-1.432 0.758-2.274 2.189-2.274 1.263 0 2.021 0.589 2.021 1.6 0 1.347-1.263 1.6-1.263 2.526zM26.779 15.832c0 1.095-0.842 2.021-1.937 2.021v0c0-0.168 0-0.253 0-0.421v-2.695h1.937v1.095zM31.663 19.621l1.684-2.779c0.168-0.253 0.505-0.421 0.758-0.505 0 0 0.337-0.168 1.179 0.421 0.926 0.674 0.589 1.6 1.6 2.358 0.674 0.505 1.179 0.337 1.179 0.337 0.253 0 0.421 0.168 0.253 0.421l-1.684 2.779c-0.168 0.253-0.505 0.421-0.758 0.505 0 0-0.337 0.168-1.179-0.421-0.926-0.674-0.589-1.6-1.6-2.358-0.674-0.505-1.179-0.337-1.179-0.337-0.337 0-0.421-0.168-0.253-0.421zM32.674 15.832l0.505 0.337-4.632 8-0.505-0.337 4.632-8zM6.737 19.621l-1.684-2.779c-0.168-0.253-0.505-0.421-0.758-0.505 0 0-0.337-0.168-1.179 0.421-0.926 0.674-0.589 1.6-1.6 2.358-0.674 0.421-1.179 0.253-1.179 0.253-0.253 0-0.421 0.168-0.253 0.421l1.684 2.779c0.168 0.253 0.505 0.421 0.758 0.505 0 0 0.337 0.168 1.179-0.421 0.926-0.674 0.589-1.6 1.6-2.358 0.674-0.505 1.179-0.337 1.179-0.337 0.253 0.084 0.421-0.084 0.253-0.337zM5.726 15.832l-0.505 0.337 4.632 8 0.505-0.337-4.632-8zM32 10.021l-0.505-0.253c-0.084 0-0.084-0.084-0.084-0.168 0 0 0-0.084 0.084-0.084l0.505-0.253 0.084-0.589c0-0.084 0.084-0.084 0.168-0.084 0 0 0.084 0 0.084 0l0.421 0.421 0.589-0.084c0.084 0 0.168 0 0.168 0.084 0 0 0 0.084 0 0.084l-0.253 0.505 0.253 0.505c0 0.084 0 0.168-0.084 0.168 0 0-0.084 0-0.084 0l-0.589-0.084-0.421 0.421c-0.084 0.084-0.168 0.084-0.168 0 0 0 0-0.084 0-0.084l-0.168-0.505zM6.484 9.937l0.505-0.253c0.084 0 0.084-0.084 0.084-0.168 0 0 0-0.084-0.084-0.084l-0.505-0.253-0.084-0.589c0-0.084-0.084-0.084-0.168-0.084 0 0-0.084 0-0.084 0l-0.421 0.421-0.589-0.084c-0.084 0-0.168 0-0.168 0.084 0 0 0 0.084 0 0.084l0.253 0.505-0.253 0.505c0 0.084 0 0.168 0.084 0.168 0 0 0.084 0 0.084 0l0.674-0.084 0.421 0.421c0.084 0.084 0.168 0.084 0.168 0 0 0 0-0.084 0-0.084l0.084-0.505zM8.168 7.326c0 0 0-0.084 0-0.168l0.926-0.842c0.421-0.421 1.179-0.421 1.6 0.084s0.421 1.179-0.084 1.6l-0.337 0.421 0.842 0.926c0 0 0 0.084 0 0.168l-0.421 0.421c0 0-0.084 0-0.168 0l-2.358-2.611zM10.105 7.495c0.168-0.168 0.168-0.421 0-0.589s-0.421-0.168-0.589 0l-0.337 0.337 0.505 0.589 0.421-0.337zM10.947 4.968c0-0.084 0-0.084 0-0.168l0.505-0.337c0.084 0 0.084 0 0.168 0l1.347 2.358 1.095-0.589c0.084 0 0.084 0 0.168 0l0.253 0.505c0 0.084 0 0.084 0 0.168l-1.684 1.011c-0.084 0-0.084 0-0.168 0l-1.684-2.947zM14.484 6.821l0.589-3.789c0 0 0-0.084 0.084-0.084h0.084c0 0 0.084 0 0.084 0l2.526 2.863c0.084 0.084 0 0.168-0.084 0.168l-0.589 0.168c-0.084 0-0.168 0-0.168-0.084l-0.253-0.337-1.347 0.337-0.084 0.421c0 0.168-0.084 0.253-0.168 0.253l-0.505 0.168c-0.084 0-0.168-0.084-0.168-0.084zM16.253 5.137l-0.589-0.674-0.168 0.926 0.758-0.253zM18.442 4.295l-1.179-1.684c-0.084-0.084 0-0.168 0.084-0.168h0.674c0 0 0.084 0 0.084 0.084l0.758 1.011 0.674-1.095c0 0 0-0.084 0.084-0.084h0.674c0.084 0 0.168 0.084 0.084 0.168l-1.095 1.768 0.084 1.684c0 0.084-0.084 0.084-0.084 0.084h-0.589c-0.168 0-0.168-0.084-0.168-0.084l-0.084-1.684zM22.989 2.779c1.011 0.253 1.6 1.263 1.347 2.274s-1.263 1.6-2.274 1.347c-1.011-0.253-1.6-1.263-1.347-2.189 0.253-1.095 1.263-1.684 2.274-1.432zM22.316 5.558c0.589 0.168 1.095-0.253 1.263-0.758 0.168-0.589-0.253-1.095-0.758-1.263s-1.095 0.253-1.263 0.758c-0.168 0.589 0.168 1.179 0.758 1.263zM26.021 3.958c0-0.084 0.084-0.084 0.168 0l1.853 1.011c0.084 0 0.084 0.084 0 0.168l-0.253 0.421c0 0.084-0.084 0.084-0.168 0l-1.263-0.674-0.337 0.674 1.011 0.589c0.084 0 0.084 0.084 0 0.168l-0.253 0.505c0 0.084-0.084 0.084-0.168 0l-1.011-0.589-0.589 1.095c0 0.084-0.084 0.084-0.168 0l-0.505-0.337c-0.084 0-0.084-0.084 0-0.168l1.684-2.863zM28.968 5.811c0 0 0.084-0.084 0.168 0l1.6 1.432c0 0 0 0.084 0 0.168l-0.421 0.421c0 0-0.084 0.084-0.168 0l-1.095-0.926-0.421 0.505 0.842 0.758c0 0 0 0.084 0 0.168l-0.337 0.421c0 0-0.084 0-0.168 0l-0.842-0.758-0.842 0.926c0 0-0.084 0-0.168 0l-0.421-0.421c0 0 0-0.084 0-0.168l2.274-2.526z"></path>
</svg>
