<!-- Generated by IcoMoon.io -->
<svg version="1.1" xmlns="http://www.w3.org/2000/svg" width="32" height="32" viewBox="0 0 32 32">
<title>rc-post-empty</title>
<path d="M28.2 3c-1.4 0-2.6 1.2-2.6 2.6v1.2l-19.6 6.2c0-1-1-1.8-2-1.8-1.2 0-2 1-2 2v5.6c0 1.2 1 2 2 2s2-0.8 2-1.8l1.8 0.6c-0.4 0.2-0.6 0.4-0.6 0.8-0.2 0.6-0.2 1 0.2 1.6 0.2 0.4 0.6 0.8 1 1l7.2 2.4c0.2 0 0.4 0 0.6 0 0.4 0 0.6 0 1-0.2s0.8-0.6 1-1.2c0.2-0.4 0.2-0.8 0-1.2l7.6 2.4v1.2c0 1.4 1.2 2.6 2.6 2.6s2.6-1.2 2.6-2.6v-20.8c-0.2-1.4-1.4-2.6-2.8-2.6zM17.2 23.8c0 0.2-0.2 0.4-0.6 0.6-0.2 0.2-0.6 0.2-0.8 0l-7.2-2.4c-0.2 0-0.4-0.2-0.6-0.6 0-0.2 0-0.4 0.2-0.6 0.2-0.4 0.6-0.8 1-0.8 0.2 0 0.2 0 0.4 0l7.2 2.4c0.4 0.2 0.6 0.8 0.4 1.4zM5 18.8c0 0.6-0.4 1-1 1s-1-0.4-1-1v-5.6c0-0.6 0.4-1 1-1s1 0.4 1 1v5.6zM6 18v-4l19.8-6.4v16.4l-19.8-6zM29.8 26.4c0 0.8-0.6 1.6-1.6 1.6s-1.6-0.6-1.6-1.6v-20.8c0-0.8 0.6-1.6 1.6-1.6s1.6 0.6 1.6 1.6v20.8z"></path>
</svg>
