<!-- Generated by IcoMoon.io -->
<svg version="1.1" xmlns="http://www.w3.org/2000/svg" width="24" height="32" viewBox="0 0 24 32">
<title>rc-player-small</title>
<path d="M17.897 6.095c0-3.363-2.711-6.088-6.056-6.088s-6.056 2.726-6.056 6.088c0 3.363 2.711 6.088 6.056 6.088s6.056-2.726 6.056-6.088zM5.895 26.074h-5.895c0-6.546 5.278-11.852 11.789-11.852s11.789 5.306 11.789 11.852h-5.85l0.168 4.493c0 0.961-1.491 1.433-2.571 1.433h-7.074c-1.080 0-2.358-0.224-2.358-1.185v-4.741zM11.234 26.264c0 0.13 0.104 0.246 0.246 0.246h1.44c0.13 0 0.233-0.117 0.233-0.246v-8.326c0-0.13-0.104-0.246-0.233-0.246h-1.193l-1.893 1.478c-0.039 0.039-0.078 0.143-0.078 0.195v0.817c0 0.13 0.104 0.246 0.233 0.246h1.245v5.836z"></path>
</svg>
