<!-- Generated by IcoMoon.io -->
<svg version="1.1" xmlns="http://www.w3.org/2000/svg" width="32" height="32" viewBox="0 0 32 32">
<title>rc-paint-brush</title>
<path d="M31.663 12.463c0.505-0.505 0.505-1.179 0-1.516l-1.684-1.684c-0.337-0.337-1.011-0.337-1.347-0.168l-3.368 2.358 2.358-3.368c0.337-0.505 0.168-1.011-0.168-1.347l-3.537-3.537c-0.337-0.337-0.842-0.337-1.179-0.168l-0.674 0.337 0.337-0.674c0.168-0.337 0.168-0.842-0.168-1.179l-1.179-1.179c-0.505-0.505-1.179-0.505-1.516 0l-8.589 8.589 12.126 12.126 8.589-8.589zM9.432 10.442l-2.526 2.526c-0.168 0.168-0.337 0.505-0.337 0.674 0 0.337 0.168 0.505 0.337 0.842l2.358 2.358c0.505 0.505 0.674 1.011 0.674 1.684s-0.337 1.179-1.011 1.516c-6.905 4.379-7.579 5.053-7.747 5.221-1.516 1.516-1.516 4.042 0 5.558s4.042 1.516 5.558 0c0.168-0.168 0.842-0.842 5.221-7.747 0.337-0.505 0.842-0.842 1.516-1.011 0.674 0 1.347 0.168 1.684 0.674l2.358 2.358c0.505 0.505 1.179 0.505 1.516 0l2.526-2.526-12.126-12.126zM5.053 29.137c-0.674 0.674-1.516 0.674-2.189 0s-0.674-1.516 0-2.189c0.674-0.674 1.516-0.674 2.189 0 0.505 0.674 0.505 1.516 0 2.189z"></path>
</svg>
