<!-- Generated by IcoMoon.io -->
<svg version="1.1" xmlns="http://www.w3.org/2000/svg" width="44" height="32" viewBox="0 0 44 32">
<title>rc-questionnaire</title>
<path d="M40.2 9.8h-14.3c-0.7-2.3-2-4.3-3.7-5.8-2.8-2.5-6.3-3.6-10-3.2-6 0.7-10.8 5.5-11.4 11.4-0.3 3.2 0.6 6.4 2.5 9 1.8 2.4 4.5 4.2 7.5 4.8l3.1 3c0.5 0.5 1.2 0.6 1.8 0.3 0.6-0.2 1-0.8 1-1.5v-2c0.3-0.1 0.7-0.2 1-0.3 0.1 1.5 1.4 2.7 3 2.7h4.5l2.4 2.4c0.3 0.3 0.6 0.4 1 0.4 0.2 0 0.4 0 0.5-0.1 0.5-0.2 0.9-0.7 0.9-1.3v-1.4h10.3c1.7 0 3-1.3 3-3v-12.4c-0.1-1.6-1.4-3-3.1-3zM26.3 11.7h14c0.7 0 1.2 0.5 1.2 1.2v12.6c0 0.7-0.5 1.2-1.2 1.2h-11.3c-0.5 0-0.9 0.4-0.9 0.9v1.3l-2-2c-0.2-0.2-0.4-0.3-0.6-0.3h-4.9c-0.7 0-1.2-0.5-1.2-1.2v-0.4c4.3-2.2 7-6.5 7-11.4 0-0.7 0-1.3-0.1-1.9zM24.6 13.6c0 5.3-3.8 9.9-9.1 10.8-0.4 0.1-0.7 0.5-0.7 0.9v2.2l-2.9-2.9c-0.1-0.1-0.3-0.2-0.5-0.2-2.7-0.5-5-2-6.7-4.2s-2.4-5-2.1-7.8c0.3-2.5 1.4-4.8 3.2-6.6 1.7-1.8 4.1-2.9 6.5-3.2 0.4 0 0.9-0.1 1.3-0.1 2.7 0 5.3 1 7.3 2.8 2.4 2.1 3.7 5.1 3.7 8.3zM26 19.6c-0.2-0.2-0.3-0.4-0.3-0.6s0.1-0.5 0.3-0.6c0.4-0.3 0.9-0.3 1.3 0l2.9 2.8 6.5-6.1c0.4-0.3 0.9-0.3 1.3 0 0.2 0.2 0.3 0.4 0.3 0.6s-0.1 0.5-0.3 0.6l-7.1 6.7c-0.2 0.2-0.4 0.3-0.6 0.3s-0.5-0.1-0.6-0.3l-3.7-3.4zM14.2 19.5c0 0.4-0.3 0.8-0.7 0.8s-0.8-0.3-0.8-0.8 0.3-0.8 0.7-0.8v0c0.5 0.1 0.8 0.4 0.8 0.8zM16 9c0.8 0.8 1.3 1.8 1.3 2.9 0 1.8-1.2 3.4-3 3.9-0.2 0.1-0.3 0.2-0.3 0.4v0.2c0 0.5-0.4 0.9-0.9 0.9s-0.9-0.4-0.9-0.9v-0.2c0-1 0.6-1.8 1.6-2.1s1.8-1.2 1.8-2.3c0-0.6-0.3-1.2-0.7-1.7-0.5-0.5-1.1-0.7-1.7-0.7-1.4 0-2.5 1.1-2.5 2.4 0 0.5-0.4 0.9-0.9 0.9s-0.9-0.4-0.9-0.9c0-2.3 1.9-4.1 4.2-4.1 1 0 2.1 0.5 2.9 1.3z"></path>
</svg>
