<!-- Generated by IcoMoon.io -->
<svg version="1.1" xmlns="http://www.w3.org/2000/svg" width="31" height="32" viewBox="0 0 31 32">
<title>rc-request-mail</title>
<path d="M7.102 22.1c-0.413 0.035-1.073 1.031 0.323 1.209l4.988 1.177c0.392 0.052 0.613-0.098 0.854-0.225 0 0 5.621-3.842 9.007-6.126 0.482-0.325 0.667-0.385 0.754-0.385s0.134 0.124-0.261 0.48c-2.535 2.281-6.687 6.118-6.687 6.118-0.403 0.32-0.302 0.957 0.18 1.136l8.152 2.16c0.342 0.128 0.722-0.046 0.849-0.389l5.416-14.444c0.205-0.549-0.352-1.072-1.437-0.59l-22.138 9.878zM13.351 26.145c-0.356-0.119-0.717 0.156-0.693 0.531 0.091 1.436 0.197 3.692 0.274 4.55 0.012 0.142 0.059 0.507 0.24 0.589 0.195 0.087 0.47-0.093 0.582-0.177 0.895-0.672 2.713-2.416 3.965-3.472 0.282-0.239 0.106-0.714-0.245-0.831l-4.122-1.189zM6.877 8.673h13.161c0.496 0 0.896-0.402 0.896-0.897s-0.401-0.897-0.896-0.897h-13.161c-0.496 0-0.896 0.402-0.896 0.897 0 0.494 0.401 0.897 0.896 0.897zM5.981 16.449c0 0.494 0.401 0.897 0.896 0.897h6.079l4.035-1.794h-10.114c-0.496 0-0.896 0.402-0.896 0.897zM6.877 12.86h13.161c0.496 0 0.896-0.402 0.896-0.897s-0.401-0.897-0.896-0.897h-13.161c-0.496 0-0.896 0.402-0.896 0.897 0 0.494 0.401 0.897 0.896 0.897zM24.241 0h-21.567c-1.471 0-2.675 1.211-2.675 2.692v24.075c0 1.48 1.203 2.692 2.675 2.692h8.399l-0.194-2.393h-8.206c-0.146 0-0.282-0.137-0.282-0.299v-24.075c0-0.162 0.136-0.299 0.282-0.299h21.567c0.147 0 0.282 0.137 0.282 0.299v9.51l2.393-1.064v-8.446c0-1.48-1.204-2.692-2.675-2.692z"></path>
</svg>
