<!-- Generated by IcoMoon.io -->
<svg version="1.1" xmlns="http://www.w3.org/2000/svg" width="24" height="32" viewBox="0 0 24 32">
<title>rc-referee-small</title>
<path d="M7.102 15.196c1.080-0.471 2.243-0.784 3.462-0.911l-0.105 17.715h-2.206c-0.415 0-0.86-0.033-1.249-0.129l0.099-16.675zM4.736 16.577c-2.875 2.161-4.736 5.611-4.736 9.497h4.68l0.056-9.497zM16.373 15.151c-1.078-0.458-2.238-0.759-3.451-0.875l-0.105 17.724h2.509c0.298 0 0.627-0.036 0.948-0.108l0.099-16.74zM18.723 16.488c2.943 2.155 4.856 5.646 4.856 9.586h-4.912l0.057-9.586zM17.897 6.095c0-3.363-2.711-6.088-6.056-6.088s-6.056 2.726-6.056 6.088c0 3.363 2.711 6.088 6.056 6.088s6.056-2.726 6.056-6.088v0z"></path>
</svg>
