<!-- Generated by IcoMoon.io -->
<svg version="1.1" xmlns="http://www.w3.org/2000/svg" width="32" height="32" viewBox="0 0 32 32">
<title>rc-reports</title>
<path d="M16.427 14.613c0.107 0.107 0.213 0.107 0.32 0.107h14.72c0.107 0 0.32-0.107 0.32-0.213 0.107-0.107 0.107-0.213 0.107-0.427-0.427-3.947-2.24-7.573-5.227-10.133-2.88-2.453-6.613-3.947-10.667-3.947-3.627 0-7.253 1.28-10.027 3.52-0.107 0.107-0.107 0.213-0.107 0.32s0 0.32 0.107 0.32l10.453 10.453zM14.4 9.067l4.267-6.293c0.533 0.107 0.96 0.213 1.387 0.32l-4.587 6.933-1.067-0.96zM16 2.56c0.107 0 0.213 0 0.427 0l-3.413 5.12-1.067-1.067 2.773-3.947c0.427-0.107 0.853-0.107 1.28-0.107zM11.84 3.2l-1.387 1.92-0.96-0.96c0.64-0.32 1.173-0.64 1.813-0.853 0.213 0 0.32 0 0.533-0.107zM24.32 12.267l2.667-4.053c0.213 0.213 0.32 0.533 0.533 0.853l-2.24 3.2h-0.96zM27.733 12.267l0.853-1.173c0.213 0.427 0.32 0.853 0.427 1.173h-1.28zM20.373 12.267l4.373-6.507c0.107 0.107 0.32 0.213 0.427 0.32 0.213 0.213 0.427 0.32 0.533 0.533l-3.733 5.653h-1.6zM18.027 12.267h-0.427l-0.747-0.747 5.12-7.573c0.427 0.213 0.853 0.427 1.173 0.64l-5.12 7.68zM14.293 15.893l-10.027-10.027c-0.107 0-0.213-0.107-0.32-0.107s-0.32 0.107-0.32 0.213c-2.347 2.773-3.627 6.4-3.627 10.027 0 5.013 2.24 9.6 6.187 12.587 0.107 0.107 0.213 0.107 0.32 0.107 0 0 0.107 0 0.107 0 0.107 0 0.213-0.107 0.32-0.213l7.36-11.947c0.213-0.213 0.107-0.533 0-0.64zM11.307 16.533l-5.227 8.427c-0.853-0.853-1.493-1.92-2.027-2.987-0.96-1.813-1.493-3.84-1.493-5.973 0-1.6 0.32-3.2 0.853-4.587 0.213-0.747 0.533-1.387 0.853-1.92l7.040 7.040zM31.467 17.173h-14.507c-0.213 0-0.32 0.107-0.427 0.213l-7.573 12.267c-0.107 0.107-0.107 0.213 0 0.427 0 0.107 0.107 0.213 0.213 0.32 2.133 1.067 4.48 1.493 6.827 1.493 3.947 0 7.787-1.493 10.667-4.053 2.88-2.667 4.8-6.187 5.227-10.133 0-0.107 0-0.32-0.107-0.427 0-0.107-0.213-0.107-0.32-0.107z"></path>
</svg>
