<!-- Generated by IcoMoon.io -->
<svg version="1.1" xmlns="http://www.w3.org/2000/svg" width="32" height="32" viewBox="0 0 32 32">
<title>rc-settings</title>
<path d="M30.343 12.633l-2.245-0.381c-0.234-0.755-0.534-1.483-0.902-2.178l1.323-1.851c0.561-0.788 0.474-1.864-0.214-2.545l-1.991-1.991c-0.374-0.374-0.868-0.581-1.396-0.581-0.414 0-0.808 0.127-1.142 0.367l-1.857 1.323c-0.721-0.381-1.476-0.695-2.258-0.929l-0.374-2.218c-0.16-0.955-0.982-1.65-1.951-1.65h-2.813c-0.969 0-1.79 0.695-1.951 1.65l-0.387 2.271c-0.748 0.234-1.476 0.541-2.171 0.915l-1.837-1.323c-0.334-0.24-0.735-0.367-1.149-0.367-0.528 0-1.029 0.207-1.396 0.581l-1.998 1.991c-0.681 0.681-0.775 1.757-0.214 2.545l1.336 1.877c-0.367 0.701-0.661 1.43-0.889 2.185l-2.218 0.374c-0.955 0.16-1.65 0.982-1.65 1.951v2.813c0 0.969 0.695 1.79 1.65 1.951l2.271 0.387c0.234 0.748 0.541 1.476 0.915 2.171l-1.316 1.83c-0.561 0.788-0.474 1.864 0.214 2.545l1.991 1.991c0.374 0.374 0.868 0.581 1.396 0.581 0.414 0 0.808-0.127 1.142-0.367l1.877-1.336c0.675 0.354 1.383 0.641 2.111 0.868l0.374 2.245c0.16 0.955 0.982 1.65 1.951 1.65h2.819c0.969 0 1.79-0.695 1.951-1.65l0.381-2.245c0.755-0.234 1.483-0.534 2.178-0.902l1.851 1.323c0.334 0.241 0.735 0.367 1.149 0.367v0c0.528 0 1.022-0.207 1.396-0.581l1.991-1.991c0.681-0.681 0.775-1.757 0.214-2.545l-1.323-1.857c0.367-0.701 0.675-1.43 0.902-2.178l2.245-0.374c0.955-0.16 1.65-0.982 1.65-1.951v-2.813c0.013-0.969-0.681-1.79-1.637-1.951zM30.19 17.396c0 0.087-0.060 0.16-0.147 0.174l-2.806 0.468c-0.354 0.060-0.635 0.321-0.721 0.661-0.254 0.982-0.641 1.924-1.162 2.799-0.18 0.307-0.167 0.688 0.040 0.982l1.65 2.325c0.047 0.067 0.040 0.167-0.020 0.227l-1.991 1.991c-0.047 0.047-0.094 0.053-0.127 0.053-0.040 0-0.073-0.013-0.1-0.033l-2.318-1.65c-0.287-0.207-0.675-0.22-0.982-0.040-0.875 0.521-1.817 0.909-2.799 1.162-0.347 0.087-0.608 0.374-0.661 0.721l-0.474 2.806c-0.013 0.087-0.087 0.147-0.174 0.147h-2.813c-0.087 0-0.16-0.060-0.174-0.147l-0.468-2.806c-0.060-0.354-0.321-0.635-0.661-0.721-0.955-0.247-1.877-0.628-2.739-1.122-0.14-0.080-0.301-0.12-0.454-0.12-0.18 0-0.367 0.053-0.521 0.167l-2.338 1.663c-0.033 0.020-0.067 0.033-0.1 0.033-0.027 0-0.080-0.007-0.127-0.053l-1.991-1.991c-0.060-0.060-0.067-0.154-0.020-0.227l1.643-2.305c0.207-0.294 0.22-0.681 0.040-0.989-0.521-0.868-0.922-1.81-1.176-2.792-0.094-0.341-0.374-0.601-0.721-0.661l-2.826-0.481c-0.087-0.013-0.147-0.087-0.147-0.174v-2.813c0-0.087 0.060-0.16 0.147-0.174l2.786-0.468c0.354-0.060 0.641-0.321 0.728-0.668 0.247-0.982 0.628-1.931 1.142-2.806 0.18-0.307 0.16-0.688-0.047-0.975l-1.663-2.338c-0.047-0.067-0.040-0.167 0.020-0.227l1.991-1.991c0.047-0.047 0.094-0.053 0.127-0.053 0.040 0 0.074 0.013 0.1 0.033l2.305 1.643c0.294 0.207 0.681 0.22 0.989 0.040 0.868-0.521 1.81-0.922 2.792-1.176 0.341-0.094 0.601-0.374 0.661-0.721l0.481-2.826c0.013-0.087 0.087-0.147 0.174-0.147h2.813c0.087 0 0.16 0.060 0.174 0.147l0.468 2.786c0.060 0.354 0.321 0.641 0.668 0.728 1.009 0.254 1.971 0.648 2.866 1.176 0.307 0.18 0.688 0.167 0.982-0.040l2.305-1.657c0.033-0.020 0.067-0.033 0.1-0.033 0.027 0 0.080 0.007 0.127 0.053l1.991 1.991c0.060 0.060 0.067 0.154 0.020 0.227l-1.65 2.318c-0.207 0.287-0.22 0.675-0.040 0.982 0.521 0.875 0.909 1.817 1.162 2.799 0.087 0.347 0.374 0.608 0.721 0.661l2.806 0.474c0.087 0.013 0.147 0.087 0.147 0.174v2.813h-0.007zM15.993 9.086c-3.808 0-6.901 3.093-6.901 6.901s3.093 6.901 6.901 6.901c3.808 0 6.901-3.093 6.901-6.901s-3.093-6.901-6.901-6.901zM15.993 21.084c-2.813 0-5.097-2.285-5.097-5.097s2.285-5.097 5.097-5.097c2.813 0 5.097 2.285 5.097 5.097s-2.285 5.097-5.097 5.097z"></path>
</svg>
