<!-- Generated by IcoMoon.io -->
<svg version="1.1" xmlns="http://www.w3.org/2000/svg" width="41" height="32" viewBox="0 0 41 32">
<title>rc-share</title>
<path d="M22.544 3.613c5.786-4.784 10.199-4.151 13.861 0.196 2.553 3.032 3.889 8.069 3.614 11.939-0.248 3.494-1.621 6.711-3.966 9.289-0.050-0.060-0.101-0.119-0.154-0.177l-3.447-3.798c1.339-1.638 2.098-3.595 2.247-5.691 0.183-2.575-0.791-6.246-2.374-8.126-1.005-1.193-2.613-2.693-5.347-1.144-1.906 1.080-3.6 2.56-4.741 3.705l-1.665-1.835c-0.269-0.297-0.565-0.556-0.879-0.778 0.038-0.138 0.087-0.276 0.146-0.414 0.718-0.968 1.83-2.296 2.593-3.021 0.046-0.044 0.084-0.093 0.113-0.145zM20.002 1.436c-1.747-1.122-4.183-1.577-7.364-1.412-6.844 0.354-10.537 4.162-11.198 9.871-0.222 1.916-0.091 3.926 0.289 5.953 0.249 1.327 0.574 2.503 0.871 3.352 0.301 0.863 0.512 1.399 0.918 2.222 0.367 0.744 0.792 1.475 1.281 2.186l3.882-3.835c-0.135-0.235-0.262-0.472-0.38-0.712-0.286-0.58-0.43-0.947-0.665-1.62-0.213-0.61-0.468-1.531-0.664-2.577-0.289-1.541-0.386-3.034-0.233-4.357 0.373-3.221 2.044-4.944 6.176-5.158 1.438-0.074 2.518 0.074 3.322 0.445 0.885-1.298 2.305-2.974 3.748-4.343 0.006-0.006 0.012-0.011 0.018-0.017zM26.542 30.423c-1.867 0.447-3.904 0.688-6.097 0.688-2.577 0-4.891-0.36-6.948-1.033l4.539-4.439c0.758 0.092 1.56 0.139 2.408 0.139 0.626 0 1.233-0.023 1.82-0.068l4.278 4.713zM18.311 21.395l-8.938 8.666c-0.428 0.281-0.913 0.424-1.419 0.424-0.686 0-1.32-0.259-1.8-0.733-0.838-0.826-0.972-2.129-0.322-3.095l9.082-8.86 3.396 3.598zM29.974 30.237c0.99 1.091 2.676 1.172 3.767 0.183s1.172-2.676 0.183-3.767l-15.327-16.889c-0.99-1.091-2.676-1.172-3.767-0.183s-1.172 2.676-0.183 3.767l15.327 16.889z"></path>
</svg>
