<!-- Generated by IcoMoon.io -->
<svg version="1.1" xmlns="http://www.w3.org/2000/svg" width="32" height="32" viewBox="0 0 32 32">
<title>rc-school</title>
<path d="M16 19.048l-9.295-2.895v4.876c0 2.286 4.114 3.962 9.295 3.962s9.295-1.829 9.295-3.962c0 0 0 0 0 0v-4.876l-9.295 2.895zM0 12.952l3.352 1.219 0.305-0.61 1.219-0.152 0.152 0.152-1.067 0.305-0.152 0.457c0 0-2.438 5.029-1.981 7.467 0 0 1.524 0.914 2.895 0l0.457-6.705v-0.61l2.286-0.457-0.305 0.305-1.524 0.61 0.762 0.305 9.295 2.895 9.295-2.895 6.4-2.286-15.695-6.095-15.695 6.095z"></path>
</svg>
