<!-- Generated by IcoMoon.io -->
<svg version="1.1" xmlns="http://www.w3.org/2000/svg" width="33" height="32" viewBox="0 0 33 32">
<title>rc-settings-cogs</title>
<path d="M2.16 11.68c0.16 0.56 0.4 1.12 0.72 1.68l-0.88 1.040c-0.32 0.32-0.24 0.88 0.080 1.2l1.52 1.44c0.32 0.32 0.8 0.32 1.2 0.080l1.040-0.88c0.56 0.32 1.12 0.56 1.76 0.8l0.16 1.36c0.080 0.48 0.4 0.8 0.88 0.8h2.080c0.48 0 0.8-0.32 0.88-0.8l0.16-1.28c0.64-0.16 1.28-0.4 1.92-0.72l1.040 0.8c0.32 0.24 0.88 0.24 1.2-0.080l1.52-1.44c0.32-0.32 0.32-0.8 0.080-1.2l-0.8-1.040c0.32-0.56 0.64-1.2 0.8-1.84l1.28-0.16c0.48-0.080 0.8-0.4 0.8-0.88v-2.080c0-0.48-0.32-0.8-0.8-0.88l-1.2-0.16c-0.16-0.64-0.4-1.2-0.72-1.84l0.72-0.96c0.32-0.32 0.24-0.88-0.080-1.2l-1.52-1.44c-0.32-0.32-0.8-0.32-1.2-0.080l-0.96 0.72c-0.64-0.32-1.28-0.64-1.92-0.8l-0.24-1.040c-0.080-0.48-0.4-0.8-0.88-0.8h-2.080c-0.48 0-0.8 0.32-0.88 0.8l-0.16 1.2c-0.72 0.16-1.36 0.48-2 0.8l-0.96-0.72c-0.32-0.32-0.88-0.24-1.2 0.080l-1.44 1.44c-0.32 0.32-0.32 0.8-0.080 1.2l0.8 1.040c-0.32 0.48-0.56 1.12-0.72 1.76l-1.28 0.16c-0.48 0.080-0.8 0.4-0.8 0.88v2.080c0 0.48 0.32 0.8 0.8 0.88l1.36 0.080zM9.76 6.080c1.92 0 3.44 1.52 3.44 3.44s-1.52 3.44-3.44 3.44c-1.92 0-3.44-1.52-3.44-3.44s1.52-3.44 3.44-3.44zM30.48 12.16l-1.12-0.96c-0.32-0.32-0.88-0.24-1.2 0l-0.64 0.56c-0.48-0.24-1.040-0.4-1.6-0.48l-0.16-0.8c-0.080-0.4-0.48-0.72-0.96-0.72l-1.44 0.16c-0.48 0-0.8 0.4-0.8 0.8v0.88c-0.56 0.16-1.040 0.48-1.52 0.8l-0.72-0.48c-0.4-0.24-0.88-0.16-1.12 0.16l-0.96 1.12c-0.32 0.32-0.24 0.8 0 1.12l0.64 0.64c-0.24 0.48-0.4 1.040-0.48 1.52l-0.88 0.32c-0.4 0.080-0.72 0.48-0.72 0.96l0.16 1.44c0 0.4 0.4 0.8 0.88 0.8h0.96c0.16 0.48 0.4 0.88 0.72 1.28l-0.56 0.8c-0.24 0.4-0.16 0.88 0.16 1.12l1.12 0.96c0.32 0.32 0.88 0.24 1.2 0l0.72-0.64c0.48 0.24 0.96 0.4 1.52 0.48l0.24 0.96c0.080 0.4 0.48 0.72 0.96 0.72l1.44-0.16c0.48 0 0.8-0.4 0.8-0.8v-0.96c0.56-0.16 1.040-0.4 1.52-0.72l0.8 0.48c0.4 0.24 0.88 0.16 1.12-0.16l0.96-1.12c0.32-0.32 0.24-0.8 0-1.12l-0.64-0.64c0.24-0.48 0.4-1.040 0.48-1.52l0.88-0.16c0.4-0.080 0.72-0.48 0.72-0.96l-0.16-1.44c0-0.4-0.4-0.8-0.88-0.8h-0.88c-0.16-0.48-0.4-0.96-0.72-1.44l0.48-0.72c0.080-0.48 0.080-0.96-0.32-1.28zM25.040 20.4c-1.6 0.16-2.96-1.040-3.040-2.56-0.16-1.52 1.040-2.88 2.56-3.040 1.6-0.16 2.96 1.040 3.040 2.56 0.16 1.6-0.96 2.96-2.56 3.040zM7.2 24.24c-0.48 0.080-0.8 0.4-0.8 0.88v0.88c0 0.4 0.32 0.8 0.8 0.88l0.64 0.080c0.080 0.4 0.24 0.8 0.48 1.12l-0.4 0.48c-0.32 0.32-0.24 0.8 0.080 1.12l0.64 0.64c0.32 0.32 0.8 0.32 1.2 0.080l0.56-0.4c0.4 0.24 0.72 0.4 1.2 0.48l0.080 0.64c0.080 0.4 0.4 0.8 0.88 0.8h0.88c0.48 0 0.8-0.32 0.88-0.72l0.080-0.64c0.48-0.080 0.88-0.24 1.28-0.48l0.48 0.4c0.32 0.24 0.88 0.24 1.2-0.080l0.64-0.64c0.32-0.32 0.32-0.8 0.080-1.12l-0.4-0.48c0.24-0.4 0.4-0.8 0.56-1.2l0.56-0.080c0.48-0.080 0.8-0.4 0.8-0.88v-0.88c0-0.4-0.32-0.8-0.8-0.88l-0.56-0.080c-0.080-0.4-0.24-0.8-0.48-1.2l0.32-0.4c0.32-0.32 0.24-0.8-0.080-1.12l-0.64-0.64c-0.32-0.32-0.8-0.32-1.2-0.080l-0.4 0.32c-0.4-0.24-0.8-0.4-1.28-0.56l-0.16-0.48c-0.080-0.4-0.4-0.8-0.88-0.8h-0.88c-0.48 0-0.8 0.32-0.88 0.72l-0.080 0.56c-0.48 0.080-0.88 0.32-1.36 0.56l-0.4-0.32c-0.32-0.24-0.88-0.24-1.2 0.080l-0.64 0.56c-0.32 0.32-0.32 0.8-0.080 1.12l0.4 0.48c-0.24 0.4-0.4 0.8-0.48 1.2l-0.64 0.080zM12.96 23.28c1.28 0 2.32 1.040 2.32 2.32s-1.040 2.24-2.32 2.24c-1.28 0-2.32-1.040-2.32-2.32s1.040-2.24 2.32-2.24z"></path>
</svg>
