<!-- Generated by IcoMoon.io -->
<svg version="1.1" xmlns="http://www.w3.org/2000/svg" width="25" height="32" viewBox="0 0 25 32">
<title>rc-success-shield</title>
<path d="M1.635 1.635v13.828c0 10.254 11.072 14.599 11.072 14.599s11.072-4.345 11.072-14.599v-13.828h-22.143zM0 15.463v-15.463h25.413v15.463c0 5.022-2.312 9.133-6.096 12.38-1.308 1.121-2.686 2.055-4.088 2.803-0.491 0.257-0.934 0.491-1.355 0.677-0.257 0.117-0.444 0.187-0.561 0.234l-0.607 0.234-0.607-0.234c-0.117-0.047-0.304-0.117-0.561-0.234-0.42-0.187-0.864-0.42-1.355-0.677-1.401-0.771-2.78-1.682-4.088-2.803-3.784-3.247-6.096-7.381-6.096-12.38zM8.596 13.968l-1.121 1.168 3.013 3.083 6.797-6.54-1.121-1.168-5.676 5.396-1.892-1.939z"></path>
</svg>
