<!-- Generated by IcoMoon.io -->
<svg version="1.1" xmlns="http://www.w3.org/2000/svg" width="32" height="32" viewBox="0 0 32 32">
<title>rc-surface</title>
<path d="M16 26.667c-3.2 0-5.76 2.347-6.187 5.333h12.587c-0.64-2.987-3.2-5.333-6.4-5.333zM16 22.4c-3.2 0-5.76-2.347-6.187-5.333h-9.813v14.933h7.68c0.427-4.267 4.053-7.467 8.32-7.467s7.893 3.2 8.32 7.467h7.68v-14.933h-9.813c-0.427 2.987-2.987 5.333-6.187 5.333zM16 5.333c3.2 0 5.76-2.347 6.187-5.333h-12.587c0.64 2.987 3.2 5.333 6.4 5.333zM24.32 0c-0.427 4.267-4.053 7.467-8.32 7.467s-7.893-3.2-8.32-7.467h-7.68v14.933h9.813c0.427-2.987 3.2-5.333 6.187-5.333s5.76 2.347 6.187 5.333h9.813v-14.933h-7.68zM16 20.267c1.92 0 3.627-1.28 4.053-3.2h-8.32c0.64 1.92 2.347 3.2 4.267 3.2zM16 11.733c-1.92 0-3.627 1.28-4.053 3.2h8.32c-0.64-1.92-2.347-3.2-4.267-3.2z"></path>
</svg>
