<!-- Generated by IcoMoon.io -->
<svg version="1.1" xmlns="http://www.w3.org/2000/svg" width="26" height="32" viewBox="0 0 26 32">
<title>rc-star-medal</title>
<path d="M16.731 20.206c0.549-1.006 1.463-1.463 2.56-1.463s1.737-0.549 1.737-1.737c0-1.097 0.549-2.011 1.463-2.56 1.006-0.549 1.189-1.371 0.64-2.377s-0.549-2.011 0-3.017c0.64-0.914 0.457-1.737-0.549-2.286s-1.463-1.463-1.463-2.56c0-1.097-0.549-1.737-1.737-1.737-1.097 0-2.011-0.549-2.56-1.463-0.549-1.006-1.371-1.189-2.377-0.64s-2.011 0.549-3.017 0c-1.006-0.64-1.737-0.366-2.377 0.549-0.549 1.006-1.463 1.463-2.56 1.554-1.097 0-1.737 0.549-1.737 1.737 0 1.097-0.549 2.011-1.463 2.56-1.006 0.549-1.189 1.371-0.64 2.377s0.549 2.011 0 3.017c-0.549 1.006-0.366 1.737 0.64 2.377 1.006 0.549 1.463 1.463 1.463 2.56s0.549 1.737 1.737 1.737c1.097 0 2.011 0.549 2.56 1.463 0.549 1.006 1.371 1.189 2.377 0.64s2.011-0.549 3.017 0c0.914 0.457 1.737 0.274 2.286-0.731zM12.891 16.823c-3.474 0-6.217-2.834-6.217-6.217 0-3.474 2.834-6.217 6.217-6.217 3.474 0 6.217 2.834 6.217 6.217 0.091 3.383-2.743 6.217-6.217 6.217zM6.4 19.657c-1.189 0-1.371-0.549-1.371-0.549l-4.663 9.234 3.749-0.457 2.103 3.109c0 0 4.297-9.051 4.297-8.96-2.286-0.091-1.371-2.286-4.114-2.377zM20.754 19.474c-3.383 0.366-2.743 1.189-3.474 1.829-0.914 0.914-2.011 0.731-2.011 0.731l5.303 9.051 1.28-3.383 3.657 0.457-4.754-8.686zM14.263 9.234l-1.28-2.651-1.28 2.651-2.926 0.457 2.103 2.103-0.549 2.834 2.651-1.371 2.56 1.371-0.457-2.926 2.103-2.103-2.926-0.366z"></path>
</svg>
