<!-- Generated by IcoMoon.io -->
<svg version="1.1" xmlns="http://www.w3.org/2000/svg" width="21" height="32" viewBox="0 0 21 32">
<title>rc-star-advanced</title>
<path d="M10.423 14.080c-5.029 0-9.051 4.023-9.051 8.96s4.114 8.96 9.051 8.96c5.029 0 9.051-4.023 9.051-8.96s-4.023-8.96-9.051-8.96zM15.086 22.309l-2.103 1.737 0.64 2.651c0.091 0.366-0.183 0.731-0.549 0.731-0.091 0-0.183 0-0.274-0.091l-2.377-1.463-2.286 1.463c-0.091 0.091-0.183 0.091-0.274 0.091-0.366 0-0.64-0.274-0.549-0.731l0.64-2.651-2.103-1.737c-0.366-0.366-0.183-1.006 0.366-1.006l2.743-0.183 1.006-2.469c0.091-0.274 0.274-0.366 0.549-0.366s0.457 0.091 0.549 0.366l1.006 2.469 2.743 0.183c0.457 0 0.731 0.64 0.274 1.006zM6.4 0l7.040 12.434c-0.731-0.183-1.463-0.366-2.194-0.366l-6.857-12.069h2.011zM7.131 12.526l-7.131-12.526h2.103l6.857 12.16c-0.64 0.091-1.28 0.183-1.829 0.366zM18.834 0h2.103l-5.943 10.514-1.006-1.829 4.846-8.686zM16.457 0l-3.749 6.674-1.006-1.737 2.743-4.846h2.011z"></path>
</svg>
