<!-- Generated by IcoMoon.io -->
<svg version="1.1" xmlns="http://www.w3.org/2000/svg" width="32" height="32" viewBox="0 0 32 32">
<title>rc-star-intermediate</title>
<path d="M16.206 20.955l-4.232 2.271c-0.516 0.31-0.826 0-0.723-0.516l0.826-4.748-3.406-3.406c-0.413-0.413-0.31-0.826 0.31-0.826l4.748-0.723 2.168-4.335c0.206-0.516 0.619-0.516 0.929 0l2.168 4.335 4.748 0.723c0.516 0.103 0.723 0.516 0.31 0.826l-3.406 3.406 0.826 4.748c0.103 0.516-0.206 0.826-0.723 0.516l-4.542-2.271zM15.69 28.284c-6.916 0-12.49-5.677-12.49-12.594s5.574-12.594 12.49-12.594 12.49 5.677 12.49 12.594-5.574 12.594-12.49 12.594zM15.69 27.252c6.297 0 11.458-5.161 11.458-11.561s-5.058-11.561-11.458-11.561-11.458 5.161-11.458 11.561 5.161 11.561 11.458 11.561zM16 29.935c7.639 0 13.832-6.194 13.832-13.935s-6.194-13.935-13.832-13.935-13.832 6.194-13.832 13.935 6.194 13.935 13.832 13.935zM16 32c-8.774 0-15.897-7.123-15.897-16s7.123-16 15.897-16 15.897 7.123 15.897 16-7.123 16-15.897 16z"></path>
</svg>
