<!-- Generated by IcoMoon.io -->
<svg version="1.1" xmlns="http://www.w3.org/2000/svg" width="32" height="32" viewBox="0 0 32 32">
<title>rc-sign</title>
<path d="M23.771 7.314l0.914-1.143c1.371-1.6 1.143-3.886-0.686-5.257v0c-1.371-1.371-3.886-1.143-5.029 0.457l-0.914 1.143 5.714 4.8zM18.057 17.143c0 0.229 0.229 0.457 0.457 0.686 0.457 0.457 1.143 0.457 1.6 0l6.4-8c0.457-0.457 0.229-1.143-0.229-1.6s-1.143-0.229-1.6 0.229l-0.457 0.686-1.143-0.914-5.943-4.8-15.086 18.971 5.943 4.8 13.714-17.143 1.143 0.686-4.571 5.486c0 0.457-0.229 0.686-0.229 0.914zM7.086 27.886l-5.486-4.343c0 0.229-0.229 0.686-0.229 0.686l-1.371 5.943c0 0.457 0.457 0.686 0.686 0.686l5.714-2.514c0-0.229 0.457-0.229 0.686-0.457zM31.086 29.029c0 0 0 0 0 0l-8.686 1.143c-0.457 0-0.686-0.457-0.457-0.914 0.229-0.229 0.229-0.457 0.457-0.686 0.229-0.457 0-1.143-0.686-1.143 0 0 0 0-0.229 0l-11.2 1.6-1.371 0.229-3.657 0.457c-0.457 0-0.686 0.457-0.686 0.914 0 0.229 0 0.457 0.229 0.457 0.229 0.229 0.229 0.229 0.457 0.229 0 0 0 0 0.229 0l13.486-2.057c0.457 0 0.686 0.457 0.457 0.914 0 0.229-0.229 0.229-0.229 0.457-0.229 0.229-0.229 0.914 0 1.143s0.229 0.229 0.457 0.229c0 0 0 0 0 0v0 0l11.657-1.371c0.229 0 0.457-0.229 0.457-0.229 0.229-0.457 0.229-0.686 0.229-0.914-0.229-0.229-0.457-0.457-0.914-0.457z"></path>
</svg>
