<!-- Generated by IcoMoon.io -->
<svg version="1.1" xmlns="http://www.w3.org/2000/svg" width="35" height="32" viewBox="0 0 35 32">
<title>rc-search</title>
<path d="M32.762 26.971l-8.533-6.552c1.067-1.829 1.829-4.114 1.829-6.4 0-7.010-5.638-12.648-12.648-12.648s-12.648 5.638-12.648 12.648c0 7.010 5.638 12.648 12.648 12.648 3.048 0 5.79-1.067 7.924-2.743l8.686 6.705c1.067 0.762 2.438 0.61 3.2-0.457s0.457-2.438-0.457-3.2zM13.41 22.095c-4.419 0-8.076-3.657-8.076-8.076s3.657-8.076 8.076-8.076c4.419 0 8.076 3.657 8.076 8.076s-3.657 8.076-8.076 8.076z"></path>
</svg>
