<!-- Generated by IcoMoon.io -->
<svg version="1.1" xmlns="http://www.w3.org/2000/svg" width="43" height="32" viewBox="0 0 43 32">
<title>rc-speaker-share</title>
<path d="M36.444 0c-1.18 0-2.197 0.719-3.051 1.907l-28.309 9.946c-0.54-0.77-1.222-1.186-1.973-1.186-1.773 0-3.11 2.293-3.11 5.333s1.338 5.333 3.11 5.333c0.749 0 1.434-0.416 1.975-1.186l5.367 1.886-1.041 1.737c-0.327 0.54-0.521 1.193-0.521 1.89 0 1.542 0.945 2.863 2.288 3.415l0.025 0.009 6.543 2.618c0.457 0.185 0.987 0.293 1.542 0.293 1.628 0 3.040-0.926 3.738-2.279l0.011-0.024 1.376-2.754 8.977 3.153c0.853 1.19 1.873 1.909 3.053 1.909 4.043 0 6.223-8.243 6.223-16s-2.182-16-6.223-16zM19.857 28.1c-0.114 0.202-0.327 0.336-0.571 0.336-0.078 0-0.153-0.014-0.223-0.039l0.005 0.001-6.543-2.618-0.064-0.186 1.419-2.359 7.153 2.513-1.178 2.351zM36.444 28.444c-0.798 0-2.667-4.233-2.667-12.444 0-8.213 1.869-12.444 2.667-12.444 0.8 0 2.667 4.233 2.667 12.444 0 8.213-1.867 12.444-2.667 12.444z"></path>
</svg>
