<!-- Generated by IcoMoon.io -->
<svg version="1.1" xmlns="http://www.w3.org/2000/svg" width="35" height="32" viewBox="0 0 35 32">
<title>rc-shirt-board</title>
<path d="M16.576 27.84c-0.256-0.512-0.384-1.152-0.192-1.728l3.648-12.8c0.256-0.832 0.896-1.408 1.6-1.6v-1.92c0-0.192-0.128-0.384-0.256-0.448-2.432-1.088-3.776-4.544-3.2-8.32 0-0.128 0-0.256-0.128-0.384 0-0.128-0.128-0.192-0.256-0.192h-1.984c-0.256 0-0.512 0.192-0.512 0.448-0.192 2.112-1.984 3.712-4.16 3.712s-3.904-1.6-4.16-3.712c0.064-0.256-0.192-0.448-0.448-0.448h-1.984c-0.128 0-0.256 0.064-0.384 0.192-0.064 0.064-0.128 0.256-0.064 0.384 0.64 3.776-0.704 7.232-3.2 8.32-0.192 0.064-0.256 0.256-0.256 0.448v17.664c0 0.256 0.192 0.512 0.512 0.512h15.552c-0.064-0.064-0.064-0.064-0.128-0.128zM11.008 15.488c0 1.472-0.896 1.984-2.112 1.984-1.152 0-2.112-0.576-2.112-1.984v-2.24c0-1.472 0.896-1.984 2.112-1.984s2.112 0.576 2.112 1.984v2.24zM15.616 15.552v0 0c0 1.408-0.96 1.92-2.176 1.92-1.472 0-2.048-0.896-2.048-1.6 0-0.384 0.192-0.512 0.64-0.512 0.576 0 0.704 0.128 0.704 0.448 0 0.384 0.384 0.512 0.768 0.512 0.576 0 0.768-0.192 0.768-0.768v-0.192c0-0.576-0.32-0.704-0.832-0.704-0.32 0-0.384-0.256-0.384-0.512s0.064-0.512 0.384-0.512 0.64-0.064 0.64-0.704c0-0.512-0.256-0.64-0.64-0.64-0.448 0-0.64 0.128-0.64 0.448s-0.128 0.512-0.64 0.512c-0.64 0-0.704-0.128-0.704-0.512 0-0.64 0.448-1.536 1.92-1.536 1.088 0 1.92 0.384 1.92 1.536 0 0.64-0.256 1.216-0.64 1.408 0.512 0.192 0.896 0.576 0.896 1.28l0.064 0.128zM8.896 12.416c-0.448 0-0.768 0.256-0.768 0.832v2.24c0 0.576 0.256 0.832 0.768 0.832 0.448 0 0.768-0.256 0.768-0.832v-2.24c0-0.576-0.32-0.832-0.768-0.832zM21.568 24.576c-0.384-0.128-0.704 0.064-0.768 0.448-0.128 0.384 0.064 0.704 0.448 0.768s0.704-0.064 0.768-0.448c0.064-0.256-0.192-0.64-0.448-0.768zM33.152 15.296l-1.024-0.32c-0.32 1.152-1.536 1.92-2.688 1.536l-4.224-1.152c-1.152-0.32-1.856-1.536-1.472-2.752l-1.024-0.32c-0.832-0.256-1.728 0.32-1.984 1.152l-3.648 12.8c-0.256 0.832 0.192 1.792 1.088 2.048l10.368 3.008c0.832 0.256 1.728-0.32 1.984-1.152l3.648-12.8c0.32-0.896-0.192-1.792-1.024-2.048zM22.208 16.64c-0.128-0.256 0-0.576 0.192-0.768 0.256-0.128 0.576 0 0.768 0.192l0.512 0.896 0.896-0.512c0.256-0.128 0.576 0 0.768 0.192 0.128 0.256 0 0.576-0.192 0.768l-0.96 0.512 0.512 0.896c0.128 0.256 0 0.576-0.192 0.768-0.256 0.128-0.576 0-0.768-0.192l-0.512-0.896-0.832 0.448c-0.256 0.128-0.576 0-0.768-0.192-0.128-0.256 0-0.576 0.192-0.768l0.896-0.512-0.512-0.832zM20.864 26.816c-0.832-0.256-1.344-1.152-1.088-2.048 0.192-0.704 0.832-1.152 1.472-1.152l0.512-1.792c0.256-0.832 1.152-1.408 1.984-1.152l4.16 1.216c0.32 0.064 0.576-0.128 0.64-0.384l0.576-1.92-0.192 0.128c-0.256 0.128-0.576 0-0.768-0.192-0.128-0.256 0-0.576 0.192-0.768l1.344-0.768c0.256-0.128 0.576 0 0.768 0.192l0.768 1.344c0.128 0.256 0 0.576-0.192 0.768-0.256 0.128-0.576 0-0.768-0.192l-0.064-0.256-0.576 1.92c-0.256 0.832-1.152 1.408-1.984 1.152l-4.16-1.216c-0.32-0.064-0.576 0.128-0.64 0.384l-0.512 1.792c0.576 0.448 0.832 1.088 0.64 1.792-0.384 0.832-1.28 1.408-2.112 1.152zM28.8 28.096c0.128 0.256 0 0.576-0.192 0.768-0.256 0.128-0.576 0-0.768-0.192l-0.512-0.896-0.896 0.512c-0.256 0.128-0.576 0-0.768-0.192-0.128-0.256 0-0.576 0.192-0.768l0.896-0.512-0.512-0.896c-0.128-0.256 0-0.576 0.192-0.768 0.256-0.128 0.576 0 0.768 0.192l0.512 0.896 0.896-0.512c0.256-0.128 0.576 0 0.768 0.192 0.128 0.256 0 0.576-0.192 0.768l-0.896 0.512 0.512 0.896zM30.208 13.568l-0.96-0.256v-0.384c0-0.448-0.384-0.832-0.768-0.96-0.448-0.128-0.896 0-1.152 0.384l-0.256 0.32-0.96-0.256c-0.576-0.128-1.088 0.128-1.28 0.768s0.128 1.152 0.704 1.344l4.096 1.152c0.576 0.128 1.088-0.128 1.28-0.768 0.128-0.64-0.128-1.152-0.704-1.344z"></path>
</svg>
