<!-- Generated by IcoMoon.io -->
<svg version="1.1" xmlns="http://www.w3.org/2000/svg" width="68" height="32" viewBox="0 0 68 32">
<title>rc-teams-follow-icon</title>
<path d="M4.174 18.087h-4.174v-2.783h4.174v-4.174h2.783v4.174h4.174v2.783h-4.174v4.174h-2.783zM22.645 21.051l0.523-1.84h-4.546c-4.178 0-7.545 3.544-7.545 7.866v3.585h11.023v-5.726c0-1.32 0.185-2.621 0.545-3.886zM19.211 29.217l1.445-1.445h-8.134l1.445 1.445v-2.14c0-2.759 2.107-4.977 4.656-4.977h2.633v-1.445l-1.39-0.395c-0.432 1.52-0.655 3.086-0.655 4.676v4.281zM22.876 6.368c-3.622 0-6.526 3.059-6.526 6.796 0 3.337 2.336 6.169 5.501 6.693l1.088 0.18 0.461-1.002c1.128-2.455 2.933-4.494 5.166-5.847l0.885-0.536-0.223-1.011c-0.674-3.054-3.284-5.273-6.352-5.273zM27.069 10.717c-2.73 1.654-4.926 4.135-6.294 7.111l1.549-0.822c-1.754-0.291-3.084-1.903-3.084-3.842 0-2.174 1.645-3.906 3.637-3.906 1.678 0 3.142 1.245 3.53 3.006l0.662-1.547zM56.658 19.211h-1.91l0.52 1.838c0.36 1.272 0.545 2.573 0.545 3.888v5.726h11.023v-3.585c0-4.322-3.367-7.866-7.545-7.866h-2.633zM63.947 27.077v2.14l1.445-1.445h-8.134l1.445 1.445v-4.281c0-1.584-0.223-3.15-0.654-4.674l-1.39 0.393v1.445h2.633c2.548 0 4.656 2.218 4.656 4.977zM49.003 11.905l-0.172 0.949 0.811 0.522c2.109 1.358 3.811 3.337 4.887 5.692l0.425 0.93 1.018-0.091c3.378-0.303 5.968-3.231 5.968-6.745 0-3.736-2.907-6.794-6.53-6.794-3.165 0-5.833 2.357-6.408 5.537zM59.052 13.162c0 2.039-1.469 3.7-3.337 3.867l1.443 0.838c-1.305-2.855-3.375-5.261-5.951-6.92l0.639 1.472c0.332-1.836 1.832-3.162 3.564-3.162 1.994 0 3.641 1.733 3.641 3.904zM34.301 7.813c0-2.758 2.107-4.977 4.656-4.977s4.656 2.218 4.656 4.977c0 2.758-2.107 4.977-4.656 4.977s-4.656-2.218-4.656-4.977zM46.502 7.813c0-4.322-3.367-7.866-7.545-7.866s-7.545 3.544-7.545 7.866c0 4.322 3.367 7.866 7.545 7.866s7.545-3.544 7.545-7.866zM26.756 27.773l1.445 1.445v-4.281c0-5.119 3.931-9.258 8.722-9.258h4.067c4.791 0 8.722 4.138 8.722 9.258v4.281l1.445-1.445h-24.401zM52.602 30.662v-5.726c0-6.683-5.191-12.147-11.612-12.147h-4.067c-6.421 0-11.612 5.464-11.612 12.147v5.726h27.291z"></path>
</svg>
