<!-- Generated by IcoMoon.io -->
<svg version="1.1" xmlns="http://www.w3.org/2000/svg" width="37" height="32" viewBox="0 0 37 32">
<title>rc-twitter</title>
<path d="M37.333 3.733c-1.333 0.533-2.933 1.067-4.267 1.333 1.6-1.067 2.667-2.667 3.467-4.533-1.6 0.8-3.2 1.6-4.8 1.867-1.333-1.6-3.467-2.667-5.6-2.667-4.533 0.267-8 4-8 8.267 0 0.533 0 1.333 0.267 1.867-6.4-0.267-12-3.467-15.733-8.267-0.8 1.067-1.067 2.4-1.067 4 0 2.933 1.333 5.333 3.467 6.667-1.333 0-2.4-0.533-3.467-1.067v0c0 4 2.667 7.2 6.133 8-0.8 0.267-1.333 0.267-2.133 0.267-0.533 0-1.067 0-1.333-0.267 0.8 3.467 3.733 5.867 7.2 5.867-2.667 2.133-5.867 3.467-9.6 3.467-0.533 0-1.333 0-1.867 0 3.467 2.133 7.467 3.467 11.733 3.467 14.133 0 21.867-12.267 21.867-22.933 0-0.267 0-0.8 0-1.067 1.333-1.067 2.667-2.667 3.733-4.267z"></path>
</svg>
