<!-- Generated by IcoMoon.io -->
<svg version="1.1" xmlns="http://www.w3.org/2000/svg" width="29" height="32" viewBox="0 0 29 32">
<title>rc-thumbs-down</title>
<path d="M20.538 27.788c0.018-0.452 0.163-4.249-2.043-7.846h5.279c2.35 0 3.489-2.911 1.772-4.52 2.097-0.922 2.061-3.887 0-4.791 1.302-1.211 1.030-3.345-0.524-4.194 1.88-1.555 0.777-4.628-1.645-4.628-11.227 0-21.586 0-21.586 0v13.867c0 1.229 0.994 2.224 2.224 2.224l2.567 0.090c0 0.036 0.416 0.506 0.597 0.886 0.307 0.651 0.777 1.229 1.338 1.645 0.94 0.705 2.043 1.247 3.073 1.519 0.434 0.108 0.886 0.289 1.338 0.56 2.748 1.573 1.826 4.592 2.893 6.545 1.374 2.495 4.574 1.446 4.719-1.356zM23.792 15.62c0.072 0 0.163 0 0.235 0.018 0.868 0.090 1.555 0.814 1.555 1.717 0 0.94-0.777 1.718-1.718 1.718h-6.508c-0.832 0-1.537-0.615-1.681-1.41-0.018-0.108-0.036-0.217-0.036-0.343 0-0.94 0.759-1.699 1.681-1.699h6.472zM24.515 11.336c0.904 0 1.681 0.741 1.681 1.681 0.018 0.94-0.777 1.717-1.736 1.717h-7.159c-0.922 0-1.681-0.759-1.681-1.699s0.759-1.699 1.681-1.699h7.214zM23.792 7.033c0.922 0 1.681 0.759 1.681 1.699s-0.759 1.699-1.681 1.699h-1.32c-1.211 0-5.171 0-5.153 0-0.922 0-1.681-0.759-1.681-1.699s0.759-1.699 1.681-1.699h6.472zM23.34 2.73c0.994 0 1.826 0.85 1.718 1.88-0.090 0.85-0.814 1.501-1.681 1.501h-6.075c-0.922 0-1.681-0.759-1.681-1.699s0.759-1.699 1.681-1.699h6.038v0.018zM16.633 28.71c-0.922-1.699-0.054-5.062-3.236-6.906-0.524-0.289-1.049-0.524-1.555-0.651-0.922-0.235-1.898-0.723-2.766-1.356-0.795-0.597-1.32-1.898-1.32-1.898-0.090-0.145-0.181-0.271-0.271-0.416-0.235-0.542-3.453-0.488-3.453-0.488-0.723 0-1.32-0.597-1.32-1.32v-12.963c0 0 12.203 0.054 12.637 0.018-0.994 1.175-0.777 2.965 0.506 3.851-1.501 1.049-1.501 3.272 0 4.303-1.501 1.049-1.501 3.272 0 4.303-2.115 1.446-1.067 4.755 1.464 4.755h0.108c2.368 3.489 2.242 7.358 2.206 7.792-0.072 1.211-0.85 1.898-1.681 1.898-0.542 0-0.976-0.307-1.32-0.922z"></path>
</svg>
