<!-- Generated by IcoMoon.io -->
<svg version="1.1" xmlns="http://www.w3.org/2000/svg" width="71" height="32" viewBox="0 0 71 32">
<title>rc-teams-following-icon</title>
<path d="M25.428 21.051l0.523-1.84h-4.546c-4.178 0-7.545 3.544-7.545 7.866v3.585h11.023v-5.726c0-1.32 0.185-2.621 0.545-3.886zM21.993 29.217l1.445-1.445h-8.134l1.445 1.445v-2.14c0-2.759 2.107-4.977 4.656-4.977h2.633v-1.445l-1.39-0.395c-0.432 1.52-0.655 3.086-0.655 4.676v4.281zM25.659 6.368c-3.622 0-6.526 3.059-6.526 6.796 0 3.337 2.336 6.169 5.501 6.693l1.088 0.18 0.461-1.002c1.128-2.455 2.933-4.494 5.166-5.847l0.885-0.536-0.223-1.011c-0.674-3.054-3.284-5.273-6.352-5.273zM29.851 10.717c-2.73 1.654-4.926 4.135-6.294 7.111l1.549-0.822c-1.754-0.291-3.084-1.903-3.084-3.842 0-2.174 1.645-3.906 3.637-3.906 1.678 0 3.142 1.245 3.53 3.006l0.662-1.547zM59.44 19.211h-1.91l0.52 1.838c0.36 1.272 0.545 2.573 0.545 3.888v5.726h11.023v-3.585c0-4.322-3.367-7.866-7.545-7.866h-2.633zM66.729 27.077v2.14l1.445-1.445h-8.134l1.445 1.445v-4.281c0-1.584-0.223-3.15-0.654-4.674l-1.39 0.393v1.445h2.633c2.548 0 4.656 2.218 4.656 4.977zM51.786 11.905l-0.172 0.949 0.811 0.522c2.109 1.358 3.811 3.337 4.887 5.692l0.425 0.93 1.018-0.091c3.378-0.303 5.968-3.231 5.968-6.745 0-3.736-2.907-6.794-6.53-6.794-3.165 0-5.833 2.357-6.408 5.537zM61.835 13.162c0 2.039-1.469 3.7-3.337 3.867l1.443 0.838c-1.305-2.855-3.375-5.261-5.951-6.92l0.639 1.472c0.332-1.836 1.832-3.162 3.564-3.162 1.994 0 3.641 1.733 3.641 3.904zM37.084 7.813c0-2.758 2.107-4.977 4.656-4.977s4.656 2.218 4.656 4.977c0 2.758-2.107 4.977-4.656 4.977s-4.656-2.218-4.656-4.977zM49.284 7.813c0-4.322-3.367-7.866-7.545-7.866s-7.545 3.544-7.545 7.866c0 4.322 3.367 7.866 7.545 7.866s7.545-3.544 7.545-7.866zM29.538 27.773l1.445 1.445v-4.281c0-5.119 3.931-9.258 8.722-9.258h4.067c4.791 0 8.722 4.138 8.722 9.258v4.281l1.445-1.445h-24.401zM55.385 30.662v-5.726c0-6.683-5.191-12.147-11.612-12.147h-4.067c-6.421 0-11.612 5.464-11.612 12.147v5.726h27.291zM0.906 19.815l-0.511 0.498 4.408 4.297 8.731-8.039-2.279-2.222-6.906 6.284 0.954 0.016-2.626-2.56-1.77 1.726zM2.19 19.559l2.61 2.544 6.906-6.285-0.954-0.016 1.284 1.252 0.014-1.010-7.706 7.096 0.957 0.014-3.425-3.339v0.996l1.284-1.252h-0.971z"></path>
</svg>
