<!-- Generated by IcoMoon.io -->
<svg version="1.1" xmlns="http://www.w3.org/2000/svg" width="64" height="32" viewBox="0 0 64 32">
<title>rc-teams-icon</title>
<path d="M9.846 27.077c0-1.711 0.258-3.36 0.726-4.923h-3.188c-4.071 0-7.385 3.313-7.385 7.385v2.462h9.846v-4.923zM18.516 12.145c-0.633-2.725-3.065-4.761-5.982-4.761-3.397 0-6.151 2.754-6.151 6.154 0 3.072 2.257 5.595 5.196 6.058 1.514-3.129 3.938-5.726 6.937-7.451v0zM56.615 22.154h-3.188c0.465 1.563 0.726 3.212 0.726 4.923v4.923h9.846v-2.462c0-4.071-3.313-7.385-7.385-7.385v0zM51.919 7.385c-3.003 0-5.494 2.156-6.036 5.002 2.828 1.73 5.115 4.249 6.56 7.252 3.148-0.268 5.632-2.882 5.632-6.102 0-3.397-2.757-6.151-6.156-6.151v0zM32 14.769c-4.071 0-7.385-3.313-7.385-7.385s3.313-7.385 7.385-7.385c4.071 0 7.385 3.313 7.385 7.385s-3.313 7.385-7.385 7.385v0zM46.769 32h-29.538v-4.923c0-6.786 5.521-12.308 12.308-12.308h4.923c6.786 0 12.308 5.521 12.308 12.308v4.923z"></path>
</svg>
