<!-- Generated by IcoMoon.io -->
<svg version="1.1" xmlns="http://www.w3.org/2000/svg" width="30" height="32" viewBox="0 0 30 32">
<title>rc-ticker</title>
<path d="M29.92 28v-11.040c0-1.44-1.12-2.72-2.72-2.72h-3.52l-5.12-7.68c0.48-0.64 0.8-1.44 0.8-2.24 0-1.92-1.6-3.52-3.52-3.52s-3.52 1.6-3.52 3.52c0 0.8 0.32 1.6 0.8 2.24l-4.16 6.4h2.56l3.36-5.12c0.32 0 0.64 0.16 0.96 0.16s0.64 0 0.96-0.16l4.32 6.56h-17.12c-1.44 0-2.72 1.12-2.72 2.72v11.040c0 1.44 1.12 2.72 2.72 2.72h23.36c1.44-0.32 2.56-1.44 2.56-2.88z"></path>
</svg>
