<!-- Generated by IcoMoon.io -->
<svg version="1.1" xmlns="http://www.w3.org/2000/svg" width="33" height="32" viewBox="0 0 33 32">
<title>rc-user-switch</title>
<path d="M32 10.435l-1.809 4.73c-0.278 0.835-1.391 0.974-1.948 0.278l-3.339-3.896c-0.557-0.696-0.139-1.67 0.696-1.948l1.113-0.139c-0.835-2.087-2.365-3.896-4.452-5.148-3.2-1.948-7.096-2.226-10.435-0.696-0.696 0.417-1.53 0.139-1.809-0.557s0-1.53 0.696-1.809c4.174-1.948 9.043-1.67 13.078 0.835 2.643 1.67 4.73 4.174 5.704 6.957l1.252-0.278c0.835 0 1.67 0.835 1.252 1.67zM20.174 27.13c-3.339 1.391-7.235 1.252-10.435-0.696-1.948-1.252-3.478-3.061-4.452-5.148l1.113-0.139c0.835-0.139 1.252-1.252 0.696-1.948l-3.2-3.896c-0.557-0.696-1.67-0.417-1.948 0.278l-1.809 4.73c-0.278 0.835 0.417 1.67 1.252 1.53l1.252-0.278c1.113 2.783 3.061 5.287 5.704 6.957 4.035 2.504 8.904 2.643 13.078 0.835 0.696-0.278 0.974-1.113 0.696-1.809-0.417-0.557-1.252-0.835-1.948-0.417zM20.452 10.852c0-2.087-1.67-3.757-3.757-3.757s-3.757 1.67-3.757 3.757 1.67 3.757 3.757 3.757c2.087 0 3.757-1.67 3.757-3.757zM16.696 15.026c-3.061 0-5.704 2.087-6.539 4.87-0.278 0.974 0.417 1.948 1.391 1.948h10.157c0.974 0 1.67-0.974 1.391-1.948-0.696-2.783-3.339-4.87-6.4-4.87z"></path>
</svg>
