<!-- Generated by IcoMoon.io -->
<svg version="1.1" xmlns="http://www.w3.org/2000/svg" width="22" height="32" viewBox="0 0 22 32">
<title>rc-victory</title>
<path d="M21.236 1.939c-0.388-0.679-1.067-1.067-1.842-1.261-1.552-0.291-3.103 0.679-3.491 2.23l-1.939 7.855-1.939-7.855c-0.388-1.552-1.939-2.521-3.491-2.23-0.776 0.097-1.358 0.582-1.842 1.261-0.388 0.582-0.485 1.261-0.388 1.939l1.455 6.109c-1.067-0.097-2.133 0.485-2.618 1.358-0.776-0.485-1.745-0.582-2.618-0.291-0.97 0.388-1.649 1.261-1.842 2.327 0 0.194 0 0.194 0 1.939 0 1.358 0 3.685 0 7.952v6.4c0 0.97 0.873 1.745 1.842 1.745h14.836c2.327 0 4.17-1.648 4.17-3.782v-8.339c0-1.939-1.455-2.812-2.618-3.2l2.715-12.218c0.097-0.679 0-1.358-0.388-1.939zM10.764 14.739l-0.388-2.327c-0.097-0.582-0.388-1.164-0.776-1.552l-0.776-3.491c0 0 0-0.097 0-0.194l-0.873-3.685c-0.097-0.582 0.291-1.164 0.97-1.261 0.582-0.097 1.358 0.194 1.552 1.067l2.715 11.055c0 0.097 0.097 0.194 0.097 0.194-0.582-0.194-1.067-0.291-1.552-0.194-0.388 0.097-0.679 0.194-0.97 0.388zM9.309 18.812c-0.194 0.291-0.485 0.485-0.873 0.485-0.679 0.097-1.261-0.291-1.358-0.873 0 0-0.776-5.139-0.873-5.43 0-0.194-0.097-0.582 0.194-0.97 0.388-0.291 0.776-0.388 1.067-0.388 0.097 0 0.194 0 0.291 0 0.388 0.097 0.873 0.388 0.97 0.97l0.776 5.333c0.097 0.291 0 0.679-0.194 0.873zM4.461 19.976v0c-0.291 0.097-0.679 0-0.97-0.194s-0.388-0.485-0.485-0.776l-0.582-3.588c-0.194-1.455-0.194-1.455-0.194-1.552 0-0.485 0.291-0.873 0.776-1.067 0.194-0.097 0.388-0.097 0.485-0.097 0.291 0 0.582 0.097 0.776 0.291s0.291 0.388 0.388 0.582l0.679 3.879c0.194 1.164 0.194 1.164 0.194 1.164 0 0.679-0.485 1.261-1.067 1.358zM2.327 20.849c0.485 0.485 1.164 0.679 1.939 0.679 0 0 0 0 0 0 0.97 0 1.745-0.388 2.327-1.164 0.582 0.485 1.455 0.679 2.133 0.582 0.873-0.097 1.649-0.679 2.133-1.455 0.291 0.194 0.582 0.485 0.873 0.679 0 0 0.097 0.097 0.388 0.194-1.455 0.776-2.23 2.521-2.424 4.073v0.679c0 0.194 0.097 0.485 0.194 0.582 0.194 0.194 0.388 0.291 0.582 0.291s0.485-0.097 0.582-0.194c0.194-0.194 0.291-0.388 0.291-0.582v-0.679c0.194-1.261 1.067-3.103 2.812-3.006l1.552 0.097c0.485 0 0.873-0.291 0.97-0.776 0-0.291-0.097-0.582-0.388-0.776-0.097 0-0.194-0.097-0.291-0.097-2.133-0.582-3.491-1.261-3.491-1.358-1.552-0.873-1.261-1.842-1.067-2.23 0.291-0.582 0.291-0.679 2.036-0.097 0.097 0 0.194 0.097 0.388 0.097 0.582 0.194 1.358 0.485 3.976 0.97 1.067 0.194 2.23 0.776 2.23 2.618l-0.097 7.661c0 0.97-1.164 2.133-2.618 2.133h-14.739c0 0-0.291 0-0.291-0.097v-8.824zM14.255 14.933c0.194-0.097 0.388-0.291 0.485-0.582 2.133-8.436 2.618-10.376 2.715-10.861 0 0 0-0.097 0-0.194v0c0.194-0.776 0.873-1.164 1.552-1.067 0.582 0.097 1.067 0.679 0.97 1.261l-2.327 10.57c0 0.097 0 0.097 0 0.194l-0.291 1.455c-1.261-0.194-2.23-0.485-3.103-0.776z"></path>
</svg>
