<!-- Generated by IcoMoon.io -->
<svg version="1.1" xmlns="http://www.w3.org/2000/svg" width="62" height="32" viewBox="0 0 62 32">
<title>rc-venue-liked</title>
<path d="M46.237 28.444h-5.348v-3.735c4.057-0.823 7.111-4.409 7.111-8.709s-3.054-7.886-7.111-8.709v-3.735h5.348c6.859 0 12.43 5.58 12.43 12.444 0 6.871-5.568 12.444-12.43 12.444v0zM37.334 7.291c-4.059 0.823-7.111 4.409-7.111 8.709s3.052 7.886 7.111 8.709v3.735h-5.349c-6.859 0-12.428-5.582-12.428-12.444 0-6.871 5.566-12.444 12.428-12.444h5.349v3.735zM37.334 21.006c-2.068-0.734-3.556-2.688-3.556-5.006s1.488-4.272 3.556-5.006v10.012zM40.89 10.994c2.066 0.734 3.556 2.688 3.556 5.006s-1.49 4.272-3.556 5.006v-10.012zM46.237 0h-14.252c-8.827 0-15.984 7.164-15.984 16 0 8.825 7.161 16 15.984 16h14.252c8.827 0 15.986-7.164 15.986-16 0-8.825-7.163-16-15.986-16v0zM23.111 14.222v5.333h3.556v-7.111h-3.556zM51.556 12.444v7.111h3.556v-7.111zM3.794 19.061l1.23 1.179 8.65-8.29-2.46-2.567-7.42 7.111h2.46l-3.246-3.111-2.46 2.567z"></path>
</svg>
