<!-- Generated by IcoMoon.io -->
<svg version="1.1" xmlns="http://www.w3.org/2000/svg" width="60" height="32" viewBox="0 0 60 32">
<title>rc-venue-like</title>
<path d="M7.111 14.222h3.556v3.556h-3.556v3.556h-3.556v-3.556h-3.556v-3.556h3.556v-3.556h3.556v3.556zM44.459 28.444h-5.348v-3.735c4.057-0.823 7.111-4.409 7.111-8.709s-3.054-7.886-7.111-8.709v-3.735h5.348c6.859 0 12.43 5.58 12.43 12.444 0 6.871-5.568 12.444-12.43 12.444v0zM35.556 7.291c-4.059 0.823-7.111 4.409-7.111 8.709s3.052 7.886 7.111 8.709v3.735h-5.349c-6.859 0-12.428-5.582-12.428-12.444 0-6.871 5.566-12.444 12.428-12.444h5.349v3.735zM35.556 21.006c-2.068-0.734-3.556-2.688-3.556-5.006s1.488-4.272 3.556-5.006v10.012zM39.112 10.994c2.066 0.734 3.556 2.688 3.556 5.006s-1.49 4.272-3.556 5.006v-10.012zM44.459 0h-14.252c-8.827 0-15.984 7.164-15.984 16 0 8.825 7.161 16 15.984 16h14.252c8.827 0 15.986-7.164 15.986-16 0-8.825-7.163-16-15.986-16v0zM21.333 14.222v5.333h3.556v-7.111h-3.556zM49.778 12.444v7.111h3.556v-7.111z"></path>
</svg>
