<!-- Generated by IcoMoon.io -->
<svg version="1.1" xmlns="http://www.w3.org/2000/svg" width="36" height="32" viewBox="0 0 36 32">
<title>rc-video</title>
<path d="M26.353 28.863c0 0.693-0.787 1.255-1.757 1.255h-22.839c-0.97 0-1.757-0.562-1.757-1.255v-16.314c0-0.693 0.786-1.255 1.757-1.255h22.839c0.97 0 1.757 0.562 1.757 1.255v16.314zM6.588 11.294c-2.599 0-4.706-2.107-4.706-4.706s2.107-4.706 4.706-4.706c2.599 0 4.706 2.107 4.706 4.706s-2.107 4.706-4.706 4.706zM18.824 11.294c-3.119 0-5.647-2.528-5.647-5.647s2.528-5.647 5.647-5.647c3.119 0 5.647 2.528 5.647 5.647s-2.528 5.647-5.647 5.647zM35.765 30.871c0 0-0.157 1.129-1.255 1.129s-8.157-6.321-8.157-7.153v-8.282c0-0.832 6.902-7.153 8.157-7.153s1.255 1.129 1.255 1.129v20.329z"></path>
</svg>
