<!-- Generated by IcoMoon.io -->
<svg version="1.1" xmlns="http://www.w3.org/2000/svg" width="32" height="32" viewBox="0 0 32 32">
<title>rc-wand</title>
<path d="M20.677 15.015l-3.692-3.938 4.185-4.185 3.692 3.692-4.185 4.431zM3.692 32l15.508-15.508-3.692-3.938-15.508 15.754 3.692 3.692zM12.308 3.446v1.723h-1.723v1.477h1.723v1.723h1.477v-1.723h1.723v-1.477h-1.723v-1.723h-1.477zM26.338 0v1.723h-1.723v1.477h1.723v1.723h1.477v-1.723h1.723v-1.477h-1.723v-1.723h-1.477zM32 10.585h-1.723v-1.723h-1.477v1.723h-1.723v1.477h1.723v1.723h1.477v-1.723h1.723v-1.477z"></path>
</svg>
