<!-- Generated by IcoMoon.io -->
<svg version="1.1" xmlns="http://www.w3.org/2000/svg" width="42" height="32" viewBox="0 0 42 32">
<title>rc-whistle</title>
<path d="M38.56 8.96h-21.44c-5.28 0-9.6 3.68-10.72 8.48-0.64-0.64-1.6-1.12-2.72-1.12-2.080 0-3.68 1.6-3.68 3.68s1.6 3.68 3.68 3.68c1.12 0 1.92-0.48 2.72-1.12 1.12 4.8 5.6 8.48 10.72 8.48 5.44 0 10.080-4 10.88-9.28h10.4c1.12 0 2.080-0.96 2.080-2.080v-8.64c0.16-1.12-0.8-2.080-1.92-2.080zM3.68 21.6c-0.8 0-1.44-0.64-1.44-1.44s0.64-1.44 1.44-1.44 1.44 0.64 1.44 1.44c0 0.8-0.64 1.44-1.44 1.44zM9.12 8c0.32 0.48 0.96 0.8 1.6 0.48 0.48-0.32 0.8-1.12 0.48-1.6l-3.040-5.44c-0.32-0.48-0.96-0.8-1.6-0.48-0.48 0.32-0.8 0.96-0.48 1.6l3.040 5.44zM1.76 9.28l5.92 1.76c0.32 0.16 0.64 0 0.8-0.16 0.32-0.16 0.48-0.32 0.48-0.64 0.16-0.64-0.16-1.28-0.8-1.44l-5.76-1.76c-0.48-0.16-1.12 0.16-1.28 0.8-0.32 0.64 0.16 1.28 0.64 1.44zM13.12 8.16c0.32 0.16 0.64 0 0.8-0.16 0.32 0 0.48-0.32 0.64-0.48l1.76-5.92c0.16-0.64-0.16-1.28-0.8-1.44-0.64-0.32-1.28 0-1.44 0.64l-1.76 6.080c-0.16 0.48 0.16 1.12 0.8 1.28z"></path>
</svg>
