<!-- Generated by IcoMoon.io -->
<svg version="1.1" xmlns="http://www.w3.org/2000/svg" width="42" height="32" viewBox="0 0 42 32">
<title>tags</title>
<path d="M32.109 18.676c0-0.655-0.218-1.311-0.764-1.747l-14.307-13.87c-0.546-0.546-1.201-0.874-2.075-1.201s-1.638-0.546-2.403-0.546h-8.3c-0.655 0-1.311 0.218-1.857 0.764-0.546 0.437-0.764 1.092-0.764 1.747v8.082c0 0.655 0.218 1.42 0.546 2.293s0.764 1.529 1.311 1.966l14.416 13.87c0.546 0.437 1.092 0.765 1.857 0.765 0.655 0 1.311-0.218 1.857-0.764l9.829-9.502c0.437-0.546 0.655-1.092 0.655-1.857zM9.939 9.283c-0.546 0.546-1.092 0.764-1.857 0.764-0.655 0-1.311-0.218-1.857-0.764-0.437-0.437-0.764-1.092-0.764-1.747s0.218-1.311 0.764-1.747c0.546-0.437 1.092-0.764 1.857-0.764s1.311 0.218 1.857 0.764c0.546 0.437 0.764 1.092 0.764 1.747s-0.328 1.311-0.764 1.747zM39.099 16.928l-14.416-13.87c-0.546-0.546-1.201-0.874-2.075-1.201s-1.638-0.546-2.403-0.546h-4.478c0.764 0 1.529 0.218 2.403 0.546s1.529 0.764 2.075 1.201l14.416 13.87c0.546 0.546 0.764 1.092 0.764 1.747s-0.218 1.311-0.764 1.747l-9.502 9.174c0.437 0.437 0.764 0.655 1.092 0.874s0.655 0.218 1.201 0.218c0.655 0 1.311-0.218 1.857-0.765l9.829-9.502c0.546-0.437 0.764-1.092 0.764-1.747s-0.328-1.201-0.764-1.747z"></path>
</svg>
