<svg width="32" height="32" viewBox="0 0 32 32" fill="none" xmlns="http://www.w3.org/2000/svg">
<path fill-rule="evenodd" clip-rule="evenodd" d="M5.33887 5.33301V26.6663H26.6659V16.9602V5.33301H5.33887Z" fill="#006FCF"/>
<mask id="mask0" mask-type="alpha" maskUnits="userSpaceOnUse" x="5" y="11" width="22" height="10">
<path d="M5.33301 11.9502V20.688H26.6663V11.9502H5.33301Z" fill="white"/>
</mask>
<g mask="url(#mask0)">
<path fill-rule="evenodd" clip-rule="evenodd" d="M24.0527 15.6771H25.654V11.9492H23.9449V12.5454L23.5645 11.9492H22.0745V12.7031L21.7406 11.9492H19.2775C19.1593 11.9492 19.0437 11.9579 18.9318 11.9754C18.8366 11.9903 18.744 12.0117 18.6546 12.0396C18.5844 12.0615 18.5161 12.0875 18.4504 12.1176C18.3733 12.153 18.2994 12.194 18.2294 12.2407V12.1125V11.9492H10.1908L9.97187 12.5993L9.7491 11.9492H7.8787V12.711L7.54115 11.9492H6.01529L5.33301 13.5438V15.3453V15.6771H6.41372L6.61477 15.142H6.99537L7.20011 15.6771H15.5152V15.1348L15.9317 15.6771H18.2294V15.5578V15.406C18.2887 15.4444 18.3504 15.4779 18.413 15.5072C18.4758 15.5363 18.54 15.5611 18.6049 15.5821C18.6852 15.6082 18.7668 15.628 18.8481 15.6428C18.9807 15.6668 19.1127 15.6771 19.2382 15.6771H20.6132L20.8142 15.142H21.1948L21.3994 15.6771H23.7045V15.124L24.0527 15.6771ZM26.6662 20.4577V16.9598H26.4795H13.4325L13.095 17.4375L12.7613 16.9598H8.95553V20.6873H12.7467L13.0771 20.2024L13.4182 20.6873H15.7913V19.883H15.7663C16.0614 19.883 16.3295 19.8297 16.567 19.7414V20.6873H18.222V20.1452L18.6385 20.6873H25.819C26.0257 20.6873 26.2193 20.6522 26.3931 20.5891C26.4908 20.5537 26.5823 20.5094 26.6662 20.4577Z" fill="white"/>
<mask id="mask1" mask-type="alpha" maskUnits="userSpaceOnUse" x="9" y="17" width="18" height="4">
<path d="M26.6812 20.0808V17.5674H9.54102V20.0808H26.6812Z" fill="white"/>
</mask>
<g mask="url(#mask1)">
<path fill-rule="evenodd" clip-rule="evenodd" d="M25.8339 19.578H24.5449V20.0807H25.8156C26.3581 20.0807 26.6811 19.7503 26.6811 19.28C26.6811 18.8311 26.3903 18.5692 25.9021 18.5692H25.3204C25.1766 18.5692 25.0763 18.4757 25.0763 18.3286C25.0763 18.1777 25.1766 18.0773 25.3204 18.0773H26.4116L26.6346 17.5674H25.3383C24.796 17.5674 24.473 17.8978 24.473 18.3501C24.473 18.8133 24.7783 19.0789 25.2559 19.0789H25.8339C25.9773 19.0789 26.0814 19.1722 26.0814 19.3232C26.0814 19.4773 25.9773 19.578 25.8339 19.578ZM23.4427 19.578H22.1539V20.0807H23.4247C23.9669 20.0807 24.2902 19.7503 24.2902 19.28C24.2902 18.8311 23.9993 18.5692 23.5109 18.5692H22.9293C22.7856 18.5692 22.6852 18.4757 22.6852 18.3286C22.6852 18.1777 22.7856 18.0773 22.9293 18.0773H24.0207L24.2434 17.5674H22.9471C22.405 17.5674 22.0818 17.8978 22.0818 18.3501C22.0818 18.8133 22.3872 19.0789 22.8647 19.0789H23.4427C23.5862 19.0789 23.6903 19.1722 23.6903 19.3232C23.6903 19.4773 23.5862 19.578 23.4427 19.578ZM21.7877 18.0773V17.5674H19.7771V20.0807H21.7877V19.5743H20.3803V19.0682H21.7553V18.5655H20.3803V18.0773H21.7877ZM18.4199 18.0808C18.6353 18.0808 18.7503 18.2208 18.7503 18.3933C18.7503 18.5655 18.6353 18.7018 18.4199 18.7018H17.7126V18.0808H18.4199ZM17.7126 19.1758H17.9963L18.7466 20.0807H19.497L18.6605 19.1543C19.0879 19.0752 19.3426 18.7666 19.3426 18.3644C19.3426 17.8941 19.0088 17.5674 18.4738 17.5674H17.1095V20.0807H17.7126V19.1758ZM16.1759 18.411C16.1759 18.58 16.0683 18.7198 15.8564 18.7198H15.1348V18.1025H15.8564C16.0683 18.1025 16.1759 18.2388 16.1759 18.411ZM14.5316 17.5674V20.0807H15.1348V19.2511H15.8923C16.4417 19.2511 16.7826 18.8922 16.7826 18.4075C16.7826 17.9086 16.4489 17.5674 15.9138 17.5674H14.5316ZM13.6448 20.0807H14.3988L13.3898 18.8133L14.3916 17.5674H13.6593L13.0416 18.3644L12.4278 17.5674H11.6737L12.679 18.8239L11.6772 20.0807H12.4097L13.0272 19.2728L13.6448 20.0807ZM11.5516 18.0773V17.5674H9.54102V20.0807H11.5516V19.5743H10.1444V19.0682H11.5194V18.5655H10.1444V18.0773H11.5516Z" fill="#006FCF"/>
</g>
<path fill-rule="evenodd" clip-rule="evenodd" d="M23.2162 13.5656L23.209 13.3574L23.3346 13.5656L24.2967 15.07H25.0007V12.5566H24.4118V14.0108L24.419 14.1975L24.3077 14.0108L23.3668 12.5566H22.6275V15.07H23.2162V13.5656ZM20.8108 13.4939L20.9939 13.0235L21.1767 13.4939L21.3997 14.0503H20.5917L20.8108 13.4939ZM21.8088 15.07H22.4872L21.414 12.5566H20.6202L19.5434 15.07H20.1859L20.3979 14.5313H21.5933L21.8088 15.07ZM19.1772 15.07H19.2095L19.4571 14.535H19.2741C18.8611 14.535 18.617 14.2766 18.617 13.8314V13.7956C18.617 13.3969 18.8359 13.0989 19.2669 13.0989H19.9203V12.5566H19.2167C18.4412 12.5566 18.0176 13.0774 18.0176 13.7919V13.8349C18.0176 14.5818 18.452 15.0665 19.1772 15.07ZM17.0338 15.07H17.637V13.9638V12.5566H17.0338V13.9495V15.07ZM15.7664 13.0702C15.9818 13.0702 16.0967 13.2102 16.0967 13.3826C16.0967 13.5549 15.9818 13.6912 15.7664 13.6912H15.0591V13.0702H15.7664ZM15.0591 14.1653H15.3427L16.0933 15.07H16.8436L16.007 14.1436C16.4343 14.0647 16.6893 13.7558 16.6893 13.3539C16.6893 12.8835 16.3552 12.5566 15.8203 12.5566H14.4559V15.07H15.0591V14.1653ZM14.0144 13.0666V12.5566H12.0039V15.07H14.0144V14.5566H12.607V14.0575H13.9821V13.5549H12.607V13.0666H14.0144ZM9.0132 13.3539L8.99865 12.6753L9.69528 15.07H10.2411L10.9375 12.6896L10.9231 13.3502V15.07H11.5083V12.5566H10.4456L9.96807 14.3375L9.48705 12.5566H8.42786V15.07H9.0132V13.3539ZM6.61117 13.4939L6.79439 13.0235L6.97742 13.4939L7.19999 14.0503H6.39227L6.61117 13.4939ZM7.60928 15.07H8.28788L7.21434 12.5566H6.42097L5.34375 15.07H5.98647L6.19839 14.5313H7.39388L7.60928 15.07Z" fill="#006FCF"/>
</g>
</svg>
