<svg width="32" height="32" viewBox="0 0 32 32" fill="none" xmlns="http://www.w3.org/2000/svg">
<path fill-rule="evenodd" clip-rule="evenodd" d="M21.0067 15.5054C21.0022 12.6558 19.221 10.2255 16.7111 9.26299V21.7473C19.221 20.7835 21.0022 18.3555 21.0067 15.5054ZM11.9231 21.7448V9.26426C9.41545 10.2297 7.637 12.6565 7.63028 15.5054C7.637 18.3535 9.41545 20.7801 11.9231 21.7448ZM14.3184 4.95323C8.49084 4.95547 3.76951 9.6778 3.76852 15.5053C3.76951 21.3322 8.49084 26.0537 14.3184 26.0547C20.1459 26.0537 24.8683 21.3322 24.8698 15.5053C24.8683 9.6778 20.1459 4.95547 14.3184 4.95323ZM14.2925 27.0506C7.91557 27.0809 2.66699 21.9146 2.66699 15.6258C2.66699 8.75267 7.91557 3.99876 14.2925 4H17.2809C23.5825 3.99876 29.3337 8.75043 29.3337 15.6258C29.3337 21.9124 23.5825 27.0506 17.2809 27.0506H14.2925Z" fill="#0069AA"/>
</svg>
