<svg width="32" height="32" viewBox="0 0 32 32" fill="none" xmlns="http://www.w3.org/2000/svg">
<path d="M14.2227 20.5057H12.0625L13.4136 12.1514H15.5737L14.2227 20.5057Z" fill="#00579F"/>
<path d="M22.0532 12.3557C21.6271 12.1866 20.9513 12 20.1157 12C17.9824 12 16.4802 13.1376 16.471 14.7639C16.4533 15.9638 17.5465 16.6303 18.3642 17.0304C19.1999 17.4392 19.484 17.7061 19.484 18.0705C19.4755 18.6302 18.8087 18.8882 18.1868 18.8882C17.3243 18.8882 16.8622 18.7552 16.16 18.4438L15.8755 18.3103L15.5732 20.1857C16.0799 20.4165 17.0133 20.6213 17.9824 20.6303C20.249 20.6303 21.7247 19.5103 21.7421 17.7772C21.7508 16.8262 21.1735 16.0974 19.9289 15.502C19.1734 15.1197 18.7107 14.862 18.7107 14.4708C18.7195 14.1153 19.102 13.7511 19.9549 13.7511C20.6572 13.7333 21.1731 13.9021 21.564 14.071L21.7594 14.1597L22.0532 12.3557Z" fill="#00579F"/>
<path d="M24.9242 17.5461C25.1021 17.0661 25.7866 15.2086 25.7866 15.2086C25.7776 15.2264 25.9642 14.7198 26.0708 14.4088L26.2218 15.1286C26.2218 15.1286 26.6309 17.1284 26.7197 17.5461C26.3821 17.5461 25.3508 17.5461 24.9242 17.5461ZM27.5906 12.1514H25.9197C25.4045 12.1514 25.013 12.3023 24.7907 12.8445L21.582 20.5056H23.8486C23.8486 20.5056 24.2218 19.4745 24.302 19.2524C24.5507 19.2524 26.7556 19.2524 27.0755 19.2524C27.1375 19.5457 27.3332 20.5056 27.3332 20.5056H29.3334L27.5906 12.1514Z" fill="#00579F"/>
<path d="M10.2581 12.1514L8.14256 17.8482L7.91139 16.6928C7.52027 15.3597 6.29365 13.9112 4.9248 13.191L6.86255 20.4969H9.14687L12.5423 12.1514H10.2581Z" fill="#00579F"/>
<path d="M6.17806 12.1514H2.70255L2.66699 12.3202C5.37811 13.0135 7.17362 14.6846 7.91132 16.6932L7.15579 12.8536C7.0314 12.3201 6.64914 12.169 6.17806 12.1514Z" fill="#FAA61A"/>
</svg>
