<svg width="24" height="25" viewBox="0 0 24 25" fill="none" xmlns="http://www.w3.org/2000/svg">
<path fill-rule="evenodd" clip-rule="evenodd" d="M11.634 2.65418C11.8645 2.55538 12.1255 2.55538 12.356 2.65418L19.3549 5.65368C19.8201 5.85307 20.0356 6.39187 19.8362 6.85712C19.6368 7.32237 19.098 7.53789 18.6328 7.3385L11.995 4.49373L5.3572 7.3385C4.89195 7.53789 4.35315 7.32237 4.15376 6.85712C3.95437 6.39187 4.16989 5.85307 4.63514 5.65368L11.634 2.65418ZM2.99659 9.5789C2.49041 9.5789 2.08008 9.98924 2.08008 10.4954C2.08008 11.0016 2.49041 11.4119 2.99659 11.4119H3.07991V20.5771H2.99659C2.49041 20.5771 2.08008 20.9874 2.08008 21.4936C2.08008 21.9997 2.49041 22.4101 2.99659 22.4101H3.99375L3.99642 22.4101L3.99909 22.4101H19.9911L19.9937 22.4101L19.9964 22.4101H20.9936C21.4997 22.4101 21.9101 21.9997 21.9101 21.4936C21.9101 20.9874 21.4997 20.5771 20.9936 20.5771H20.9102V11.4119H20.9936C21.4997 11.4119 21.9101 11.0016 21.9101 10.4954C21.9101 9.98924 21.4997 9.5789 20.9936 9.5789H19.9937H3.99642H2.99659ZM19.0772 11.4119V20.5771H4.91293V11.4119H19.0772ZM8.91226 14.4947C8.91226 13.9886 8.50192 13.5782 7.99575 13.5782C7.48957 13.5782 7.07923 13.9886 7.07923 14.4947V17.4942C7.07923 18.0004 7.48957 18.4108 7.99575 18.4108C8.50192 18.4108 8.91226 18.0004 8.91226 17.4942V14.4947ZM11.9951 13.5782C12.5012 13.5782 12.9116 13.9886 12.9116 14.4947V17.4942C12.9116 18.0004 12.5012 18.4108 11.9951 18.4108C11.4889 18.4108 11.0786 18.0004 11.0786 17.4942V14.4947C11.0786 13.9886 11.4889 13.5782 11.9951 13.5782ZM16.9109 14.4947C16.9109 13.9886 16.5006 13.5782 15.9944 13.5782C15.4882 13.5782 15.0779 13.9886 15.0779 14.4947V17.4942C15.0779 18.0004 15.4882 18.4108 15.9944 18.4108C16.5006 18.4108 16.9109 18.0004 16.9109 17.4942V14.4947Z" fill="#A6BCCC"/>
</svg>
