<svg width="24" height="25" viewBox="0 0 24 25" fill="none" xmlns="http://www.w3.org/2000/svg">
<path fill-rule="evenodd" clip-rule="evenodd" d="M3.91683 8.49968C3.91683 7.34908 4.84957 6.41634 6.00016 6.41634H18.0002C19.1508 6.41634 20.0835 7.34908 20.0835 8.49968V9.58301H3.91683V8.49968ZM2.0835 10.4997V8.49968C2.0835 6.33656 3.83705 4.58301 6.00016 4.58301H18.0002C20.1633 4.58301 21.9168 6.33656 21.9168 8.49968V10.4997V16.4997C21.9168 18.6628 20.1633 20.4163 18.0002 20.4163H6.00016C3.83705 20.4163 2.0835 18.6628 2.0835 16.4997V10.4997ZM20.0835 11.4163V16.4997C20.0835 17.6503 19.1508 18.583 18.0002 18.583H6.00016C4.84957 18.583 3.91683 17.6503 3.91683 16.4997V11.4163H20.0835ZM6.0835 15.4997C6.0835 14.9934 6.4939 14.583 7.00016 14.583H7.01016C7.51642 14.583 7.92683 14.9934 7.92683 15.4997C7.92683 16.0059 7.51642 16.4163 7.01016 16.4163H7.00016C6.4939 16.4163 6.0835 16.0059 6.0835 15.4997ZM11.0002 14.583C10.4939 14.583 10.0835 14.9934 10.0835 15.4997C10.0835 16.0059 10.4939 16.4163 11.0002 16.4163H13.0002C13.5064 16.4163 13.9168 16.0059 13.9168 15.4997C13.9168 14.9934 13.5064 14.583 13.0002 14.583H11.0002Z" fill="#A6BCCC"/>
</svg>
