<svg width="24" height="25" viewBox="0 0 24 25" fill="none" xmlns="http://www.w3.org/2000/svg">
<path fill-rule="evenodd" clip-rule="evenodd" d="M5.00016 4.58301C4.22661 4.58301 3.48475 4.8903 2.93777 5.43728C2.39079 5.98426 2.0835 6.72613 2.0835 7.49967V13.4997C2.0835 14.2732 2.39079 15.0151 2.93777 15.5621C3.48475 16.1091 4.22661 16.4163 5.00016 16.4163H6.0835V17.4997C6.0835 19.1105 7.38933 20.4163 9.00016 20.4163H19.0002C20.611 20.4163 21.9168 19.1105 21.9168 17.4997V11.4997C21.9168 9.88884 20.611 8.58301 19.0002 8.58301H17.9168V7.49967C17.9168 6.72613 17.6095 5.98426 17.0626 5.43728C16.5156 4.8903 15.7737 4.58301 15.0002 4.58301H5.00016ZM17.0011 10.4163C17.0008 10.4163 17.0005 10.4163 17.0002 10.4163C16.9998 10.4163 16.9995 10.4163 16.9992 10.4163H9.00016C8.40185 10.4163 7.91683 10.9014 7.91683 11.4997V15.4987C7.91683 15.499 7.91683 15.4994 7.91683 15.4997C7.91683 15.5 7.91683 15.5003 7.91683 15.5006V17.4997C7.91683 18.098 8.40185 18.583 9.00016 18.583H19.0002C19.5985 18.583 20.0835 18.098 20.0835 17.4997V11.4997C20.0835 10.9014 19.5985 10.4163 19.0002 10.4163H17.0011ZM6.0835 14.583V11.4997C6.0835 9.88884 7.38933 8.58301 9.00016 8.58301H16.0835V7.49967C16.0835 7.21236 15.9694 6.93681 15.7662 6.73364C15.563 6.53048 15.2875 6.41634 15.0002 6.41634H5.00016C4.71284 6.41634 4.43729 6.53048 4.23413 6.73364C4.03097 6.93681 3.91683 7.21236 3.91683 7.49967V13.4997C3.91683 13.787 4.03097 14.0625 4.23413 14.2657C4.4373 14.4689 4.71285 14.583 5.00016 14.583H6.0835ZM14.0002 13.4163C13.4019 13.4163 12.9168 13.9014 12.9168 14.4997C12.9168 15.098 13.4019 15.583 14.0002 15.583C14.5985 15.583 15.0835 15.098 15.0835 14.4997C15.0835 13.9014 14.5985 13.4163 14.0002 13.4163ZM11.0835 14.4997C11.0835 12.8888 12.3893 11.583 14.0002 11.583C15.611 11.583 16.9168 12.8888 16.9168 14.4997C16.9168 16.1105 15.611 17.4163 14.0002 17.4163C12.3893 17.4163 11.0835 16.1105 11.0835 14.4997Z" fill="#A6BCCC"/>
</svg>
