<svg width="24" height="25" viewBox="0 0 24 25" fill="none" xmlns="http://www.w3.org/2000/svg">
<path d="M17.7951 11.7025C17.4447 11.5785 16.8734 11.3703 16.5871 11.1459C16.5698 11.1322 16.5374 11.0506 16.5601 10.9293C16.5711 10.8711 16.6215 10.6768 16.8101 10.6199C17.1014 10.5317 17.3778 10.5896 17.5592 10.724C17.8456 10.9848 18.2891 10.9649 18.5509 10.6792C18.8124 10.3938 18.7938 9.95097 18.5101 9.68828C18.5101 9.68828 18.1843 9.39822 17.7184 9.26097V9.20312C17.7184 8.81481 17.4036 8.5 17.0153 8.5C16.627 8.5 16.3122 8.81481 16.3122 9.20312V9.30484C15.0483 9.7645 14.7512 11.4933 15.7194 12.2525C16.1605 12.5984 16.7908 12.8388 17.3259 13.0282C17.6745 13.1515 17.7099 13.4014 17.6783 13.5894C17.6431 13.7986 17.4628 14.1535 17.0106 14.1565C16.5417 14.1595 16.4305 14.1423 16.0883 13.9183C15.7633 13.7057 15.3276 13.7965 15.1149 14.1215C14.9022 14.4465 14.9932 14.8823 15.3182 15.0949C15.6919 15.3396 15.988 15.4608 16.3121 15.5176V15.5852C16.3121 15.9735 16.6269 16.2883 17.0153 16.2883C17.4036 16.2883 17.7184 15.9735 17.7184 15.5852V15.4381C19.422 14.8224 19.648 12.3579 17.7951 11.7025Z" fill="#A6BCCC"/>
<path d="M5 11.15C5 10.6806 5.38056 10.3 5.85 10.3H12.15C12.6194 10.3 13 10.6806 13 11.15C13 11.6194 12.6194 12 12.15 12H5.85C5.38056 12 5 11.6194 5 11.15Z" fill="#A6BCCC"/>
<path d="M5 14.15C5 13.6806 5.38056 13.3 5.85 13.3H12.15C12.6194 13.3 13 13.6806 13 14.15C13 14.6194 12.6194 15 12.15 15H5.85C5.38056 15 5 14.6194 5 14.15Z" fill="#A6BCCC"/>
<path fill-rule="evenodd" clip-rule="evenodd" d="M4 5.5C2.34315 5.5 1 6.84315 1 8.5V16.5C1 18.1569 2.34315 19.5 4 19.5H20C21.6569 19.5 23 18.1569 23 16.5V8.5C23 6.84315 21.6569 5.5 20 5.5H4ZM20 7.5H4C3.44772 7.5 3 7.94772 3 8.5V16.5C3 17.0523 3.44772 17.5 4 17.5H20C20.5523 17.5 21 17.0523 21 16.5V8.5C21 7.94772 20.5523 7.5 20 7.5Z" fill="#A6BCCC"/>
</svg>
