<svg width="20" height="20" viewBox="0 0 20 20" fill="none" xmlns="http://www.w3.org/2000/svg">
<path fill-rule="evenodd" clip-rule="evenodd" d="M5.8335 7.08366C5.8335 5.24686 7.28142 3.75151 9.17117 3.408L9.1678 3.37155L9.16683 2.50033C9.16683 2.04009 9.53992 1.66699 10.0002 1.66699C10.4604 1.66699 10.8335 2.04009 10.8335 2.50033V3.33366L10.83 3.40815C12.7193 3.75195 14.1668 5.24713 14.1668 7.08366C14.1668 7.5439 13.7937 7.91699 13.3335 7.91699C12.9061 7.91699 12.5539 7.59529 12.5058 7.18084L12.5002 7.08366C12.5002 5.95965 11.4038 5.00033 10.0002 5.00033C8.59654 5.00033 7.50016 5.95965 7.50016 7.08366C7.50016 8.16604 8.51683 9.09571 9.84551 9.16309L10.0002 9.16699C12.2784 9.16699 14.1668 10.8193 14.1668 12.917C14.1668 14.7522 12.7215 16.2465 10.8341 16.5917L10.8335 17.5003C10.8335 17.9606 10.4604 18.3337 10.0002 18.3337C9.53992 18.3337 9.16683 17.9606 9.16683 17.5003L9.16701 16.5919C7.2793 16.247 5.8335 14.7524 5.8335 12.917C5.8335 12.4568 6.20659 12.0837 6.66683 12.0837C7.12707 12.0837 7.50016 12.4568 7.50016 12.917C7.50016 14.041 8.59654 15.0003 10.0002 15.0003C11.4038 15.0003 12.5002 14.041 12.5002 12.917C12.5002 11.8346 11.4835 10.9049 10.1548 10.8376L10.0002 10.8337C7.72189 10.8337 5.8335 9.18132 5.8335 7.08366Z" fill="#A6BCCC"/>
</svg>
