<?xml version="1.0" encoding="UTF-8"?>
<svg width="39px" height="61px" viewBox="0 0 39 61" version="1.1" xmlns="http://www.w3.org/2000/svg" xmlns:xlink="http://www.w3.org/1999/xlink">
    <title>Boy</title>
    <g id="Space/Facility-page" stroke="none" stroke-width="1" fill="none" fill-rule="evenodd">
        <g id="Booking_season_4" transform="translate(-486.000000, -294.000000)" fill="#155D94" fill-rule="nonzero">
            <path d="M493.580688,299.110137 C496.934723,296.154357 503.484863,293.014098 509.682983,295.267669 C514.522003,297.02777 519.17334,296.672088 521.44751,295.596801 C521.959747,295.355102 522.559876,295.372954 523.053345,295.643035 C523.550476,295.915862 523.876862,296.395141 523.94873,296.958648 C524.324554,299.894286 523.323425,303.592559 521.630615,305.979339 C521.829742,305.957824 522.032532,305.912963 522.238525,305.845214 C522.400574,305.792113 522.561249,305.728484 522.716431,305.667144 C523.198914,305.476256 523.859009,305.215331 524.323181,305.777007 C524.628967,306.147338 524.608826,306.611052 524.262756,307.155334 C523.419098,308.479186 522.069611,310.245696 520.278381,311.472503 C520.44455,312.312499 520.528778,313.176299 520.528778,314.049254 C520.528778,315.558501 520.282959,317.016936 519.796356,318.392058 C520.087036,318.895141 520.253662,319.478332 520.253662,320.099975 L520.253662,320.099975 L520.253662,321.648131 C520.253662,323.538238 518.716034,325.075866 516.82547,325.075866 L516.82547,325.075866 L516.180939,325.075866 C515.547394,326.648742 514.521088,328.280669 513.187164,329.788543 C512.902435,330.110351 512.613586,330.416137 512.321991,330.704986 L512.321991,330.704986 L512.321991,333.828307 C512.321991,334.472838 512.702393,335.056945 513.291534,335.316039 L513.291534,335.316039 L521.050171,338.735991 C522.293915,339.286223 523.096832,340.518065 523.096832,341.874877 L523.096832,341.874877 L523.096832,342.867309 C523.096832,343.352538 522.703156,343.746215 522.217926,343.746215 C521.732697,343.746215 521.33902,343.352538 521.33902,342.867309 L521.33902,342.867309 L521.33902,342.262603 C519.150452,342.948333 517.916779,344.214965 517.916779,345.820342 L517.916779,345.820342 L517.916779,350.521575 C518.956818,350.142547 519.964813,349.715911 520.93573,349.243957 C521.184296,349.122649 521.33902,348.878203 521.33902,348.605376 L521.33902,348.605376 L521.33902,346.383391 C521.33902,345.898162 521.732697,345.504485 522.217926,345.504485 C522.703156,345.504485 523.096832,345.898162 523.096832,346.383391 L523.096832,346.383391 L523.096832,348.605376 C523.096832,349.541503 522.55072,350.412169 521.705231,350.824157 C516.762756,353.229247 510.916657,354.500457 504.798187,354.500457 C498.681091,354.500457 492.834991,353.229247 487.891602,350.824615 C487.740082,350.750457 487.597717,350.661651 487.467255,350.560485 C486.868042,350.097686 486.5,349.373504 486.5,348.604918 L486.5,348.604918 L486.5,341.874419 C486.5,341.54666 486.547607,341.220275 486.640533,340.904418 L486.640533,340.904418 L486.646484,340.886107 C486.931213,339.942657 487.61557,339.147979 488.546661,338.736449 L488.546661,338.736449 L496.305756,335.316497 C496.894897,335.056945 497.275299,334.472838 497.275299,333.828307 L497.275299,333.828307 L497.275299,330.700408 C496.874756,330.305816 496.499847,329.900695 496.160187,329.501067 C495.846161,329.131194 495.891022,328.576384 496.260895,328.261901 C496.630768,327.947875 497.185577,327.992736 497.500061,328.362609 C497.896027,328.82907 498.308014,329.263946 498.72641,329.661284 C498.747925,329.680053 498.768524,329.699737 498.788208,329.720336 C500.411896,331.24652 502.118896,332.20233 503.325562,332.20233 L503.325562,332.20233 L506.271729,332.20233 C507.48114,332.20233 509.173035,331.261626 510.801758,329.72766 C510.825562,329.702483 510.850739,329.678679 510.877289,329.656249 C511.213287,329.335814 511.546081,328.990661 511.870636,328.623534 C513.893494,326.337005 515.150513,323.695708 515.150513,321.729613 L515.150513,321.729613 L515.150513,315.261413 C515.150513,314.453002 515.046143,313.656493 514.840149,312.886077 C512.935852,312.69107 510.925812,312.04013 508.855347,310.946532 C508.336243,310.672789 507.807526,310.367919 507.274689,310.033752 C507.491211,311.347991 508.069366,312.627898 508.455719,313.193236 C508.613647,313.423491 508.652557,313.715087 508.560547,313.978759 C508.468536,314.242431 508.25705,314.446593 507.990631,314.528991 C505.426239,315.323211 501.879944,314.60086 499.095367,311.453277 C498.384003,314.274474 496.759399,316.136657 494.446777,316.744109 L494.446777,316.744109 L494.446777,321.729613 C494.446777,322.864409 494.850067,324.212066 495.613617,325.627471 C495.84433,326.054564 495.685028,326.587859 495.257477,326.818572 C495.124725,326.889983 494.981903,326.923858 494.840912,326.923858 C494.528259,326.923858 494.225677,326.756774 494.066833,326.462432 C493.815063,325.996428 493.597168,325.533172 493.412689,325.076324 L493.412689,325.076324 L492.770447,325.076324 C490.880798,325.076324 489.343628,323.538238 489.343628,321.648131 L489.343628,321.648131 L489.343628,320.099975 C489.343628,319.279204 489.63385,318.524352 490.117249,317.933837 C487.462219,313.689452 487.154144,308.965789 487.786316,305.86856 C488.070129,304.476958 488.545746,303.381072 489.155487,302.688476 C488.971466,302.424346 488.621277,301.993133 487.95752,301.302825 C487.577118,300.905944 487.430176,300.351134 487.564301,299.81784 C487.697052,299.290038 488.083862,298.875304 488.598846,298.70822 C489.969391,298.262359 492.224335,298.176757 493.580688,299.110137 Z M515.546478,338.231078 C512.866272,341.415282 508.987183,343.227569 504.798645,343.227569 C500.610107,343.227569 496.731018,341.415282 494.050812,338.231078 L494.050812,338.231078 L489.256653,340.344573 C489.104218,340.411864 488.965057,340.50067 488.842377,340.605498 C491.743683,341.542083 493.438324,343.435851 493.438324,345.820342 L493.438324,345.820342 L493.438324,351.108886 C496.973175,352.184173 500.822968,352.742187 504.798187,352.742187 C508.774323,352.742187 512.624115,352.184173 516.158966,351.108886 L516.158966,351.108886 L516.158966,345.8208 C516.158966,343.435851 517.853607,341.542083 520.754913,340.605956 C520.632233,340.500213 520.493073,340.411864 520.340179,340.344115 L520.340179,340.344115 Z M502.830261,345.228454 C503.542999,345.228454 504.122528,345.80844 504.122528,346.52072 L504.122528,346.52072 L504.122528,350.17047 C504.122528,350.6557 503.728851,351.049377 503.243622,351.049377 C502.758392,351.049377 502.364716,350.6557 502.364716,350.17047 L502.364716,350.17047 L502.364716,346.986724 L502.130341,346.986724 C501.644653,346.986724 501.251434,346.593047 501.251434,346.107818 C501.251434,345.62213 501.644653,345.228454 502.130341,345.228454 L502.130341,345.228454 Z M507.472443,345.228454 C508.748688,345.228454 509.786896,346.267119 509.786896,347.543365 L509.786896,347.543365 L509.786896,348.734923 C509.786896,350.011168 508.74823,351.049377 507.472443,351.049377 C506.196198,351.049377 505.15799,350.011168 505.15799,348.734923 L505.15799,348.734923 L505.15799,347.543365 C505.15799,346.267119 506.196198,345.228454 507.472443,345.228454 Z M488.258728,342.262603 L488.258728,348.605376 C488.258728,348.800841 488.338379,348.982116 488.47525,349.113952 C488.528809,349.165221 488.591064,349.209166 488.661102,349.243041 C489.620575,349.70996 490.632233,350.137053 491.680054,350.518371 L491.680054,350.518371 L491.680054,345.820342 C491.680054,344.214965 490.446838,342.948333 488.258728,342.262603 L488.258728,342.262603 Z M507.472443,346.986724 C507.165283,346.986724 506.915802,347.236205 506.915802,347.543365 L506.915802,347.543365 L506.915802,348.734923 C506.915802,349.041625 507.165283,349.291564 507.472443,349.291564 C507.779144,349.291564 508.029083,349.041625 508.029083,348.734923 L508.029083,348.734923 L508.029083,347.543365 C508.029083,347.236205 507.779144,346.986724 507.472443,346.986724 Z M512.98941,337.104064 C510.845703,339.316436 507.896332,340.573455 504.798645,340.573455 C501.700958,340.573455 498.751587,339.316894 496.60788,337.104064 L496.60788,337.104064 L495.737213,337.488128 C498.064484,340.031463 501.308655,341.469756 504.798645,341.469756 C508.288635,341.469756 511.532806,340.031463 513.860077,337.48767 L513.860077,337.48767 Z M499.033569,332.211486 L499.033569,333.828307 C499.033569,334.700805 498.698029,335.519744 498.125824,336.134978 C499.914764,337.848388 502.299255,338.815185 504.798645,338.815185 C507.298035,338.815185 509.682526,337.848388 511.471466,336.134978 C510.899719,335.520202 510.564178,334.700805 510.564178,333.828307 L510.564178,333.828307 L510.564178,332.220641 C509.048523,333.338042 507.547058,333.960143 506.271729,333.960143 L506.271729,333.960143 L503.325562,333.960143 C501.926178,333.960143 500.414185,333.232299 499.033569,332.211486 L499.033569,332.211486 Z M501.478943,323.456298 C501.755432,323.057128 502.302917,322.957793 502.702087,323.23474 C503.329224,323.669616 504.054321,323.899413 504.798645,323.899413 C505.542969,323.899413 506.267609,323.669616 506.895203,323.23474 C507.293915,322.958251 507.841858,323.057586 508.118347,323.456298 C508.394836,323.85501 508.295502,324.402953 507.896332,324.679442 C506.973938,325.318938 505.902313,325.657226 504.798645,325.657226 C503.694519,325.657226 502.623352,325.318938 501.700501,324.679442 C501.301331,324.402953 501.202454,323.85501 501.478943,323.456298 Z M492.688965,318.433257 C491.806396,318.475829 491.101898,319.207335 491.101898,320.099975 L491.101898,320.099975 L491.101898,321.648131 C491.101898,322.569152 491.850342,323.318053 492.770447,323.318053 L492.770447,323.318053 L492.866577,323.318053 C492.748932,322.767364 492.688965,322.234984 492.688965,321.729613 L492.688965,321.729613 Z M516.908325,318.433257 L516.908325,321.729613 C516.908325,322.2359 516.846985,322.768279 516.728882,323.318053 L516.728882,323.318053 L516.825928,323.318053 C517.746948,323.318053 518.49585,322.569152 518.49585,321.648131 L518.49585,321.648131 L518.496307,321.648131 L518.496307,320.099975 C518.496307,319.716826 518.366302,319.363433 518.148407,319.08145 C518.135132,319.066802 518.122772,319.051238 518.111328,319.035216 C517.821106,318.6864 517.391266,318.456603 516.908325,318.433257 L516.908325,318.433257 Z M499.900116,318.570128 C500.385803,318.570128 500.779022,318.963347 500.779022,319.449035 L500.779022,319.449035 L500.779022,319.801513 C500.779022,320.286742 500.385803,320.680419 499.900116,320.680419 C499.414886,320.680419 499.02121,320.286742 499.02121,319.801513 L499.02121,319.801513 L499.02121,319.449035 C499.02121,318.963347 499.414886,318.570128 499.900116,318.570128 Z M509.697174,318.570128 C510.182404,318.570128 510.57608,318.963347 510.57608,319.449035 L510.57608,319.449035 L510.57608,319.801513 C510.57608,320.286742 510.182404,320.680419 509.697174,320.680419 C509.211487,320.680419 508.818268,320.286742 508.818268,319.801513 L508.818268,319.801513 L508.818268,319.449035 C508.818268,318.963347 509.211487,318.570128 509.697174,318.570128 Z M507.343811,315.759917 C508.848938,315.021087 510.375122,315.021087 511.880249,315.759917 C512.31604,315.974151 512.495941,316.500579 512.282165,316.93637 C512.129272,317.247649 511.817078,317.428008 511.492523,317.428008 C511.362061,317.428008 511.230225,317.399169 511.105713,317.338286 C510.100464,316.844817 509.123138,316.844817 508.118347,317.338286 C507.682556,317.552062 507.15567,317.372161 506.941895,316.93637 C506.728119,316.500579 506.90802,315.973693 507.343811,315.759917 Z M497.717041,315.759917 C499.222168,315.021087 500.748352,315.021087 502.253479,315.759917 C502.68927,315.974151 502.869171,316.500579 502.655396,316.93637 C502.502502,317.247649 502.190308,317.428008 501.865753,317.428008 C501.735748,317.428008 501.603455,317.399169 501.478943,317.338286 C500.474152,316.844817 499.496826,316.844817 498.491577,317.338286 C498.055786,317.552062 497.529358,317.372161 497.315124,316.93637 C497.101349,316.500579 497.28125,315.973693 497.717041,315.759917 Z M518.6492,312.364684 C517.993683,312.637053 517.325806,312.81375 516.651062,312.893401 C516.821808,313.667022 516.908325,314.459411 516.908325,315.261413 L516.908325,315.261413 L516.908325,316.674071 C517.435669,316.686889 517.934174,316.818725 518.377289,317.04486 C518.63913,316.084929 518.771423,315.081511 518.771423,314.049254 C518.771423,313.48117 518.730225,312.917663 518.6492,312.364684 Z M509.082855,296.920653 C505.752624,295.709411 502.489685,296.386443 500.338654,297.167388 C497.597565,298.163024 495.364593,299.772979 494.189056,300.948058 C494.000458,301.136199 493.736786,301.228667 493.471741,301.199828 C493.207153,301.170989 492.969574,301.023131 492.826294,300.798369 C492.439941,300.191832 490.767731,299.963866 489.428314,300.298491 C490.528778,301.466704 491.000275,302.174865 491.090912,302.782775 C491.142639,303.127013 490.986084,303.468963 490.6922,303.655272 C490.342468,303.87683 489.822907,304.681579 489.508881,306.220122 C488.976044,308.830748 489.221405,313.105803 491.545471,316.899749 C491.902069,316.762877 492.287048,316.684142 492.688507,316.674529 L492.688507,316.674529 L492.688507,316.024047 C492.688507,315.585051 493.012604,315.213347 493.447937,315.15338 C495.169586,314.916717 497.302765,313.691741 497.687744,309.202453 C497.719788,308.826171 497.988953,308.512603 498.355621,308.423339 C498.72229,308.334075 499.10498,308.488799 499.306396,308.80786 C501.565002,312.381621 504.460358,313.176757 506.385254,313.044463 C505.818085,311.792479 505.257782,309.936705 505.482086,308.243895 C505.522827,307.938567 505.720123,307.676269 506.003021,307.553588 C506.285919,307.430449 506.612305,307.464782 506.863159,307.643767 C507.816223,308.322631 508.762421,308.910399 509.675659,309.391509 C511.73468,310.479156 513.701233,311.079284 515.521301,311.17633 C515.540985,311.176787 515.561127,311.177703 515.580811,311.179534 C516.677155,311.228057 517.768921,310.936919 518.826813,310.314361 C518.835052,310.308867 518.843292,310.30429 518.85199,310.299254 C519.973511,309.633208 520.928406,308.677855 521.686462,307.738982 C520.966858,307.794372 520.259613,307.671233 519.599518,307.370025 C519.332184,307.247802 519.143585,307.000152 519.096893,306.709929 C519.050201,306.41925 519.151825,306.124907 519.367432,305.925323 C521.252045,304.180785 522.578186,300.095244 522.205566,297.182036 C519.518494,298.453704 514.423584,298.862487 509.082855,296.920653 Z" id="Boy"></path>
        </g>
    </g>
</svg>