<?xml version="1.0" encoding="UTF-8"?>
<svg width="49px" height="49px" viewBox="0 0 49 49" version="1.1" xmlns="http://www.w3.org/2000/svg" xmlns:xlink="http://www.w3.org/1999/xlink">
    <title>female_idle</title>
    <defs>
        <ellipse id="path-1" cx="24.2424242" cy="24.2905243" rx="24.2424242" ry="24.2905243"></ellipse>
        <path d="M24.2420311,0.000131300131 C10.8535299,0.000131300131 0,10.8750647 0,24.2901304 C0,37.7051961 10.8535299,48.5801295 24.2420311,48.5801295 C37.6304013,48.5801295 48.4839312,37.7051961 48.4839312,24.2901304 C48.4839312,10.8750647 37.6304013,0.000131300131 24.2420311,0.000131300131 Z" id="path-3"></path>
        <filter x="-38.4%" y="-30.1%" width="168.6%" height="168.5%" filterUnits="objectBoundingBox" id="filter-5">
            <feMorphology radius="3.63636364" operator="dilate" in="SourceAlpha" result="shadowSpreadOuter1"></feMorphology>
            <feOffset dx="-2" dy="2" in="shadowSpreadOuter1" result="shadowOffsetOuter1"></feOffset>
            <feGaussianBlur stdDeviation="4" in="shadowOffsetOuter1" result="shadowBlurOuter1"></feGaussianBlur>
            <feComposite in="shadowBlurOuter1" in2="SourceAlpha" operator="out" result="shadowBlurOuter1"></feComposite>
            <feColorMatrix values="0 0 0 0 0   0 0 0 0 0   0 0 0 0 0  0 0 0 0.1 0" type="matrix" in="shadowBlurOuter1"></feColorMatrix>
        </filter>
        <filter x="-103.7%" y="-182.1%" width="307.4%" height="464.3%" filterUnits="objectBoundingBox" id="filter-6">
            <feGaussianBlur stdDeviation="2.45660199" in="SourceGraphic"></feGaussianBlur>
        </filter>
        <filter x="-103.7%" y="-182.2%" width="307.4%" height="464.3%" filterUnits="objectBoundingBox" id="filter-7">
            <feGaussianBlur stdDeviation="2.45660199" in="SourceGraphic"></feGaussianBlur>
        </filter>
        <path d="M12.6918074,27.9106418 C10.6178986,27.6883336 7.74760642,25.9270347 6.09344782,24.1437052 C5.44754642,23.4461667 4.98724888,22.7477699 4.83162719,22.1357786 C4.81392344,22.0608176 4.81363789,22.0599592 4.81335235,22.0585287 C4.30793879,19.5287358 4.09149615,16.3826599 4.09149615,16.3826599 C4.08264427,16.3858071 3.97299523,16.4212849 3.82194225,16.421571 C3.60121644,16.4207126 3.30025266,16.3463238 3.09380407,15.9964101 C2.93275704,15.7200269 2.98101404,15.0765634 2.7825607,14.1655862 C2.62865227,13.4614672 2.31255464,12.8119954 2.31198355,12.3173095 C2.31169801,11.9922875 2.44733159,11.7342155 2.85480343,11.5717044 C2.96445247,11.5285017 3.07581478,11.5084739 3.18946144,11.5084739 C3.75655259,11.5099045 4.38503577,11.9991542 4.57263843,12.8271592 C4.76387582,12.7761034 3.63459439,9.78252724 3.82194225,9.72513704 C9.5065488,7.98377348 14.520488,5.06318457 16.5478545,2.07122052 C18.4382547,0.872880051 23.0362238,8.6626625 21.6789409,12.8271592 C21.7725995,12.4128706 21.9534395,12.0835569 22.2050041,11.8581015 C22.4657061,11.6277822 22.7586746,11.5090461 23.0362238,11.5084739 C23.1552958,11.50876 23.2680858,11.52936 23.3737372,11.5717044 C23.7812091,11.7342155 23.9168426,11.9922875 23.9165571,12.3173095 C23.9157005,12.8119954 23.5996028,13.4614672 23.44598,14.1655862 C23.2472411,15.0765634 23.2954981,15.7200269 23.137592,15.9912601 C22.9300013,16.346896 22.6258965,16.421571 22.407455,16.421571 C22.2501201,16.421571 22.1370445,16.3826599 22.1370445,16.3826599 C22.1370445,16.3826599 21.9134633,19.5287358 21.413475,22.0304898 C21.2878355,22.6585033 20.8135463,23.395239 20.1376627,24.1271108 C19.9923206,24.2841857 19.8395544,24.4389717 19.679364,24.5926133 C17.9877991,26.2131456 15.4198984,27.7135114 13.5227416,27.9120724 C13.3825393,27.926664 13.2460491,27.9341029 13.1141276,27.9341029 C12.9776373,27.9341029 12.836864,27.9260918 12.6918074,27.9106418 Z" id="path-8"></path>
        <radialGradient cx="50%" cy="0%" fx="50%" fy="0%" r="110.100378%" gradientTransform="translate(0.500000,0.000000),scale(1.000000,0.868873),rotate(90.000000),translate(-0.500000,-0.000000)" id="radialGradient-10">
            <stop stop-color="#EEEEEE" offset="0%"></stop>
            <stop stop-color="#BCBCBC" offset="100%"></stop>
        </radialGradient>
        <filter x="-70.5%" y="-100.9%" width="240.9%" height="301.8%" filterUnits="objectBoundingBox" id="filter-11">
            <feGaussianBlur stdDeviation="3.94320515" in="SourceGraphic"></feGaussianBlur>
        </filter>
    </defs>
    <g id="UI" stroke="none" stroke-width="1" fill="none" fill-rule="evenodd">
        <g id="female_idle">
            <mask id="mask-2" fill="white">
                <use xlink:href="#path-1"></use>
            </mask>
            <use id="Oval-7" fill="#F3F7FA" xlink:href="#path-1"></use>
            <g id="Group-9-Copy-3" mask="url(#mask-2)">
                <mask id="mask-4" fill="white">
                    <use xlink:href="#path-3"></use>
                </mask>
                <g id="Mask">
                    <use fill="black" fill-opacity="1" filter="url(#filter-5)" xlink:href="#path-3"></use>
                    <use stroke="#FFFFFF" stroke-width="7.27272727" fill="#FFFFFF" fill-rule="evenodd" xlink:href="#path-3"></use>
                </g>
                <g id="Page-1-Copy-2" mask="url(#mask-4)">
                    <g transform="translate(4.438984, 2.492225)">
                        <g id="Group-7" transform="translate(1.081081, 30.704273)">
                            <path d="M12.441389,0.169377169 C12.441389,0.167145067 12.6211885,2.38454168 12.6207302,2.38217828 C12.6771109,3.14398164 12.7234073,3.54339664 12.7485036,4.11678432 C12.8210422,5.75409695 16.3493068,10.5405119 18.6564473,10.5088686 C20.9633587,10.5405119 24.4921963,5.75409695 24.5645057,4.11678432 C24.5902896,3.52514593 24.6389925,3.0975014 24.6975505,2.30799371 C24.6975505,2.30904411 24.8720786,0.16018616 24.8720786,0.161367861 C23.2228278,0.970833171 14.0720755,0.918181818 12.441389,0.169377169" id="Fill-1" fill="#BCBCBC"></path>
                            <path d="M11.5494447,0.275428285 C11.6205995,1.00388141 11.6933268,1.77842089 11.7553088,2.49584481 C15.8683964,4.66479167 18.5750303,4.289142 18.6564062,4.30699882 C18.6535233,4.30489801 13.0256118,1.9886324 11.5494447,0.275428285" id="Fill-3" fill="#000000" style="mix-blend-mode: multiply;" filter="url(#filter-6)"></path>
                            <path d="M25.7701163,0.0875771876 C25.6989615,0.815636416 25.6262342,1.59004459 25.5645143,2.30799371 C21.4514267,4.47615278 18.7446618,4.1010283 18.6631548,4.11875382 C18.6660377,4.11678432 24.2935561,1.8001248 25.7701163,0.0875771876" id="Fill-5" fill="#000000" style="mix-blend-mode: multiply;" filter="url(#filter-7)"></path>
                            <path d="M36.8784275,18.3820184 C36.8784275,18.3820184 35.9003849,10.0944854 33.1093797,8.52295412 C30.3187069,6.95142285 24.5587938,4.17034153 24.5556921,4.16915983 C24.4857923,5.80647247 23.941959,5.38473512 23.941959,5.38473512 C21.0228337,8.01116613 16.2083669,8.08765476 13.4778105,5.25239968 C13.4778105,5.25239968 13.0153611,5.75409695 12.9452398,4.11678432 C12.9452398,4.11678432 6.99467727,6.95116025 4.20345056,8.52295412 C1.41200231,10.0944854 0.434070434,18.3820184 0.434070434,18.3820184 L36.8784275,18.3820184 Z" id="Fill-11" fill="#7C9CB4"></path>
                        </g>
                        <g id="Group-10" transform="translate(6.797707, 7.037424)">
                            <path d="M4.53535188,19.5430717 C4.30778298,18.5068937 18.9862666,16.0177847 20.2890658,20.1503348 C20.7546928,21.627329 21.7635513,21.5166768 23.0828279,19.2394401 C26.6526349,12.1800065 24.1420966,-5.27880782 12.7027027,1.85653369 C3.45223074,1.85653369 -4.46677034,6.18328333 4.53535188,19.5430717 Z" id="Fill-70" fill="#43403E"></path>
                            <path d="M20.2478743,20.4120476 C22.3380832,20.085589 24.3244916,22.4798607 25.3697125,25.0922561 C26.4149333,27.7048939 26.7286625,30.6435055 29.5508286,31.8407625 C23.279038,33.2561432 17.8846651,27.2936094 18.5751951,23.459721 C19.202188,19.9765272 18.1574326,20.7382638 20.2478743,20.4120476" id="Fill-52" fill="#43403E" transform="translate(24.033132, 26.217896) rotate(-345.000000) translate(-24.033132, -26.217896) "></path>
                            <mask id="mask-9" fill="white">
                                <use xlink:href="#path-8"></use>
                            </mask>
                            <use id="Fill-405" fill="#DBDBDB" xlink:href="#path-8"></use>
                            <path d="M12.5533825,2.96239356 C10.9170844,2.95202085 8.17677314,2.44493974 6.98443898,3.45017355 L6.98443898,3.45017355 C4.03328419,5.93857364 5.52596233,11.1855895 4.54407862,13.5844429 L4.54407862,13.5844429 C4.22263718,12.1637755 2.98850123,11.4445133 2.1018837,11.7992863 L2.1018837,11.7992863 C0.641310401,12.3825215 1.63734644,13.8282672 2.00006552,15.4879009 L2.00006552,15.4879009 C2.28219492,16.7831767 2.21352989,17.6978134 2.43760852,18.0833106 L2.43760852,18.0833106 C2.94552007,18.9539618 3.86018018,18.6405483 3.86018018,18.6405483 L3.86018018,18.6405483 C3.86018018,18.6405483 4.17415233,19.8596701 4.67158067,22.3499083 L4.67158067,22.3499083 C5.0576249,24.2826463 9.34158886,28.5380835 12.9398198,28.58115 L12.9398198,28.58115 C16.4412121,28.5393965 20.8035381,24.3387114 21.2000655,22.3499083 L21.2000655,22.3499083 C21.6973628,19.8596701 22.0190663,18.6405483 22.0190663,18.6405483 L22.0190663,18.6405483 C22.0190663,18.6405483 22.9343817,18.9539618 23.441769,18.0833106 L23.441769,18.0833106 C23.6663718,17.6978134 23.5971826,16.7831767 23.8800983,15.4879009 L23.8800983,15.4879009 C24.2422932,13.8282672 25.2381982,12.3825215 23.7773628,11.7992863 L23.7773628,11.7992863 C23.2581818,11.5913069 22.6192301,11.7524122 22.1142015,12.206448 L22.1142015,12.206448 C21.7577723,12.5278707 21.4684357,12.996087 21.3352989,13.5844429 L21.3352989,13.5844429 C20.3542015,11.1855895 21.1306143,2.38362258 18.1857494,1.89177229 L18.1857494,1.89177229 C18.0494676,1.86905737 17.9058477,1.85868466 17.7563309,1.85868466 L17.7563309,1.85868466 C16.2192301,1.85868466 14.044095,2.95293995 12.5533825,2.96239356" id="Fill-8" fill="url(#radialGradient-10)" mask="url(#mask-9)"></path>
                            <path d="M13.005733,23.5219512 C14.7350526,23.5219512 16.1369431,22.3179466 16.1369431,20.8327316 L9.87452289,20.8327316 C9.87452289,22.3179466 11.2764134,23.5219512 13.005733,23.5219512 Z" id="Oval-201" fill="#FFFFFF" mask="url(#mask-9)"></path>
                        </g>
                        <g id="Group-19" transform="translate(0.000000, 0.111343)">
                            <path d="M28.1329402,19.9032486 C27.1519738,17.5042639 27.9282555,8.70242827 24.9835217,8.21057798 C23.4469451,7.95414882 20.9869287,9.27082654 19.3510238,9.28133055 C17.7147256,9.27082654 14.9745455,8.76374543 13.7820803,9.76897924 C10.8310565,12.2573793 12.3236036,17.5042639 11.3418509,19.9032486 C12.7279934,18.5714713 12.0738411,17.0419561 12.8008518,14.4206803 C14.7633088,22.5767818 24.4296151,18.1345045 28.1329402,19.9032486" id="Fill-14" fill="#A6A5A4" style="mix-blend-mode: darken;" filter="url(#filter-11)"></path>
                            <path d="M19.4350729,3.83547379 C12.6693399,3.79962885 9.42124816,9.06108771 9.0455561,11.9445699 C8.70970025,14.5221228 10.7180714,17.2063529 10.7326169,18.0389271 C11.196892,18.3507649 11.1795446,21.6167941 11.3419034,22.3322485 C11.4241055,22.1313804 11.659141,21.7815668 11.7107482,21.5440712 C12.2272841,19.1669782 11.2444069,15.2489831 13.1710925,12.8307145 C11.3419034,22.3322485 27.6254095,18.745526 27.6822277,21.6869566 C28.4398034,21.6869566 28.9120262,21.0796935 28.9120262,19.7397274 C28.9120262,17.360207 29.2792007,14.4911359 28.9120262,11.9445699 C28.5140573,9.18582284 26.4801835,3.87184392 19.4350729,3.83547379 Z" id="Fill-15" fill="#43403E"></path>
                            <g id="Page-1" transform="translate(5.257985, 5.290853)"></g>
                            <g id="Group" fill="#7C9CB4">
                                <path d="M21.1140688,0.473333798 C20.9483184,0.452023959 20.7962891,0.568884362 20.7743354,0.734826135 L20.742777,0.975421082 C20.7345443,1.03605101 20.7456584,1.09530611 20.7710424,1.14672468 C18.3957899,1.15786079 15.7444698,0.913141361 13.7484675,2.116941 C11.9014758,3.22931455 10.5974264,5.84946227 9.15589201,10.6319399 C9.15589201,10.6319399 0.915984817,12.3447009 0.646640441,12.464036 C0.429573298,12.5595866 0.34326784,12.788908 0.465110839,13.0260658 C1.41008013,14.8756223 3.42364545,15.5530002 5.35804026,15.7853462 C5.95696446,15.8569747 10.0487213,15.8564248 10.0487213,15.8564248 C19.1018756,17.9214169 30.8967718,16.8999195 31.2310168,15.218092 C31.3823601,14.4586369 33.3178526,6.66803502 28.4195719,3.34163802 C26.9574559,2.34846208 24.4834119,1.94687474 22.4249787,1.37370883 C22.4664163,1.32957684 22.4952305,1.27197154 22.504012,1.2066672 L22.5350216,0.967309595 C22.5572497,0.800817892 22.4397975,0.648761885 22.2748704,0.62662715 C21.1387667,0.476908351 21.7892821,0.563110084 21.1140688,0.473333798" id="Fill-17"></path>
                                <path d="M22.3112385,0.584580418 C22.6379369,0.623213092 22.8707833,0.91976355 22.8330504,1.24656023 L22.826327,1.30086595 C22.7880453,1.62821256 22.4912588,1.86179588 22.1652465,1.82330069 L21.2420936,1.71386436 C20.9158069,1.67468175 20.6822745,1.37826878 20.7208306,1.05174706 L20.7270051,0.997166382 C20.7655613,0.66981977 21.0620734,0.43637393 21.3882229,0.475006605" id="Fill-18"></path>
                            </g>
                        </g>
                    </g>
                </g>
            </g>
            <path d="M30.0567442,37.308653 C30.0567442,37.6692896 27.5379528,39.9465263 24.5643939,39.9465263 C21.5908351,39.9465263 18.5795455,37.3087272 18.5795455,37.3087272 L16.9318182,38.10576 C16.9318182,38.10576 18.8636364,41.9011544 24.6401515,41.9011544 C30.4166667,41.9011544 31.5246212,38.10576 31.5246212,38.10576 L30.0567442,37.308653 Z" id="Path-2" fill="#155D94" mask="url(#mask-2)"></path>
        </g>
    </g>
</svg>