<?xml version="1.0" encoding="UTF-8"?>
<svg width="41px" height="61px" viewBox="0 0 41 61" version="1.1" xmlns="http://www.w3.org/2000/svg" xmlns:xlink="http://www.w3.org/1999/xlink">
    <title>Girl</title>
    <g id="Space/Facility-page" stroke="none" stroke-width="1" fill="none" fill-rule="evenodd">
        <g id="Booking_season_4" transform="translate(-710.000000, -294.000000)" fill="#155D94" fill-rule="nonzero">
            <path d="M728.799438,294.5 C732.695465,294.5 735.935974,295.378449 738.461456,297.115204 C739.697418,296.484406 741.094055,296.186401 742.45224,296.271088 C744.638519,296.407959 746.738281,297.526276 748.069916,299.263489 C749.416199,301.01947 750.046539,303.469879 749.845123,306.163818 C749.519653,310.53775 747.0784,314.933197 746.899414,319.059479 C746.849518,320.239593 747.008362,321.14505 747.385559,321.82666 C747.799378,322.575104 748.564301,323.066284 749.246368,323.020508 C749.526062,323.002197 749.796143,323.117096 749.976501,323.330414 C750.156403,323.544189 750.224609,323.830292 750.159607,324.102661 C749.541626,326.684906 747.351685,328.805267 744.833984,329.258453 C744.428406,329.331238 744.013214,329.367401 743.595276,329.367401 C742.807007,329.367401 742.007294,329.23877 741.2323,328.984711 C740.771332,328.833191 740.52002,328.336975 740.671081,327.875549 C740.822144,327.414581 741.318817,327.163269 741.780243,327.314331 C742.690277,327.612793 743.639221,327.686951 744.523163,327.528107 C746.0672,327.250244 747.447357,326.106751 748.129883,324.618103 C747.206574,324.320099 746.374817,323.631165 745.847473,322.678101 C745.309601,321.705811 745.079346,320.497772 745.142975,318.984406 C745.344849,314.338104 747.770538,310.3638 748.091888,306.032898 C748.261261,303.769714 747.758179,301.745483 746.67511,300.332825 C745.647888,298.993408 744.028778,298.130981 742.342835,298.025696 C741.558685,297.977173 740.755768,298.094818 739.999542,298.36261 C742.546081,300.787384 743.384247,303.67038 743.658447,305.399353 C743.869019,305.548584 744.07959,305.700562 744.290161,305.855743 C744.50531,306.013672 744.636688,306.260864 744.647675,306.527283 C744.704033,307.898096 744.715153,309.226883 744.716446,310.10485 L744.716207,310.635625 L744.716207,310.635625 L744.715881,310.77533 L744.715881,310.77533 L744.715764,311.068328 L744.715764,311.068328 L744.716339,311.106751 C744.722748,311.493561 744.532318,311.848328 744.205475,312.055695 C744.075012,312.138092 743.933105,312.191193 743.787537,312.214539 C743.84201,313.682129 743.767853,315.150177 743.565521,316.598541 C744.247131,317.237579 744.673767,318.145783 744.673767,319.151489 L744.673767,319.151489 L744.673767,320.743134 C744.673767,322.673065 743.10318,324.243195 741.173248,324.243195 L741.173248,324.243195 L740.493469,324.243195 C739.62738,326.402466 738.135071,328.446381 736.513672,330.0513 L736.513672,330.0513 L736.513672,332.292053 C736.513672,332.965424 736.911011,333.574707 737.525787,333.844788 C737.847595,333.986237 745.29953,337.271149 745.508728,337.363159 C746.77948,337.925293 747.599792,339.183228 747.599792,340.568878 L747.599792,340.568878 L747.599792,341.492188 C747.599792,341.977417 747.206574,342.371094 746.720886,342.371094 C746.235657,342.371094 745.84198,341.977417 745.84198,341.492188 L745.84198,341.492188 L745.84198,340.568878 C745.84198,339.878571 745.432282,339.251434 744.798737,338.971283 L744.798737,338.971283 L741.127014,337.353088 C740.77179,338.529541 740.556641,339.544403 740.536041,340.543701 L740.536041,340.543701 L740.536499,340.568878 C740.536499,340.586731 740.535583,340.604584 740.534668,340.621979 C740.509491,343.012421 741.458435,344.024536 742.160187,345.717804 C742.747955,347.135956 742.980042,348.703339 742.845459,350.252869 C743.725739,349.914581 744.582672,349.543335 745.412598,349.139587 C745.677643,349.010498 745.84198,348.750488 745.84198,348.460266 L745.84198,348.460266 L745.84198,344.997284 C745.84198,344.512054 746.235199,344.118378 746.720886,344.118378 C747.206574,344.118378 747.599792,344.512054 747.599792,344.997284 L747.599792,344.997284 L747.599792,348.460266 C747.599792,349.428894 747.056427,350.294525 746.181641,350.720245 C743.353577,352.096283 740.237122,353.111603 736.945343,353.741486 C731.725464,354.74353 726.03363,354.75177 720.816956,353.772156 C717.46521,353.14502 714.292908,352.119171 711.417694,350.720245 C710.543366,350.294525 710,349.428894 710,348.460266 L710,348.460266 L710,340.568878 C710,339.183228 710.820313,337.925293 712.090149,337.363617 L712.090149,337.363617 L720.07309,333.845245 C720.688782,333.575165 721.086121,332.965424 721.086121,332.292053 L721.086121,332.292053 L721.086121,330.0513 C719.433136,328.414795 717.958679,326.368591 717.106323,324.243195 L717.106323,324.243195 L716.425629,324.243195 C714.495239,324.243195 712.92511,322.673065 712.92511,320.743134 L712.92511,320.743134 L712.92511,319.151489 C712.92511,318.145783 713.351746,317.237579 714.033356,316.598541 C713.831482,315.146515 713.757324,313.678009 713.811798,312.214081 C713.666687,312.191193 713.525238,312.138092 713.395691,312.05661 C712.839508,311.705048 712.883911,311.208374 712.883453,310.741913 L712.883383,310.034956 C712.885501,309.110465 712.898721,307.716795 712.961731,306.305725 C712.983704,305.814087 713.319244,305.622284 713.989868,305.108673 C714.486542,302.373077 715.871735,299.885132 717.916565,298.07193 C718.279572,297.749664 718.835297,297.783081 719.157104,298.146088 C719.47937,298.509094 719.445953,299.064819 719.082947,299.386627 C717.597046,300.704987 716.740112,302.220184 716.246643,303.528931 C724.270325,298.436768 732.744446,298.586914 741.512451,303.978912 C741.066132,302.614777 740.240326,300.992462 738.714142,299.566528 C738.457794,299.32666 738.189545,299.100067 737.909393,298.886292 C737.881927,298.867981 737.855835,298.847839 737.8302,298.826324 C735.554657,297.121155 732.523346,296.257813 728.799438,296.257813 C726.126099,296.257813 723.781433,296.712372 721.830444,297.608673 C721.388702,297.811005 720.86731,297.617828 720.66452,297.176544 C720.462189,296.735718 720.655365,296.213867 721.096649,296.011078 C723.279266,295.008575 725.871124,294.5 728.799438,294.5 Z M720.71579,341.447784 L718.794556,341.447784 C718.666611,343.00901 718.241209,343.984025 717.785113,344.894665 L717.46773,345.521237 C717.327405,345.800842 717.190003,346.085754 717.063294,346.391174 C716.481934,347.794678 716.32721,349.379913 716.616058,350.903809 C718.277741,351.435272 719.992981,351.852753 721.753082,352.154419 C726.398926,352.948181 731.344147,352.933533 735.933228,352.139313 L735.933228,352.139313 L736.010132,352.12598 L736.010132,352.12598 L736.042633,352.120087 C737.73407,351.821625 739.38385,351.415588 740.983734,350.903809 C741.272583,349.379913 741.117859,347.79422 740.536499,346.390717 C739.927216,344.922211 739.000702,343.828613 738.805695,341.447784 L738.805695,341.447784 L736.88446,341.447784 C736.444092,342.550537 735.924072,343.386871 735.329437,343.94397 C733.478241,345.679352 730.867615,345.901825 728.799896,345.901825 C724.864044,345.901825 723.243103,344.855377 722.270355,343.94397 C721.676178,343.386871 721.155701,342.550537 720.71579,341.447784 L720.71579,341.447784 Z M716.472321,337.353546 L712.80014,338.971741 C712.167511,339.251892 711.757813,339.878571 711.757813,340.568878 L711.757813,340.568878 L711.757813,348.460266 C711.757813,348.750488 711.92215,349.010498 712.186737,349.139587 C713.01712,349.543335 713.874054,349.914581 714.754333,350.252869 C714.619751,348.703796 714.851837,347.136414 715.439606,345.717804 C716.149597,344.004852 717.089844,343.018372 717.065124,340.62381 C717.064209,340.605957 717.063294,340.587189 717.063294,340.568878 L717.063751,340.54187 C717.043152,339.54303 716.827545,338.529083 716.472321,337.353546 L716.472321,337.353546 Z M734.755859,331.571075 C733.188019,332.734711 731.633453,333.384277 730.315552,333.384277 L730.315552,333.384277 L727.284241,333.384277 C725.965881,333.384277 724.411774,332.734711 722.843933,331.571075 L722.843933,331.571075 L722.843933,332.292053 C722.843933,333.530762 722.182922,334.663269 721.130981,335.276215 C721.516419,338.854553 722.398529,341.655151 723.472443,342.661774 C724.866333,343.968231 726.947784,344.14447 728.799896,344.14447 C730.652008,344.14447 732.73346,343.968231 734.12735,342.661774 C735.201263,341.654694 736.083374,338.854553 736.468811,335.276215 C735.417328,334.663727 734.755859,333.530762 734.755859,332.292053 L734.755859,332.292053 Z M719.450989,336.04068 L718.091888,336.639893 C718.42926,337.730286 718.668671,338.720428 718.770294,339.689972 L718.770294,339.689972 L720.141754,339.689972 C719.802551,338.421967 719.586945,337.127411 719.450989,336.04068 L719.450989,336.04068 Z M738.148804,336.04068 C738.012848,337.127411 737.797241,338.421967 737.458038,339.689972 L737.458038,339.689972 L738.829498,339.689972 C738.931122,338.720428 739.170074,337.730286 739.507446,336.639893 L739.507446,336.639893 Z M728.799896,311.853821 C726.426392,311.853821 725.037994,312.446167 723.430328,313.131897 C722.710724,313.438599 721.967316,313.756287 721.081543,314.050171 C720.009003,314.406311 719.023895,314.447968 718.130341,314.177429 L718.130341,314.177429 L718.12439,320.828278 C718.12439,323.649475 720.431061,327.002136 722.534943,329.006226 C722.558746,329.026367 722.580719,329.047424 722.602234,329.069855 C724.284058,330.654175 726.032715,331.626465 727.284241,331.626465 L727.284241,331.626465 L730.315552,331.626465 C731.56662,331.626465 733.315277,330.654175 734.997101,329.070313 C735.018616,329.047424 735.041046,329.025909 735.06485,329.005768 C737.153168,327.016327 739.474945,323.662292 739.474945,320.827362 L739.474945,320.827362 L739.468994,314.177429 C739.082642,314.294617 738.679352,314.35321 738.259125,314.35321 C737.70752,314.35321 737.127075,314.252503 736.518249,314.050171 C735.632019,313.756287 734.888611,313.439056 734.169464,313.131897 C732.56134,312.446167 731.172943,311.853821 728.799896,311.853821 Z M730.845184,322.240021 C731.243896,321.963532 731.791382,322.062866 732.067871,322.461578 C732.34436,322.860748 732.245483,323.408234 731.846313,323.684723 C730.939026,324.31369 729.885254,324.646484 728.799896,324.646484 C727.714539,324.646484 726.660767,324.31369 725.753021,323.684723 C725.354309,323.408234 725.254974,322.860748 725.531464,322.461578 C725.807953,322.062866 726.355896,321.963532 726.754608,322.240021 C727.366638,322.664368 728.073883,322.888672 728.799896,322.888672 C729.525909,322.888672 730.232697,322.664368 730.845184,322.240021 Z M741.230011,317.409699 L741.232758,320.826447 C741.232758,321.354706 741.167755,321.910889 741.042328,322.485382 L741.042328,322.485382 L741.173248,322.485382 C742.134094,322.485382 742.915497,321.703979 742.915497,320.743134 L742.915497,320.743134 L742.915497,319.151489 C742.915497,318.550446 742.609711,318.01944 742.145538,317.706329 C742.138672,317.701752 742.131805,317.697174 742.124939,317.692596 C741.865845,317.523224 741.559143,317.420685 741.230011,317.409699 L741.230011,317.409699 Z M716.369782,317.409699 C716.040649,317.420227 715.733948,317.522766 715.474854,317.691681 C715.467072,317.697174 715.45929,317.70221 715.451508,317.707245 C714.988251,318.020813 714.682922,318.550903 714.682922,319.151489 L714.682922,319.151489 L714.682922,320.743134 C714.682922,321.703979 715.464783,322.485382 716.425629,322.485382 L716.425629,322.485382 L716.557465,322.485382 C716.432037,321.911346 716.367035,321.355164 716.367035,320.827362 L716.367035,320.827362 Z M733.838959,317.360718 C734.324646,317.360718 734.717865,317.753937 734.717865,318.239624 L734.717865,318.239624 L734.717865,318.602173 C734.717865,319.08786 734.324646,319.481079 733.838959,319.481079 C733.353729,319.481079 732.960052,319.08786 732.960052,318.602173 L732.960052,318.602173 L732.960052,318.239624 C732.960052,317.753937 733.353729,317.360718 733.838959,317.360718 Z M723.760376,317.360718 C724.246063,317.360718 724.639282,317.753937 724.639282,318.239624 L724.639282,318.239624 L724.639282,318.602173 C724.639282,319.08786 724.246063,319.481079 723.760376,319.481079 C723.275146,319.481079 722.88147,319.08786 722.88147,318.602173 L722.88147,318.602173 L722.88147,318.239624 C722.88147,317.753937 723.275146,317.360718 723.760376,317.360718 Z M721.525574,314.467194 C723.066864,313.710968 724.629669,313.710968 726.170502,314.467194 C726.606293,314.681427 726.786194,315.207855 726.572418,315.643646 C726.358185,316.079437 725.831757,316.258881 725.395966,316.045105 C724.354553,315.533783 723.341522,315.533783 722.30011,316.045105 C722.175598,316.106445 722.043762,316.135284 721.913757,316.135284 C721.589203,316.135284 721.277008,315.954468 721.124115,315.643646 C720.910339,315.207855 721.090241,314.680969 721.525574,314.467194 Z M731.429291,314.467194 C732.970123,313.710968 734.532928,313.710968 736.074219,314.467194 C736.51001,314.680969 736.689453,315.207855 736.475677,315.643646 C736.323242,315.954468 736.01059,316.135284 735.686035,316.135284 C735.55603,316.135284 735.424194,316.106445 735.299225,316.045105 C734.257813,315.534241 733.245239,315.533783 732.203827,316.045105 C731.767578,316.259338 731.24115,316.079437 731.027374,315.643646 C730.813599,315.207855 730.9935,314.680969 731.429291,314.467194 Z M742.028351,312.224609 C741.773834,312.570221 741.5065,312.874176 741.225891,313.135559 L741.225891,313.135559 L741.22818,315.651428 C741.459351,315.65509 741.685028,315.681183 741.903381,315.727875 C742.032928,314.567444 742.074585,313.396027 742.028351,312.224609 Z M715.570984,312.224152 C715.524292,313.392822 715.565949,314.564697 715.695496,315.727875 C715.914307,315.681183 716.139984,315.65509 716.371155,315.651428 L716.371155,315.651428 L716.373444,313.136017 C716.093292,312.874176 715.825501,312.570221 715.570984,312.224152 Z M740.718689,311.04129 C733.089142,308.009979 724.510651,308.009979 716.881104,311.04129 C717.873077,312.488281 719.000092,312.888824 720.528107,312.381622 C721.344299,312.110626 722.054291,311.807587 722.740479,311.515076 C724.451141,310.784943 726.067047,310.095551 728.799896,310.095551 C731.532288,310.095551 733.148193,310.784943 734.859314,311.515076 C735.54596,311.807587 736.255493,312.110626 737.072144,312.381622 C738.599701,312.888367 739.726715,312.487824 740.718689,311.04129 Z M728.355866,301.573822 C723.937531,301.546356 719.555817,303.136169 715.327911,306.30069 C715.325623,306.302521 715.323792,306.303894 715.32196,306.305267 C715.114593,306.460449 714.907684,306.619293 714.701233,306.782257 C714.65271,308.045685 714.642639,309.264252 714.640808,310.087311 C714.844513,309.994385 715.049591,309.902832 715.256042,309.81311 C723.862915,306.076385 733.735504,306.076385 742.342377,309.812653 C742.54837,309.901917 742.754364,309.993927 742.958527,310.087311 C742.957153,309.315063 742.947998,308.199951 742.907257,307.023041 C737.926331,303.435547 733.032379,301.602661 728.355866,301.573822 Z" id="Girl"></path>
        </g>
    </g>
</svg>