<?xml version="1.0" encoding="UTF-8"?>
<svg width="49px" height="50px" viewBox="0 0 49 50" version="1.1" xmlns="http://www.w3.org/2000/svg" xmlns:xlink="http://www.w3.org/1999/xlink">
    <title>male_active</title>
    <defs>
        <ellipse id="path-1" cx="24.2424242" cy="24.2905243" rx="24.2424242" ry="24.2905243"></ellipse>
        <path d="M24.2420311,0.000131300131 C10.8535299,0.000131300131 0,10.8750647 0,24.2901304 C0,37.7051961 10.8535299,48.5801295 24.2420311,48.5801295 C37.6304013,48.5801295 48.4839312,37.7051961 48.4839312,24.2901304 C48.4839312,10.8750647 37.6304013,0.000131300131 24.2420311,0.000131300131 Z" id="path-3"></path>
        <filter x="-34.0%" y="-25.7%" width="159.8%" height="159.7%" filterUnits="objectBoundingBox" id="filter-5">
            <feMorphology radius="1.5" operator="dilate" in="SourceAlpha" result="shadowSpreadOuter1"></feMorphology>
            <feOffset dx="-2" dy="2" in="shadowSpreadOuter1" result="shadowOffsetOuter1"></feOffset>
            <feGaussianBlur stdDeviation="4" in="shadowOffsetOuter1" result="shadowBlurOuter1"></feGaussianBlur>
            <feComposite in="shadowBlurOuter1" in2="SourceAlpha" operator="out" result="shadowBlurOuter1"></feComposite>
            <feColorMatrix values="0 0 0 0 0   0 0 0 0 0   0 0 0 0 0  0 0 0 0.1 0" type="matrix" in="shadowBlurOuter1"></feColorMatrix>
        </filter>
        <filter x="-103.7%" y="-182.1%" width="307.4%" height="464.3%" filterUnits="objectBoundingBox" id="filter-6">
            <feGaussianBlur stdDeviation="2.45660199" in="SourceGraphic"></feGaussianBlur>
        </filter>
        <filter x="-103.7%" y="-182.2%" width="307.4%" height="464.3%" filterUnits="objectBoundingBox" id="filter-7">
            <feGaussianBlur stdDeviation="2.45660199" in="SourceGraphic"></feGaussianBlur>
        </filter>
        <path d="M0.118426446,11.0351383 C0.118427893,10.5742885 0.311680451,10.2083363 0.88976249,9.97749698 C1.77638002,9.62272402 3.01051597,10.3419861 3.33195741,11.7626536 C4.31384111,9.36380016 2.82116298,4.11678432 5.77231777,1.62838423 C6.96465192,0.623150423 9.70496314,1.13023153 11.3412613,1.14060424 C12.8319738,1.13115063 15.0071089,0.0368953369 16.5442097,0.0368953369 C16.6937265,0.0368953369 16.8373464,0.0472680473 16.9736282,0.06998297 C19.918493,0.561833262 19.1420803,9.36380016 20.1231777,11.7626536 C20.2563145,11.1742977 20.5456511,10.7060814 20.9020803,10.3846587 C21.4071089,9.93062283 22.0460606,9.76951757 22.5652416,9.97749698 C23.1435698,10.2083932 23.3368583,10.5744688 23.3368598,11.0354788 L23.3368598,11.035484 C23.3368589,11.7389693 22.8867824,12.6635115 22.6679771,13.6661116 C22.3850614,14.9613874 22.4542506,15.8760241 22.2296478,16.2615213 C21.7222604,17.1321724 20.8069451,16.818759 20.8069451,16.818759 C20.8069451,16.818759 20.4852416,18.0378807 19.9879443,20.528119 C19.5914169,22.5169221 15.2290909,26.7176072 11.7276986,26.7593607 C8.12946765,26.7162942 3.84550369,22.460857 3.45945946,20.528119 C2.96203112,18.0378807 2.64805897,16.818759 2.64805897,16.818759 C2.64805897,16.818759 1.73339885,17.1321724 1.22548731,16.2615213 C1.00140868,15.8760241 1.07007371,14.9613874 0.787944308,13.6661116 C0.568787304,12.6633511 0.118428604,11.7386737 0.118426446,11.0351486 L0.118426446,11.0351383 L0.118426446,11.0351383 Z" id="path-8"></path>
        <filter x="-70.5%" y="-100.9%" width="240.9%" height="301.8%" filterUnits="objectBoundingBox" id="filter-10">
            <feGaussianBlur stdDeviation="3.94320515" in="SourceGraphic"></feGaussianBlur>
        </filter>
        <filter x="-7.4%" y="-9.7%" width="114.7%" height="119.5%" filterUnits="objectBoundingBox" id="filter-11">
            <feGaussianBlur stdDeviation="0.520884521" in="SourceGraphic"></feGaussianBlur>
        </filter>
    </defs>
    <g id="UI" stroke="none" stroke-width="1" fill="none" fill-rule="evenodd">
        <g id="male_active" transform="translate(0.000000, 0.282588)">
            <mask id="mask-2" fill="white">
                <use xlink:href="#path-1"></use>
            </mask>
            <use id="Oval-7" fill="#F3F7FA" xlink:href="#path-1"></use>
            <g id="Group-9-Copy-3" mask="url(#mask-2)">
                <mask id="mask-4" fill="white">
                    <use xlink:href="#path-3"></use>
                </mask>
                <g id="Mask">
                    <use fill="black" fill-opacity="1" filter="url(#filter-5)" xlink:href="#path-3"></use>
                    <use stroke="#0D4774" stroke-width="3" fill="#F3F7FA" fill-rule="evenodd" xlink:href="#path-3"></use>
                </g>
                <g id="Page-1-Copy-2" mask="url(#mask-4)">
                    <g transform="translate(2.620803, 2.492225)">
                        <g id="Group-7" transform="translate(14.414414, 30.704273)">
                            <path d="M0.0342932023,0.169377169 C0.0342932023,0.167145067 0.239895168,2.38454168 0.239371007,2.38217828 C0.303842752,3.14398164 0.356782965,3.54339664 0.385480753,4.11678432 C0.468429156,5.75409695 4.50302375,10.5405119 7.14125471,10.5088686 C9.77922359,10.5405119 13.8144734,5.75409695 13.8971597,4.11678432 C13.9266437,3.52514593 13.9823358,3.0975014 14.0492973,2.30799371 C14.0492973,2.30904411 14.2488714,0.16018616 14.2488714,0.161367861 C12.3629419,0.970833171 1.89899427,0.918181818 0.0342932023,0.169377169" id="Fill-1" fill="#BCBCBC"></path>
                            <path d="M0.0342932023,0.275428285 C0.105447993,1.00388141 0.178175266,1.77842089 0.240157248,2.49584481 C4.35324488,4.66479167 7.05987879,4.289142 7.14125471,4.30699882 C7.13837183,4.30489801 1.51046028,1.9886324 0.0342932023,0.275428285" id="Fill-3" fill="#000000" style="mix-blend-mode: multiply;" filter="url(#filter-6)"></path>
                            <path d="M14.2549648,0.0875771876 C14.18381,0.815636416 14.1110827,1.59004459 14.0493628,2.30799371 C9.93627518,4.47615278 7.22951024,4.1010283 7.14800328,4.11875382 C7.15088616,4.11678432 12.7784046,1.8001248 14.2549648,0.0875771876" id="Fill-5" fill="#000000" style="mix-blend-mode: multiply;" filter="url(#filter-7)"></path>
                        </g>
                        <g id="Group-10" transform="translate(9.828010, 8.251951)">
                            <mask id="mask-9" fill="white">
                                <use xlink:href="#path-8"></use>
                            </mask>
                            <use id="Clip-9" fill="#D8D8D8" xlink:href="#path-8"></use>
                            <path d="M11.3412613,1.14060424 C9.70496314,1.13023153 6.96465192,0.623150423 5.77231777,1.62838423 L5.77231777,1.62838423 C2.82116298,4.11678432 4.31384111,9.36380016 3.33195741,11.7626536 L3.33195741,11.7626536 C3.01051597,10.3419861 1.77638002,9.62272402 0.88976249,9.97749698 L0.88976249,9.97749698 C-0.570810811,10.5607322 0.425225225,12.0064779 0.787944308,13.6661116 L0.787944308,13.6661116 C1.07007371,14.9613874 1.00140868,15.8760241 1.22548731,16.2615213 L1.22548731,16.2615213 C1.73339885,17.1321724 2.64805897,16.818759 2.64805897,16.818759 L2.64805897,16.818759 C2.64805897,16.818759 2.96203112,18.0378807 3.45945946,20.528119 L3.45945946,20.528119 C3.84550369,22.460857 8.12946765,26.7162942 11.7276986,26.7593607 L11.7276986,26.7593607 C15.2290909,26.7176072 19.5914169,22.5169221 19.9879443,20.528119 L19.9879443,20.528119 C20.4852416,18.0378807 20.8069451,16.818759 20.8069451,16.818759 L20.8069451,16.818759 C20.8069451,16.818759 21.7222604,17.1321724 22.2296478,16.2615213 L22.2296478,16.2615213 C22.4542506,15.8760241 22.3850614,14.9613874 22.6679771,13.6661116 L22.6679771,13.6661116 C23.030172,12.0064779 24.026077,10.5607322 22.5652416,9.97749698 L22.5652416,9.97749698 C22.0460606,9.76951757 21.4071089,9.93062283 20.9020803,10.3846587 L20.9020803,10.3846587 C20.5456511,10.7060814 20.2563145,11.1742977 20.1231777,11.7626536 L20.1231777,11.7626536 C19.1420803,9.36380016 19.918493,0.561833262 16.9736282,0.06998297 L16.9736282,0.06998297 C16.8373464,0.0472680473 16.6937265,0.0368953369 16.5442097,0.0368953369 L16.5442097,0.0368953369 C15.0071089,0.0368953369 12.8319738,1.13115063 11.3412613,1.14060424" id="Fill-8" fill="#DBDBDB" mask="url(#mask-9)"></path>
                            <path d="M11.7936118,22.1233261 C14.0671682,22.1233261 15.9102499,20.5404073 15.9102499,18.5877781 L7.67697371,18.5877781 C7.67697371,20.5404073 9.52005536,22.1233261 11.7936118,22.1233261 Z" id="Oval-201" fill="#FFFFFF" mask="url(#mask-9)"></path>
                        </g>
                        <g id="Group-19" transform="translate(0.000000, 0.111343)">
                            <path d="M0,48.974949 L43.1110238,48.974949 C43.1110238,48.974949 41.9540704,40.687416 38.6525143,39.1158847 C35.3513514,37.5443534 28.3152826,34.7108966 28.3116134,34.7097149 C28.2289271,36.3470275 21.5557084,40.7332397 21.5557084,40.7332397 C21.5557084,40.7332397 14.8827518,36.3470275 14.7998034,34.7097149 C14.7998034,34.7097149 7.76072072,37.5440908 4.45890254,39.1158847 C1.15682228,40.687416 0,48.974949 0,48.974949" id="Fill-11" fill="#F7B500"></path>
                            <path d="M21.5557215,43.9583649 C21.5557215,43.9583649 29.6446978,36.9219908 29.7273841,35.2852034 C28.8630434,34.9317434 28.3128059,34.7101088 28.3116265,34.7097149 C28.2289402,36.3470275 21.5557215,40.733371 21.5557215,40.733371 C21.5557215,40.733371 14.8827649,36.3470275 14.7998165,34.7097149 C14.7998165,34.7097149 14.3778673,34.8797486 13.6950172,35.1582362 C13.7779656,36.7954175 21.5557215,43.9583649 21.5557215,43.9583649" id="Fill-13" fill="#F7B500" style="mix-blend-mode: multiply;"></path>
                            <path d="M29.951122,19.9032486 C28.9701556,17.5042639 29.7464373,8.70242827 26.8017035,8.21057798 C25.2651269,7.95414882 22.8051106,9.27082654 21.1692056,9.28133055 C19.5329075,9.27082654 16.7927273,8.76374543 15.6002621,9.76897924 C12.6492383,12.2573793 14.1417854,17.5042639 13.1600328,19.9032486 C14.5461753,18.5714713 13.8920229,17.0419561 14.6190336,14.4206803 C16.5814906,22.5767818 26.2477969,18.1345045 29.951122,19.9032486" id="Fill-14" fill="#A6A5A4" style="mix-blend-mode: darken;" filter="url(#filter-10)"></path>
                            <path d="M31.9908141,9.25921961 C31.5928452,6.50047255 28.2983653,1.44279149 21.2532547,1.40642136 C14.4875217,1.37057642 11.23943,6.63203528 10.8637379,9.51551747 C10.5278821,12.0930703 12.1256544,17.5061809 12.1401998,18.338755 C12.604475,18.6505928 12.9977265,19.1877416 13.1600852,19.9031961 C14.0650483,17.6918392 12.8700934,13.0615401 14.9892744,10.4016621 C13.1600852,19.9031961 29.1296839,17.8960109 29.9511744,19.9031961 C30.0843112,19.3148402 30.3736478,18.8467552 30.730208,18.5252012 C30.7328288,18.5237569 30.7347944,18.5221813 30.7371532,18.5203431 C30.7389877,17.1028269 32.3579885,11.8057857 31.9908141,9.25921961" id="Fill-15" fill-opacity="0.85" fill="#1E1E1E"></path>
                            <path d="M31.1134611,16.2063358 C31.5673841,14.0137549 32.2413235,10.9964779 31.9907748,9.25924587 C31.5928059,6.50049881 28.298457,1.44281775 21.2532154,1.40644762 C14.4874824,1.37060268 11.2393907,6.63206154 10.8638296,9.51554373 C10.6333301,11.2833687 11.3127731,14.3858595 11.7666962,16.4287582 C19.4372613,18.0768375 28.9490713,17.4794219 31.1134611,16.2063358" id="Fill-16" fill="#0D4774" style="mix-blend-mode: multiply;" filter="url(#filter-11)"></path>
                            <path d="M21.9956757,0.16963977 C21.8373792,0.149288249 21.6921867,0.260893361 21.6712203,0.419372619 L21.6410811,0.649147849 C21.6332187,0.707051207 21.6438329,0.763641564 21.6680753,0.812747813 C19.3996396,0.823383123 16.8675512,0.58966889 14.9613104,1.73933284 C13.1973792,2.8016822 11.9519738,5.3040001 10.5752662,9.87140647 C10.5752662,9.87140647 2.70591319,11.5071435 2.44868141,11.621112 C2.24137592,11.7123656 2.15895168,11.9313742 2.27531532,12.157867 C3.1777887,13.9242476 5.10080262,14.5711634 6.94820639,14.7930606 C7.52019656,14.861468 11.4279443,14.8609428 11.4279443,14.8609428 C20.0739722,16.8330707 31.3384439,15.8575108 31.6576577,14.2513163 C31.8021949,13.5260143 33.650647,6.08576109 28.9726454,2.90895441 C27.5762817,1.96044226 25.2134971,1.57691458 23.2476331,1.02952433 C23.2872072,0.987376987 23.3147256,0.932362232 23.3231122,0.86999467 L23.3527273,0.641401141 C23.3739558,0.482396682 23.2617854,0.337178737 23.1042752,0.316039416 C22.0192629,0.173053573 22.6405242,0.255378755 21.9956757,0.16963977" id="Fill-17" fill="#0D4774"></path>
                            <path d="M22.9980541,0.128608479 C23.3100606,0.165503816 23.5324357,0.448718199 23.4963997,0.760818611 L23.4899787,0.812682163 C23.4534185,1.12530778 23.1699787,1.3483867 22.8586274,1.31162266 L21.9769894,1.20710776 C21.6653759,1.16968722 21.4423456,0.886604137 21.4791679,0.574766325 L21.4850647,0.522640173 C21.521887,0.21001456 21.8050647,-0.0129330629 22.1165471,0.023962274" id="Fill-18" fill="#0D4774"></path>
                        </g>
                    </g>
                </g>
            </g>
        </g>
    </g>
</svg>