<svg width="20" height="19" viewBox="0 0 20 19" fill="none" xmlns="http://www.w3.org/2000/svg">
<path fill-rule="evenodd" clip-rule="evenodd" d="M10 18.7504L6.25 15.0004H3.75C2.75544 15.0004 1.80161 14.6053 1.09835 13.902C0.395088 13.1988 0 12.2449 0 11.2504V3.75037C0 2.7558 0.395088 1.80198 1.09835 1.09872C1.80161 0.395455 2.75544 0.000366211 3.75 0.000366211H16.25C17.2446 0.000366211 18.1984 0.395455 18.9016 1.09872C19.6049 1.80198 20 2.7558 20 3.75037V11.2504C20 12.2449 19.6049 13.1988 18.9016 13.902C18.1984 14.6053 17.2446 15.0004 16.25 15.0004H13.75L10 18.7504ZM3.85475 4.99924C3.85475 4.36641 4.36775 3.85341 5.00058 3.85341H15.0006C15.6334 3.85341 16.1464 4.36641 16.1464 4.99924C16.1464 5.63207 15.6334 6.14507 15.0006 6.14507H5.00058C4.36775 6.14507 3.85475 5.63207 3.85475 4.99924ZM4.99973 8.85495C4.36691 8.85495 3.8539 9.36796 3.8539 10.0008C3.8539 10.6336 4.36691 11.1466 4.99973 11.1466H12.4997C13.1326 11.1466 13.6456 10.6336 13.6456 10.0008C13.6456 9.36796 13.1326 8.85495 12.4997 8.85495H4.99973Z" fill="#0D4774"/>
</svg>
