<svg width="16" height="16" viewBox="0 0 16 16" fill="none" xmlns="http://www.w3.org/2000/svg">
<path d="M8.00016 4.66696C8.36816 4.66696 8.66683 4.96496 8.66683 5.33363V7.33363H10.6668C11.0355 7.33363 11.3335 7.63163 11.3335 8.00029C11.3335 8.36896 11.0355 8.66696 10.6668 8.66696H8.00016C7.63216 8.66696 7.3335 8.36896 7.3335 8.00029V5.33363C7.3335 4.96496 7.63216 4.66696 8.00016 4.66696Z" fill="#A6BCCC"/>
<path fill-rule="evenodd" clip-rule="evenodd" d="M8.00016 1.3335C4.32416 1.3335 1.3335 4.32416 1.3335 8.00016C1.3335 11.6762 4.32416 14.6668 8.00016 14.6668C11.6762 14.6668 14.6668 11.6762 14.6668 8.00016C14.6668 4.32416 11.6762 1.3335 8.00016 1.3335ZM2.66676 8.00029C2.66676 10.941 5.05943 13.3336 8.0001 13.3336C10.9408 13.3336 13.3334 10.941 13.3334 8.00029C13.3334 5.05963 10.9408 2.66696 8.0001 2.66696C5.05943 2.66696 2.66676 5.05963 2.66676 8.00029Z" fill="#A6BCCC"/>
</svg>
