<svg width="20" height="19" viewBox="0 0 20 19" fill="none" xmlns="http://www.w3.org/2000/svg">
<path fill-rule="evenodd" clip-rule="evenodd" d="M10 18.7505L6.25 15.0005H3.75C2.75544 15.0005 1.80161 14.6054 1.09835 13.9021C0.395088 13.1989 0 12.2451 0 11.2505V3.75049C0 2.75593 0.395088 1.8021 1.09835 1.09884C1.80161 0.395577 2.75544 0.000488281 3.75 0.000488281H16.25C17.2446 0.000488281 18.1984 0.395577 18.9016 1.09884C19.6049 1.8021 20 2.75593 20 3.75049V11.2505C20 12.2451 19.6049 13.1989 18.9016 13.9021C18.1984 14.6054 17.2446 15.0005 16.25 15.0005H13.75L10 18.7505ZM3.85475 4.99936C3.85475 4.36654 4.36775 3.85353 5.00058 3.85353H15.0006C15.6334 3.85353 16.1464 4.36654 16.1464 4.99936C16.1464 5.63219 15.6334 6.1452 15.0006 6.1452H5.00058C4.36775 6.1452 3.85475 5.63219 3.85475 4.99936ZM4.99973 8.85507C4.36691 8.85507 3.8539 9.36808 3.8539 10.0009C3.8539 10.6337 4.36691 11.1467 4.99973 11.1467H12.4997C13.1326 11.1467 13.6456 10.6337 13.6456 10.0009C13.6456 9.36808 13.1326 8.85507 12.4997 8.85507H4.99973Z" fill="#7C9CB4"/>
</svg>
