<svg width="20" height="20" viewBox="0 0 20 20" fill="none" xmlns="http://www.w3.org/2000/svg">
<path d="M11.2219 9.99977L16.4137 4.80778C16.7516 4.47006 16.7516 3.92401 16.4137 3.5863C16.076 3.24858 15.5299 3.24858 15.1922 3.5863L10.0002 8.77829L4.80838 3.5863C4.47051 3.24858 3.92462 3.24858 3.5869 3.5863C3.24903 3.92401 3.24903 4.47006 3.5869 4.80778L8.77874 9.99977L3.5869 15.1918C3.24903 15.5295 3.24903 16.0755 3.5869 16.4132C3.75521 16.5817 3.9765 16.6663 4.19764 16.6663C4.41878 16.6663 4.63992 16.5817 4.80838 16.4132L10.0002 11.2213L15.1922 16.4132C15.3607 16.5817 15.5818 16.6663 15.803 16.6663C16.0241 16.6663 16.2452 16.5817 16.4137 16.4132C16.7516 16.0755 16.7516 15.5295 16.4137 15.1918L11.2219 9.99977Z" fill="#7C9CB4"/>
</svg>
