<svg width="28" height="28" viewBox="0 0 28 28" fill="none" xmlns="http://www.w3.org/2000/svg">
<path fill-rule="evenodd" clip-rule="evenodd" d="M13.9997 2.33301C20.443 2.33301 25.6663 7.55635 25.6663 13.9997C25.6663 20.443 20.443 25.6663 13.9997 25.6663C7.55635 25.6663 2.33301 20.443 2.33301 13.9997C2.33301 7.55635 7.55635 2.33301 13.9997 2.33301ZM13.9998 4.66622C8.84512 4.66622 4.66645 8.84489 4.66645 13.9996C4.66645 19.1542 8.84512 23.3329 13.9998 23.3329C19.1544 23.3329 23.3331 19.1542 23.3331 13.9996C23.3331 8.84489 19.1544 4.66622 13.9998 4.66622ZM13.9997 18.6662C14.644 18.6662 15.1663 19.1886 15.1663 19.8329C15.1663 20.4772 14.644 20.9996 13.9997 20.9996C13.3553 20.9996 12.833 20.4772 12.833 19.8329C12.833 19.1886 13.3553 18.6662 13.9997 18.6662ZM13.9997 6.9998C14.644 6.9998 15.1663 7.52213 15.1663 8.16646V15.1665C15.1663 15.8108 14.644 16.3331 13.9997 16.3331C13.3553 16.3331 12.833 15.8108 12.833 15.1665V8.16646C12.833 7.52213 13.3553 6.9998 13.9997 6.9998Z" fill="#E02020"/>
</svg>
