<svg width="20" height="20" viewBox="0 0 20 20" fill="none" xmlns="http://www.w3.org/2000/svg">
<path fill-rule="evenodd" clip-rule="evenodd" d="M5.83325 7.08317C5.83325 5.24637 7.28118 3.75102 9.17093 3.40751L9.16756 3.37106L9.16658 2.49984C9.16658 2.0396 9.53968 1.6665 9.99992 1.6665C10.4602 1.6665 10.8333 2.0396 10.8333 2.49984V3.33317L10.8297 3.40766C12.7191 3.75146 14.1666 5.24664 14.1666 7.08317C14.1666 7.54341 13.7935 7.9165 13.3333 7.9165C12.9059 7.9165 12.5537 7.5948 12.5055 7.18036L12.4999 7.08317C12.4999 5.95917 11.4035 4.99984 9.99992 4.99984C8.59629 4.99984 7.49992 5.95917 7.49992 7.08317C7.49992 8.16555 8.51658 9.09522 9.84526 9.1626L9.99992 9.16651C12.2782 9.16651 14.1666 10.8188 14.1666 12.9165C14.1666 14.7517 12.7212 16.246 10.8339 16.5913L10.8333 17.4998C10.8333 17.9601 10.4602 18.3332 9.99992 18.3332C9.53968 18.3332 9.16658 17.9601 9.16658 17.4998L9.16677 16.5914C7.27905 16.2465 5.83325 14.752 5.83325 12.9165C5.83325 12.4563 6.20635 12.0832 6.66659 12.0832C7.12682 12.0832 7.49992 12.4563 7.49992 12.9165C7.49992 14.0405 8.59629 14.9998 9.99992 14.9998C11.4035 14.9998 12.4999 14.0405 12.4999 12.9165C12.4999 11.8341 11.4833 10.9045 10.1546 10.8371L9.99992 10.8332C7.72164 10.8332 5.83325 9.18083 5.83325 7.08317Z" fill="#0D4774"/>
</svg>
