<svg width="21" height="20" viewBox="0 0 21 20" fill="none" xmlns="http://www.w3.org/2000/svg">
<path fill-rule="evenodd" clip-rule="evenodd" d="M15.7554 3.01763L17.479 4.74428C18.174 5.44228 18.174 6.57502 17.479 7.26996L8.75086 16.0104C8.67433 16.0869 8.58248 16.142 8.47839 16.1696L3.7944 17.489C3.65969 17.5197 3.3413 17.4921 3.18211 17.3298C3.02598 17.1676 2.96169 16.9349 3.02292 16.7176L4.33933 12.0305C4.36689 11.9264 4.42199 11.8346 4.49853 11.758L13.2328 3.01763C14.2033 2.04409 15.4187 2.68087 15.7554 3.01763ZM15.6026 7.37713L16.5945 6.38523C16.8027 6.17705 16.8027 5.83723 16.5945 5.62905L14.8709 3.9024C14.6688 3.70035 14.3168 3.70035 14.1147 3.9024L13.1228 4.89431L15.6026 7.37713ZM5.82715 12.1989L8.30691 14.6817L14.7176 8.26186L12.2378 5.77903L5.82715 12.1989ZM5.25499 13.3959L7.11022 15.2542L4.52637 15.9828L5.25499 13.3959Z" fill="#7C9CB4"/>
</svg>
