<svg width="16" height="16" viewBox="0 0 16 16" fill="none" xmlns="http://www.w3.org/2000/svg">
<path fill-rule="evenodd" clip-rule="evenodd" d="M6.66791 2.5C6.62371 2.5 6.58131 2.51756 6.55006 2.54882C6.5188 2.58007 6.50124 2.62246 6.50124 2.66667V4.16668H9.50124V2.66667C9.50124 2.62246 9.48368 2.58007 9.45243 2.54882C9.42117 2.51756 9.37878 2.5 9.33458 2.5H6.66791ZM5.50124 2.66667V4.16668H3.34178H3.32842H2.66797C2.39183 4.16668 2.16797 4.39054 2.16797 4.66668C2.16797 4.94282 2.39183 5.16668 2.66797 5.16668H2.87448L3.50135 12.6891C3.50719 13.1672 3.69966 13.6245 4.03818 13.963C4.382 14.3068 4.84831 14.5 5.33454 14.5H10.6679C11.1541 14.5 11.6204 14.3068 11.9642 13.963C12.3028 13.6245 12.4952 13.1672 12.5011 12.6891L13.1279 5.16668H13.3346C13.6108 5.16668 13.8346 4.94282 13.8346 4.66668C13.8346 4.39054 13.6108 4.16668 13.3346 4.16668H12.674H12.6606H10.5012V2.66667C10.5012 2.35725 10.3783 2.0605 10.1595 1.84171C9.94074 1.62292 9.644 1.5 9.33458 1.5H6.66791C6.35849 1.5 6.06174 1.62292 5.84295 1.84171C5.62416 2.0605 5.50124 2.35725 5.50124 2.66667ZM7.16797 7.33332C7.16797 7.05718 6.94411 6.83332 6.66797 6.83332C6.39183 6.83332 6.16797 7.05718 6.16797 7.33332V11.3333C6.16797 11.6095 6.39183 11.8333 6.66797 11.8333C6.94411 11.8333 7.16797 11.6095 7.16797 11.3333V7.33332ZM9.33452 6.83332C9.61066 6.83332 9.83452 7.05718 9.83452 7.33332V11.3333C9.83452 11.6095 9.61066 11.8333 9.33452 11.8333C9.05837 11.8333 8.83452 11.6095 8.83452 11.3333V7.33332C8.83452 7.05718 9.05837 6.83332 9.33452 6.83332Z" fill="#7C9CB4"/>
</svg>
