<?xml version="1.0" encoding="UTF-8"?>
<svg width="100px" height="101px" viewBox="0 0 100 101" version="1.1" xmlns="http://www.w3.org/2000/svg" xmlns:xlink="http://www.w3.org/1999/xlink">
    <title>Group 9</title>
    <defs>
        <path d="M49.4735329,-8.27454919e-13 C22.150061,-8.27454919e-13 -2.13162821e-14,22.1937416 -2.13162821e-14,49.5714267 C-2.13162821e-14,76.9491118 22.150061,99.1428534 49.4735329,99.1428534 C76.7967374,99.1428534 98.9467984,76.9491118 98.9467984,49.5714267 C98.9467984,22.1937416 76.7967374,-8.27454919e-13 49.4735329,-8.27454919e-13 Z" id="path-1"></path>
    </defs>
    <g id="UI" stroke="none" stroke-width="1" fill="none" fill-rule="evenodd">
        <g id="Group-9" transform="translate(0.053202, 0.282856)">
            <mask id="mask-2" fill="white">
                <use xlink:href="#path-1"></use>
            </mask>
            <use id="Mask" fill="#F3F7FA" transform="translate(49.473399, 49.571427) scale(-1, 1) translate(-49.473399, -49.571427) " xlink:href="#path-1"></use>
            <g opacity="0.496140253" mask="url(#mask-2)">
                <g transform="translate(5.346971, 1.352427)">
                    <path d="M62.6775584,8.56180504 C43.8183885,8.56180504 39.1707844,26.9919053 39.1707844,50.1797038 C39.1707844,62.4784867 32.9937668,97.7923024 32.9937668,97.7923024 L51.9419816,97.7923024 C51.9419816,97.7923024 49.483263,65.1227862 49.4055511,64.2749059 C48.1173683,62.9087289 47.2182846,61.5356413 46.9786729,60.3533931 C46.0342573,55.7052017 45.6251904,51.0339632 45.6251904,51.0339632 C45.6251904,51.0339632 44.4082435,51.4438163 43.7336609,50.306753 C43.4352256,49.8028091 43.5264291,48.6072713 43.1513612,46.9147002 C42.6694395,44.7468909 41.3456386,42.8576329 43.2878968,42.095338 C44.4654481,41.631263 46.1071122,42.5705762 46.5345277,44.4279391 C57.8626579,41.4547764 65.5825808,32.5560201 69.5404916,26.8138239 C66.9495549,32.5172143 81.5361886,8.56180504 62.6775584,8.56180504 Z" id="Fill-417" fill="#7C9CB4" transform="translate(52.745080, 53.177054) scale(-1, 1) rotate(-2.000000) translate(-52.745080, -53.177054) "></path>
                    <path d="M29.8900123,69.1107791 C29.8900123,61.3327155 56.5896079,67.4268684 56.5896079,67.4268684 C56.5896079,67.4268684 57.8137886,74.7479526 61.5686683,77.5367015 C62.8154351,78.1506499 68.3860541,80.7651709 73.755917,83.7890448 C79.4527502,86.9962515 81.4485295,103.909584 81.4485295,103.909584 L7.07229057,103.909584 C7.07229057,103.909584 9.06829598,86.9962515 14.7642249,83.7890448 L15.6522083,83.2909967 C20.8016776,80.4139318 26.1819083,77.593699 26.7585948,77.2926643 L26.9038814,77.1472254 C28.3716407,75.6497429 29.8900123,73.1294453 29.8900123,69.1107791 Z" id="Combined-Shape" fill="#9EB5C7"></path>
                    <path d="M28.8069161,49.8685878 C28.672247,53.2462065 28.8069161,52.3472127 28.8069161,52.3472127 L30.0437745,52.3472127 C30.0437745,52.3472127 31.2806329,46.1506504 31.2806329,46.1506504 C34.1432836,34.677328 30.6454823,25.5939076 25.8168929,19.1462255 C20.2140994,11.6647378 18.9055844,22.6037136 24.4056472,23.9113275 C26.8206527,29.550396 26.629611,41.183101 27.6350088,43.598098 C27.8120193,42.8283609 29.215983,49.8590192 28.8069161,49.8685878 Z" id="Fill-417-Copy-3" fill="#9EB5C7" transform="translate(26.599716, 34.503152) scale(-1, 1) rotate(10.000000) translate(-26.599716, -34.503152) "></path>
                    <path d="M42.7831423,75.3509912 C38.5506753,74.897301 32.9622876,71.2086089 29.5864537,67.569161 C28.2682875,66.1456131 26.1934738,58.9036231 25.8758785,57.6546612 C25.8397484,57.5016795 25.2314867,51.8244974 25.2314867,51.8244974 C25.2134216,51.8309203 24.989648,51.9033239 24.6813767,51.9039078 C24.2309158,51.9021561 23.616704,51.7503422 23.1953804,51.0362326 C22.866713,50.4721853 22.9651966,49.1589945 22.5601898,47.2998573 C22.246091,45.8628797 21.6009938,44.537427 21.5998283,43.5278641 C21.5992456,42.8645539 21.8760488,42.3378762 22.707624,42.006221 C22.9313975,41.9180522 23.1586675,41.8771792 23.3905995,41.8771792 C24.5479284,41.8800987 25.8305471,42.8785675 26.2134097,44.5683737 C26.6036901,44.4641781 25.8310671,38.2526128 26.2134097,38.1354899 C37.8146475,34.5816868 46.5151435,28.7235274 50.6526261,22.6174783 C54.5105858,20.1718856 63.8941961,36.0694008 61.1242311,44.5683737 C61.315371,43.7228867 61.6844322,43.0508179 62.1978294,42.5907048 C62.7298743,42.1206654 63.3277693,41.878347 63.8941961,41.8771792 C64.1372002,41.8777631 64.3673839,41.9198039 64.5829991,42.006221 C65.4145742,42.3378762 65.6913775,42.8645539 65.6907947,43.5278641 C65.6890465,44.537427 65.0439493,45.8628797 64.7304332,47.2998573 C64.3248436,49.1589945 64.4233273,50.4721853 64.1010701,51.0257224 C63.6774155,51.75151 63.0567935,51.9039078 62.6109946,51.9039078 C62.2899029,51.9039078 62.0591364,51.8244974 62.0591364,51.8244974 C62.0591364,51.8244974 58.9497287,65.3009748 57.5703745,66.7945907 C57.273758,67.1151517 56.8923462,68.107634 56.5654271,68.4211883 C53.1132537,71.7283972 48.350675,74.9486842 44.4789263,75.3539107 C44.1927992,75.3836896 43.9142477,75.398871 43.6450201,75.398871 C43.3664687,75.398871 43.0791761,75.3825218 42.7831423,75.3509912 Z" id="Fill-405" fill="#9EB5C7" transform="translate(43.645312, 48.881794) scale(-1, 1) translate(-43.645312, -48.881794) "></path>
                    <path d="M43.5455208,64.7534509 C45.7246671,64.7534509 47.4912143,63.2362633 47.4912143,61.3647175 L39.5998274,61.3647175 C39.5998274,63.2362633 41.3663745,64.7534509 43.5455208,64.7534509 Z" id="Oval-201" fill="#FFFFFF" transform="translate(43.545521, 63.059084) scale(-1, 1) translate(-43.545521, -63.059084) "></path>
                    <path d="M44.1527031,58.3163463 C59.3509551,58.3163463 54.7129418,68.5727253 44.1527031,68.5727253 C34.8293227,68.5727253 30.1913095,58.3163463 44.1527031,58.3163463 Z M44.1527031,55.7522515 C34.6315464,55.6884415 31.3786679,61.0517436 29.3104025,59.5983936 C27.1405426,57.4444102 25.5998274,51.5916071 25.5998274,51.5916071 C25.5998274,51.5916071 25.7527405,59.1855269 28.0735441,63.4445358 C30.5017345,69.5751039 36.5638118,74.9829621 44.1527031,74.9829621 C51.7415944,74.9829621 57.8036717,69.5751039 60.231862,63.4445358 C62.5526657,59.1855269 62.7055788,51.9488443 62.7055788,51.9488443 C62.7055788,51.9488443 61.4587198,49.3647175 61.4587198,49.3647175 C61.4587198,49.3647175 60.7602813,57.8460322 58.9950036,59.5983936 C56.9267383,61.0517436 53.6738598,55.6884415 44.1527031,55.7522515 Z" id="Fill-261" fill="#7C9CB4" transform="translate(44.152703, 62.173840) scale(-1, 1) translate(-44.152703, -62.173840) "></path>
                    <path d="M42.7733013,9.30958128 C28.9656829,9.23642835 22.3369243,19.9740995 21.5702058,25.858757 C20.8847857,31.119069 26.0576564,32.6024574 29.9896679,27.6672153 C26.2566288,47.0581011 59.4882739,39.7382592 59.6042294,45.7411789 C61.1503024,45.7411789 62.1140223,44.2931242 62.1140223,41.5584994 C62.1140223,34.6648238 62.8633579,31.0558306 62.1140223,25.858757 C61.3018409,20.228661 57.1510779,9.38380604 42.7733013,9.30958128 Z" id="Fill-15" fill="#7C9CB4"></path>
                    <path d="M21.2320255,6.04824365 C21.915447,5.84917351 22.634324,6.28415422 22.8356848,7.02186558 L22.8356848,7.02186558 L22.8687153,7.14495522 C22.8959577,7.24465339 22.9123175,7.34477565 22.9185435,7.44387522 C27.2925746,6.71527782 31.974218,5.72016135 35.956712,7.40984051 C39.9536428,9.10268252 43.3683861,14.0403821 47.7524752,23.3458298 C47.7524752,23.3458298 64.533908,24.269173 65.1029219,24.4285712 C65.5612942,24.5557616 65.8053546,24.9966008 65.6420085,25.5183524 C64.3784665,29.5857683 60.6316852,31.595549 56.8970516,32.6728757 C55.7406402,33.0058034 47.6819459,34.2810254 47.6819459,34.2810254 C30.5193268,41.3170681 6.95983943,42.9126462 5.75821849,39.5863832 C5.21480094,38.0844857 -1.11393806,22.7972673 7.45834153,14.484293 C9.99648931,12.0223142 14.6837492,10.4371227 18.5352146,8.64390628 C18.5027469,8.57592037 18.4770615,8.50423326 18.4567074,8.42943617 L18.4567074,8.42943617 L18.4226031,8.30716306 C18.2232025,7.57043413 18.6134097,6.81143049 19.2980048,6.61217445 L19.2980048,6.61217445 Z" id="Combined-Shape" fill="#7C9CB4" transform="translate(34.346403, 23.626424) scale(-1, 1) rotate(10.000000) translate(-34.346403, -23.626424) "></path>
                </g>
            </g>
        </g>
    </g>
</svg>