<svg width="28" height="28" viewBox="0 0 28 28" fill="none" xmlns="http://www.w3.org/2000/svg">
<path fill-rule="evenodd" clip-rule="evenodd" d="M7.00019 3.59729C6.09772 3.59729 5.23221 3.9558 4.59406 4.59394C3.95592 5.23209 3.59741 6.0976 3.59741 7.00007V21.0001C3.59741 21.9025 3.95592 22.7681 4.59406 23.4062C5.23221 24.0443 6.09772 24.4028 7.00019 24.4028H21.0002C21.5932 24.4028 22.162 24.1673 22.5814 23.7479C23.0007 23.3286 23.2363 22.7598 23.2363 22.1667V19.7362H23.3335C23.9242 19.7362 24.403 19.2574 24.403 18.6667V14.0001C24.403 13.4094 23.9242 12.9306 23.3335 12.9306H23.2363V10.5001C23.2363 9.90702 23.0007 9.33825 22.5814 8.9189C22.162 8.49955 21.5932 8.26396 21.0002 8.26396H20.903V5.8334C20.903 5.24035 20.6674 4.67159 20.248 4.25223C19.8287 3.83288 19.2599 3.59729 18.6669 3.59729H7.00019ZM22.1648 15.0695C22.1655 15.0695 22.1662 15.0695 22.1669 15.0695C22.1675 15.0695 22.1682 15.0695 22.1689 15.0695H22.2641V17.5973H18.6669C18.3317 17.5973 18.0102 17.4641 17.7732 17.2271C17.5361 16.9901 17.403 16.6686 17.403 16.3334C17.403 15.9982 17.5361 15.6767 17.7732 15.4397C18.0102 15.2027 18.3317 15.0695 18.6669 15.0695H22.1648ZM21.0974 12.9306V10.5001C21.0974 10.4743 21.0872 10.4496 21.0689 10.4313C21.0507 10.4131 21.026 10.4028 21.0002 10.4028H7.00019C6.563 10.4028 6.13449 10.3187 5.7363 10.1594V21.0001C5.7363 21.3353 5.86946 21.6567 6.10649 21.8938C6.34351 22.1308 6.66499 22.264 7.00019 22.264H21.0002C21.026 22.264 21.0507 22.2537 21.0689 22.2355C21.0872 22.2173 21.0974 22.1925 21.0974 22.1667V19.7362H18.6669C17.7644 19.7362 16.8989 19.3777 16.2607 18.7395C15.6226 18.1014 15.2641 17.2359 15.2641 16.3334C15.2641 15.4309 15.6226 14.5654 16.2607 13.9273C16.8989 13.2891 17.7644 12.9306 18.6669 12.9306H21.0974ZM6.10649 7.89377C5.86946 7.65675 5.7363 7.33527 5.7363 7.00007C5.7363 6.66486 5.86946 6.34339 6.10649 6.10636C6.34351 5.86934 6.66499 5.73618 7.00019 5.73618H18.6669C18.6926 5.73618 18.7174 5.74642 18.7356 5.76465C18.7538 5.78289 18.7641 5.80762 18.7641 5.8334V8.26396H7.00019C6.66499 8.26396 6.34351 8.1308 6.10649 7.89377Z" fill="#0D4774"/>
</svg>
