<svg width="16" height="16" viewBox="0 0 16 16" fill="none" xmlns="http://www.w3.org/2000/svg">
<path fill-rule="evenodd" clip-rule="evenodd" d="M4.00011 2.05566C3.48441 2.05566 2.98983 2.26052 2.62518 2.62518C2.26052 2.98983 2.05566 3.48441 2.05566 4.00011V12.0001C2.05566 12.5158 2.26052 13.0104 2.62518 13.375C2.98983 13.7397 3.48441 13.9446 4.00011 13.9446H12.0001C12.339 13.9446 12.664 13.8099 12.9036 13.5703C13.1433 13.3307 13.2779 13.0057 13.2779 12.6668V11.2779H13.3334C13.6709 11.2779 13.9446 11.0043 13.9446 10.6668V8.00011C13.9446 7.6626 13.6709 7.389 13.3334 7.389H13.2779V6.00011C13.2779 5.66122 13.1433 5.33622 12.9036 5.09658C12.664 4.85695 12.339 4.72233 12.0001 4.72233H11.9446V3.33344C11.9446 2.99455 11.8099 2.66955 11.5703 2.42992C11.3307 2.19029 11.0057 2.05566 10.6668 2.05566H4.00011ZM12.6657 8.61122C12.666 8.61122 12.6664 8.61122 12.6668 8.61122C12.6671 8.61122 12.6675 8.61122 12.6679 8.61122H12.7223V10.0557H12.6668H10.6668C10.4752 10.0557 10.2915 9.97957 10.1561 9.84413C10.0206 9.70869 9.94455 9.52499 9.94455 9.33344C9.94455 9.1419 10.0206 8.9582 10.1561 8.82275C10.2915 8.68731 10.4752 8.61122 10.6668 8.61122H12.6657ZM12.0557 7.389V6.00011C12.0557 5.98537 12.0498 5.97124 12.0394 5.96083C12.029 5.95041 12.0148 5.94455 12.0001 5.94455H4.00011C3.75029 5.94455 3.50542 5.89648 3.27789 5.80545V12.0001C3.27789 12.1917 3.35398 12.3754 3.48942 12.5108C3.62486 12.6462 3.80856 12.7223 4.00011 12.7223H12.0001C12.0148 12.7223 12.029 12.7165 12.0394 12.7061C12.0498 12.6956 12.0557 12.6815 12.0557 12.6668V11.2779H10.6668C10.1511 11.2779 9.6565 11.073 9.29185 10.7084C8.92719 10.3437 8.72233 9.84914 8.72233 9.33344C8.72233 8.81774 8.92719 8.32317 9.29185 7.95851C9.6565 7.59386 10.1511 7.389 10.6668 7.389H12.0557ZM3.48942 4.5108C3.35398 4.37535 3.27789 4.19165 3.27789 4.00011C3.27789 3.80856 3.35398 3.62486 3.48942 3.48942C3.62486 3.35398 3.80856 3.27789 4.00011 3.27789H10.6668C10.6815 3.27789 10.6956 3.28374 10.7061 3.29416C10.7165 3.30458 10.7223 3.31871 10.7223 3.33344V4.72233H4.00011C3.80856 4.72233 3.62486 4.64624 3.48942 4.5108Z" fill="#7C9CB4"/>
</svg>
